<svg xmlns="http://www.w3.org/2000/svg" xmlns:xlink="http://www.w3.org/1999/xlink" width="500" zoomAndPan="magnify" viewBox="0 0 375 374.999991" height="500" preserveAspectRatio="xMidYMid meet" version="1.2"><g id="ab1a9a0666"><path style=" stroke:none;fill-rule:nonzero;fill:#f7931a;fill-opacity:1;" d="M 333.621094 224.71875 C 313.644531 304.851562 232.484375 353.617188 152.34375 333.632812 C 72.238281 313.65625 23.472656 232.492188 43.457031 152.367188 C 63.425781 72.230469 144.585938 23.457031 224.703125 43.433594 C 304.835938 63.414062 353.597656 144.585938 333.621094 224.71875 Z M 333.621094 224.71875 "/><path style=" stroke:none;fill-rule:nonzero;fill:#ffffff;fill-opacity:1;" d="M 254.484375 167.226562 C 257.464844 147.324219 242.308594 136.625 221.589844 129.488281 L 228.308594 102.527344 L 211.898438 98.4375 L 205.355469 124.6875 C 201.039062 123.613281 196.609375 122.597656 192.207031 121.59375 L 198.796875 95.167969 L 182.394531 91.078125 L 175.667969 118.03125 C 172.097656 117.21875 168.59375 116.414062 165.191406 115.566406 L 165.207031 115.484375 L 142.574219 109.832031 L 138.210938 127.359375 C 138.210938 127.359375 150.386719 130.152344 150.128906 130.324219 C 156.777344 131.984375 157.976562 136.382812 157.777344 139.871094 L 150.121094 170.582031 C 150.578125 170.699219 151.171875 170.867188 151.824219 171.128906 C 151.277344 170.996094 150.695312 170.84375 150.089844 170.699219 L 139.359375 213.726562 C 138.546875 215.746094 136.484375 218.773438 131.839844 217.625 C 132.003906 217.863281 119.910156 214.648438 119.910156 214.648438 L 111.761719 233.433594 L 133.121094 238.757812 C 137.09375 239.753906 140.988281 240.796875 144.820312 241.777344 L 138.027344 269.046875 L 154.421875 273.136719 L 161.144531 246.15625 C 165.625 247.371094 169.972656 248.492188 174.226562 249.550781 L 167.523438 276.402344 L 183.933594 280.492188 L 190.726562 253.273438 C 218.710938 258.570312 239.753906 256.433594 248.609375 231.125 C 255.746094 210.746094 248.253906 198.988281 233.53125 191.324219 C 244.253906 188.851562 252.332031 181.796875 254.484375 167.226562 Z M 216.988281 219.808594 C 211.917969 240.1875 177.605469 229.171875 166.480469 226.40625 L 175.492188 190.28125 C 186.617188 193.058594 222.289062 198.554688 216.988281 219.808594 Z M 222.066406 166.933594 C 217.4375 185.472656 188.878906 176.050781 179.613281 173.742188 L 187.785156 140.976562 C 197.050781 143.285156 226.882812 147.597656 222.066406 166.933594 Z M 222.066406 166.933594 "/></g></svg>