<svg xmlns="http://www.w3.org/2000/svg" xmlns:xlink="http://www.w3.org/1999/xlink" width="500" zoomAndPan="magnify" viewBox="0 0 375 374.999991" height="500" preserveAspectRatio="xMidYMid meet" version="1.2"><defs><clipPath id="0b8ad2eaf9"><path d="M 0.5 0.613281 L 282.269531 0.613281 L 282.269531 282.386719 L 0.5 282.386719 Z M 0.5 0.613281 "/></clipPath><clipPath id="67dc25d027"><path d="M 31.695312 16.539062 L 251.058594 16.539062 L 251.058594 257.4375 L 31.695312 257.4375 Z M 31.695312 16.539062 "/></clipPath><clipPath id="bd8a6ce6cd"><rect x="0" width="301" y="0" height="283"/></clipPath></defs><g id="4bd1706a37"><g transform="matrix(1,0,0,1,37,46)"><g clip-path="url(#bd8a6ce6cd)"><g clip-rule="nonzero" clip-path="url(#0b8ad2eaf9)"><path style=" stroke:none;fill-rule:nonzero;fill:#000000;fill-opacity:1;" d="M 282.269531 141.5 C 282.269531 143.804688 282.214844 146.109375 282.101562 148.414062 C 281.988281 150.714844 281.816406 153.015625 281.59375 155.308594 C 281.367188 157.605469 281.085938 159.890625 280.746094 162.171875 C 280.40625 164.453125 280.011719 166.722656 279.5625 168.984375 C 279.113281 171.246094 278.609375 173.496094 278.046875 175.730469 C 277.488281 177.96875 276.875 180.191406 276.203125 182.398438 C 275.535156 184.601562 274.8125 186.792969 274.035156 188.960938 C 273.257812 191.132812 272.429688 193.285156 271.546875 195.414062 C 270.664062 197.542969 269.730469 199.652344 268.746094 201.734375 C 267.757812 203.820312 266.722656 205.878906 265.636719 207.914062 C 264.546875 209.945312 263.414062 211.953125 262.226562 213.929688 C 261.042969 215.90625 259.808594 217.855469 258.527344 219.773438 C 257.246094 221.6875 255.917969 223.574219 254.546875 225.425781 C 253.171875 227.277344 251.753906 229.09375 250.292969 230.875 C 248.828125 232.660156 247.324219 234.40625 245.773438 236.113281 C 244.226562 237.820312 242.636719 239.492188 241.007812 241.121094 C 239.375 242.75 237.707031 244.339844 236 245.890625 C 234.289062 247.4375 232.542969 248.941406 230.761719 250.40625 C 228.980469 251.867188 227.164062 253.285156 225.308594 254.660156 C 223.457031 256.035156 221.574219 257.359375 219.65625 258.640625 C 217.738281 259.921875 215.792969 261.15625 213.816406 262.339844 C 211.835938 263.527344 209.832031 264.664062 207.796875 265.75 C 205.765625 266.835938 203.707031 267.871094 201.621094 268.859375 C 199.539062 269.84375 197.429688 270.777344 195.300781 271.660156 C 193.167969 272.542969 191.019531 273.371094 188.847656 274.148438 C 186.675781 274.925781 184.488281 275.648438 182.28125 276.320312 C 180.074219 276.988281 177.855469 277.601562 175.617188 278.164062 C 173.382812 278.722656 171.132812 279.226562 168.871094 279.679688 C 166.609375 280.128906 164.339844 280.523438 162.058594 280.859375 C 159.777344 281.199219 157.488281 281.480469 155.195312 281.707031 C 152.898438 281.933594 150.601562 282.101562 148.296875 282.214844 C 145.996094 282.328125 143.691406 282.386719 141.386719 282.386719 C 139.078125 282.386719 136.773438 282.328125 134.472656 282.214844 C 132.167969 282.101562 129.871094 281.933594 127.578125 281.707031 C 125.28125 281.480469 122.992188 281.199219 120.714844 280.859375 C 118.433594 280.523438 116.160156 280.128906 113.898438 279.679688 C 111.636719 279.226562 109.390625 278.722656 107.152344 278.164062 C 104.917969 277.601562 102.695312 276.988281 100.488281 276.320312 C 98.28125 275.648438 96.09375 274.925781 93.921875 274.148438 C 91.75 273.371094 89.601562 272.542969 87.46875 271.660156 C 85.339844 270.777344 83.234375 269.84375 81.148438 268.859375 C 79.066406 267.871094 77.003906 266.835938 74.972656 265.75 C 72.9375 264.664062 70.933594 263.527344 68.957031 262.339844 C 66.976562 261.15625 65.03125 259.921875 63.113281 258.640625 C 61.195312 257.359375 59.3125 256.035156 57.460938 254.660156 C 55.609375 253.285156 53.789062 251.867188 52.007812 250.40625 C 50.226562 248.941406 48.480469 247.4375 46.773438 245.890625 C 45.0625 244.339844 43.394531 242.75 41.765625 241.121094 C 40.132812 239.492188 38.542969 237.820312 36.996094 236.113281 C 35.449219 234.40625 33.941406 232.660156 32.480469 230.875 C 31.015625 229.09375 29.597656 227.277344 28.226562 225.425781 C 26.851562 223.574219 25.523438 221.6875 24.242188 219.773438 C 22.960938 217.855469 21.730469 215.90625 20.542969 213.929688 C 19.359375 211.953125 18.222656 209.945312 17.136719 207.914062 C 16.046875 205.878906 15.011719 203.820312 14.027344 201.734375 C 13.039062 199.652344 12.105469 197.542969 11.222656 195.414062 C 10.339844 193.285156 9.511719 191.132812 8.734375 188.960938 C 7.957031 186.792969 7.234375 184.601562 6.566406 182.398438 C 5.898438 180.191406 5.28125 177.96875 4.722656 175.730469 C 4.160156 173.496094 3.65625 171.246094 3.207031 168.984375 C 2.757812 166.722656 2.363281 164.453125 2.023438 162.171875 C 1.6875 159.890625 1.40625 157.605469 1.179688 155.308594 C 0.953125 153.015625 0.78125 150.714844 0.667969 148.414062 C 0.554688 146.109375 0.5 143.804688 0.5 141.5 C 0.5 139.195312 0.554688 136.890625 0.667969 134.585938 C 0.78125 132.285156 0.953125 129.984375 1.179688 127.691406 C 1.40625 125.394531 1.6875 123.109375 2.023438 120.828125 C 2.363281 118.546875 2.757812 116.277344 3.207031 114.015625 C 3.65625 111.753906 4.160156 109.503906 4.722656 107.269531 C 5.28125 105.03125 5.898438 102.808594 6.566406 100.601562 C 7.234375 98.398438 7.957031 96.207031 8.734375 94.035156 C 9.511719 91.867188 10.339844 89.714844 11.222656 87.585938 C 12.105469 85.457031 13.039062 83.347656 14.027344 81.265625 C 15.011719 79.179688 16.046875 77.121094 17.136719 75.085938 C 18.222656 73.054688 19.359375 71.046875 20.542969 69.070312 C 21.730469 67.09375 22.960938 65.144531 24.242188 63.226562 C 25.523438 61.3125 26.851562 59.425781 28.226562 57.574219 C 29.597656 55.722656 31.015625 53.90625 32.480469 52.125 C 33.941406 50.339844 35.449219 48.59375 36.996094 46.886719 C 38.542969 45.179688 40.132812 43.507812 41.765625 41.878906 C 43.394531 40.25 45.0625 38.660156 46.773438 37.109375 C 48.480469 35.5625 50.226562 34.058594 52.007812 32.59375 C 53.789062 31.132812 55.609375 29.714844 57.460938 28.339844 C 59.3125 26.964844 61.195312 25.640625 63.113281 24.359375 C 65.03125 23.078125 66.976562 21.84375 68.957031 20.660156 C 70.933594 19.472656 72.9375 18.335938 74.972656 17.25 C 77.003906 16.164062 79.066406 15.125 81.148438 14.140625 C 83.234375 13.15625 85.339844 12.222656 87.472656 11.339844 C 89.601562 10.457031 91.75 9.625 93.921875 8.851562 C 96.09375 8.074219 98.28125 7.351562 100.488281 6.679688 C 102.695312 6.011719 104.917969 5.398438 107.152344 4.835938 C 109.390625 4.277344 111.636719 3.769531 113.898438 3.320312 C 116.160156 2.871094 118.433594 2.476562 120.714844 2.140625 C 122.992188 1.800781 125.28125 1.519531 127.578125 1.292969 C 129.871094 1.066406 132.167969 0.898438 134.472656 0.785156 C 136.773438 0.671875 139.078125 0.613281 141.386719 0.613281 C 143.691406 0.613281 145.996094 0.671875 148.296875 0.785156 C 150.601562 0.898438 152.898438 1.066406 155.195312 1.292969 C 157.488281 1.519531 159.777344 1.800781 162.058594 2.140625 C 164.339844 2.476562 166.609375 2.871094 168.871094 3.320312 C 171.132812 3.769531 173.382812 4.277344 175.617188 4.835938 C 177.855469 5.398438 180.074219 6.011719 182.28125 6.679688 C 184.488281 7.351562 186.675781 8.074219 188.847656 8.851562 C 191.019531 9.625 193.167969 10.457031 195.300781 11.339844 C 197.429688 12.222656 199.539062 13.15625 201.621094 14.140625 C 203.707031 15.125 205.765625 16.164062 207.796875 17.25 C 209.832031 18.335938 211.835938 19.472656 213.816406 20.660156 C 215.792969 21.84375 217.738281 23.078125 219.65625 24.359375 C 221.574219 25.640625 223.457031 26.964844 225.308594 28.339844 C 227.164062 29.714844 228.980469 31.132812 230.761719 32.59375 C 232.542969 34.058594 234.289062 35.5625 236 37.109375 C 237.707031 38.660156 239.375 40.25 241.007812 41.878906 C 242.636719 43.507812 244.226562 45.179688 245.773438 46.886719 C 247.324219 48.59375 248.828125 50.339844 250.292969 52.125 C 251.753906 53.90625 253.171875 55.722656 254.546875 57.574219 C 255.917969 59.425781 257.246094 61.3125 258.527344 63.226562 C 259.808594 65.144531 261.042969 67.09375 262.226562 69.070312 C 263.414062 71.046875 264.546875 73.054688 265.636719 75.085938 C 266.722656 77.121094 267.757812 79.179688 268.746094 81.265625 C 269.730469 83.347656 270.664062 85.457031 271.546875 87.585938 C 272.429688 89.714844 273.257812 91.867188 274.035156 94.035156 C 274.8125 96.207031 275.535156 98.398438 276.203125 100.601562 C 276.875 102.808594 277.488281 105.03125 278.046875 107.269531 C 278.609375 109.503906 279.113281 111.753906 279.5625 114.015625 C 280.011719 116.277344 280.40625 118.546875 280.746094 120.828125 C 281.085938 123.109375 281.367188 125.394531 281.59375 127.691406 C 281.816406 129.984375 281.988281 132.285156 282.101562 134.585938 C 282.214844 136.890625 282.269531 139.195312 282.269531 141.5 Z M 282.269531 141.5 "/></g><g clip-rule="nonzero" clip-path="url(#67dc25d027)"><path style=" stroke:none;fill-rule:nonzero;fill:#ffffff;fill-opacity:1;" d="M 251.046875 148.304688 C 251.109375 153.492188 250.910156 158.6875 250.277344 163.863281 C 249.597656 169.015625 248.648438 174.160156 247.234375 179.1875 C 245.796875 184.203125 244.085938 189.167969 241.941406 193.953125 C 239.777344 198.726562 237.328125 203.382812 234.507812 207.832031 C 223.269531 225.617188 206.550781 240.085938 187.011719 248.695312 C 167.492188 257.375 145.261719 260.101562 123.9375 256.363281 C 102.589844 252.699219 82.300781 242.453125 66.449219 227.285156 C 50.574219 212.160156 39.167969 192.136719 34.394531 170.390625 C 29.546875 148.6875 31.226562 125.429688 39.421875 104.390625 C 47.566406 83.363281 62.117188 64.742188 80.84375 51.65625 C 85.511719 48.382812 90.457031 45.476562 95.558594 42.867188 C 100.667969 40.292969 106.011719 38.160156 111.464844 36.332031 C 116.921875 34.515625 122.542969 33.203125 128.214844 32.191406 C 133.15625 31.355469 138.140625 30.871094 143.136719 30.636719 L 146.328125 16.539062 L 181.886719 49.4375 L 135.617188 63.792969 L 137.625 54.929688 C 121.835938 55.816406 106.222656 60.738281 92.664062 69.316406 C 76.851562 79.242188 63.945312 94.0625 56.257812 111.371094 C 48.503906 128.652344 46.011719 148.453125 49.285156 167.445312 C 52.488281 186.421875 61.546875 204.515625 75.046875 218.6875 C 88.503906 232.90625 106.320312 243.117188 125.710938 247.425781 C 145.070312 251.808594 165.898438 250.363281 184.6875 243.085938 C 203.5 235.871094 220.226562 222.882812 231.984375 206.140625 C 234.941406 201.960938 237.539062 197.542969 239.882812 192.980469 C 242.21875 188.398438 244.128906 183.625 245.789062 178.746094 C 247.414062 173.867188 248.597656 168.828125 249.523438 163.746094 C 250.402344 158.65625 250.855469 153.492188 251.046875 148.304688 "/></g><path style=" stroke:none;fill-rule:nonzero;fill:#ffffff;fill-opacity:1;" d="M 145.429688 64.613281 C 144.261719 64.613281 143.316406 65.558594 143.316406 66.722656 L 143.316406 73.621094 C 143.316406 74.789062 144.261719 75.734375 145.429688 75.734375 C 146.597656 75.734375 147.542969 74.789062 147.542969 73.621094 L 147.542969 66.722656 C 147.542969 65.558594 146.597656 64.613281 145.429688 64.613281 "/><path style=" stroke:none;fill-rule:nonzero;fill:#ffffff;fill-opacity:1;" d="M 70.746094 146.195312 L 63.847656 146.195312 C 62.679688 146.195312 61.734375 147.140625 61.734375 148.304688 C 61.734375 149.472656 62.679688 150.417969 63.847656 150.417969 L 70.746094 150.417969 C 71.914062 150.417969 72.859375 149.472656 72.859375 148.304688 C 72.859375 147.140625 71.914062 146.195312 70.746094 146.195312 "/><path style=" stroke:none;fill-rule:nonzero;fill:#ffffff;fill-opacity:1;" d="M 145.429688 220.875 C 144.261719 220.875 143.316406 221.820312 143.316406 222.988281 L 143.316406 229.886719 C 143.316406 231.054688 144.261719 232 145.429688 232 C 146.59375 232 147.542969 231.054688 147.542969 229.886719 L 147.542969 222.988281 C 147.542969 221.820312 146.59375 220.875 145.429688 220.875 "/><path style=" stroke:none;fill-rule:nonzero;fill:#ffffff;fill-opacity:1;" d="M 227.011719 146.191406 L 220.113281 146.191406 C 218.945312 146.191406 218 147.140625 218 148.304688 C 218 149.472656 218.945312 150.417969 220.113281 150.417969 L 227.011719 150.417969 C 228.179688 150.417969 229.125 149.472656 229.125 148.304688 C 229.125 147.140625 228.179688 146.191406 227.011719 146.191406 "/><path style=" stroke:none;fill-rule:nonzero;fill:#ffffff;fill-opacity:1;" d="M 107.136719 79.867188 C 106.84375 79.363281 106.199219 79.1875 105.695312 79.480469 C 105.1875 79.773438 105.015625 80.417969 105.308594 80.921875 L 107.171875 84.15625 C 107.371094 84.496094 107.722656 84.683594 108.089844 84.683594 C 108.269531 84.683594 108.449219 84.640625 108.617188 84.542969 C 109.121094 84.25 109.296875 83.605469 109.003906 83.101562 L 107.136719 79.867188 "/><path style=" stroke:none;fill-rule:nonzero;fill:#ffffff;fill-opacity:1;" d="M 81.28125 110.050781 L 78.046875 108.183594 C 77.542969 107.890625 76.894531 108.066406 76.605469 108.570312 C 76.3125 109.074219 76.484375 109.71875 76.992188 110.011719 L 80.222656 111.878906 C 80.390625 111.976562 80.574219 112.019531 80.75 112.019531 C 81.117188 112.019531 81.472656 111.832031 81.667969 111.492188 C 81.957031 110.988281 81.785156 110.34375 81.28125 110.050781 "/><path style=" stroke:none;fill-rule:nonzero;fill:#ffffff;fill-opacity:1;" d="M 80.226562 184.730469 L 76.992188 186.597656 C 76.484375 186.890625 76.3125 187.535156 76.605469 188.042969 C 76.800781 188.382812 77.15625 188.570312 77.519531 188.570312 C 77.699219 188.570312 77.878906 188.523438 78.046875 188.429688 L 81.28125 186.5625 C 81.785156 186.269531 81.960938 185.625 81.667969 185.121094 C 81.375 184.613281 80.730469 184.441406 80.226562 184.730469 "/><path style=" stroke:none;fill-rule:nonzero;fill:#ffffff;fill-opacity:1;" d="M 108.617188 212.066406 C 108.109375 211.777344 107.464844 211.949219 107.171875 212.453125 L 105.308594 215.6875 C 105.015625 216.191406 105.1875 216.839844 105.695312 217.132812 C 105.859375 217.226562 106.042969 217.273438 106.21875 217.273438 C 106.585938 217.273438 106.941406 217.082031 107.136719 216.746094 L 109.003906 213.511719 C 109.292969 213.003906 109.121094 212.359375 108.617188 212.066406 "/><path style=" stroke:none;fill-rule:nonzero;fill:#ffffff;fill-opacity:1;" d="M 183.683594 212.453125 C 183.394531 211.949219 182.746094 211.777344 182.242188 212.066406 C 181.738281 212.359375 181.5625 213.003906 181.855469 213.511719 L 183.722656 216.746094 C 183.917969 217.082031 184.273438 217.273438 184.636719 217.273438 C 184.816406 217.273438 185 217.226562 185.164062 217.132812 C 185.671875 216.839844 185.84375 216.195312 185.550781 215.6875 L 183.683594 212.453125 "/><path style=" stroke:none;fill-rule:nonzero;fill:#ffffff;fill-opacity:1;" d="M 213.867188 186.597656 L 210.632812 184.734375 C 210.128906 184.441406 209.484375 184.613281 209.191406 185.121094 C 208.898438 185.625 209.074219 186.269531 209.578125 186.5625 L 212.8125 188.429688 C 212.976562 188.523438 213.160156 188.570312 213.339844 188.570312 C 213.703125 188.570312 214.058594 188.382812 214.253906 188.042969 C 214.546875 187.535156 214.375 186.890625 213.867188 186.597656 "/><path style=" stroke:none;fill-rule:nonzero;fill:#ffffff;fill-opacity:1;" d="M 212.8125 108.183594 L 209.578125 110.050781 C 209.074219 110.339844 208.898438 110.988281 209.191406 111.492188 C 209.386719 111.832031 209.742188 112.019531 210.105469 112.019531 C 210.285156 112.019531 210.46875 111.976562 210.632812 111.878906 L 213.867188 110.011719 C 214.375 109.722656 214.546875 109.074219 214.253906 108.570312 C 213.960938 108.066406 213.316406 107.890625 212.8125 108.183594 "/><path style=" stroke:none;fill-rule:nonzero;fill:#ffffff;fill-opacity:1;" d="M 185.164062 79.480469 C 184.660156 79.1875 184.015625 79.363281 183.722656 79.867188 L 181.855469 83.101562 C 181.5625 83.605469 181.738281 84.25 182.242188 84.542969 C 182.410156 84.640625 182.589844 84.683594 182.769531 84.683594 C 183.136719 84.683594 183.488281 84.496094 183.6875 84.15625 L 185.554688 80.921875 C 185.84375 80.417969 185.671875 79.773438 185.164062 79.480469 "/><path style=" stroke:none;fill-rule:nonzero;fill:#ffffff;fill-opacity:1;" d="M 131.734375 178.425781 L 91.976562 178.425781 C 93.304688 173.199219 95.503906 168.289062 98.582031 163.683594 C 101.660156 159.082031 106.898438 153.65625 114.300781 147.40625 C 118.820312 143.574219 121.792969 140.664062 123.21875 138.679688 C 124.640625 136.691406 125.503906 134.804688 125.800781 133.019531 C 126.125 131.089844 125.859375 129.441406 125.011719 128.070312 C 124.167969 126.703125 122.929688 126.019531 121.300781 126.019531 C 119.609375 126.019531 118.105469 126.730469 116.796875 128.148438 C 115.484375 129.566406 114.347656 132.074219 113.378906 135.664062 L 100.304688 134.230469 C 101.652344 129.265625 103.253906 125.386719 105.105469 122.601562 C 106.960938 119.816406 109.277344 117.679688 112.050781 116.195312 C 114.828125 114.707031 118.453125 113.964844 122.925781 113.964844 C 127.589844 113.964844 131.101562 114.667969 133.460938 116.082031 C 135.820312 117.492188 137.5 119.660156 138.5 122.582031 C 139.5 125.507812 139.699219 128.78125 139.09375 132.410156 C 138.453125 136.273438 136.984375 139.957031 134.695312 143.472656 C 132.40625 146.984375 128.667969 150.847656 123.476562 155.050781 C 120.398438 157.5 118.328125 159.210938 117.261719 160.191406 C 116.199219 161.171875 114.929688 162.453125 113.449219 164.039062 L 134.128906 164.039062 L 131.734375 178.425781 "/><path style=" stroke:none;fill-rule:nonzero;fill:#ffffff;fill-opacity:1;" d="M 164.460938 152.945312 L 167.800781 132.902344 L 151.6875 152.945312 Z M 162.1875 166.609375 L 138.042969 166.609375 L 140.457031 152.117188 L 170.953125 113.964844 L 182.511719 113.964844 L 176.019531 152.945312 L 182.011719 152.945312 L 179.734375 166.609375 L 173.742188 166.609375 L 171.777344 178.421875 L 160.21875 178.421875 L 162.1875 166.609375 "/><path style=" stroke:none;fill-rule:nonzero;fill:#ffffff;fill-opacity:1;" d="M 188.414062 108.453125 L 195.34375 107.96875 L 193.925781 116.917969 C 195.019531 115.902344 196.0625 115.15625 197.054688 114.683594 C 198.050781 114.210938 199.183594 113.925781 200.453125 113.839844 C 202.339844 113.707031 203.734375 114.160156 204.640625 115.203125 C 205.546875 116.242188 205.820312 117.914062 205.453125 120.226562 L 203.679688 131.414062 L 196.71875 131.898438 L 198.253906 122.21875 C 198.425781 121.117188 198.339844 120.347656 197.992188 119.917969 C 197.648438 119.488281 197.09375 119.300781 196.332031 119.355469 C 195.492188 119.414062 194.761719 119.769531 194.144531 120.425781 C 193.523438 121.082031 193.085938 122.210938 192.832031 123.8125 L 191.496094 132.265625 L 184.566406 132.75 L 188.414062 108.453125 "/><path style=" stroke:none;fill-rule:nonzero;fill:#f7931a;fill-opacity:1;" d="M 295.378906 72.835938 C 289.921875 94.730469 267.746094 108.054688 245.847656 102.59375 C 223.960938 97.136719 210.636719 74.957031 216.097656 53.066406 C 221.554688 31.167969 243.730469 17.84375 265.617188 23.300781 C 287.515625 28.761719 300.835938 50.9375 295.378906 72.835938 Z M 295.378906 72.835938 "/><path style=" stroke:none;fill-rule:nonzero;fill:#ffffff;fill-opacity:1;" d="M 273.757812 57.125 C 274.570312 51.6875 270.429688 48.765625 264.769531 46.8125 L 266.605469 39.449219 L 262.121094 38.328125 L 260.332031 45.503906 C 259.152344 45.207031 257.945312 44.929688 256.742188 44.65625 L 258.542969 37.4375 L 254.058594 36.320312 L 252.222656 43.683594 C 251.246094 43.460938 250.289062 43.242188 249.359375 43.011719 L 249.363281 42.988281 L 243.179688 41.445312 L 241.988281 46.234375 C 241.988281 46.234375 245.3125 46.996094 245.242188 47.042969 C 247.058594 47.496094 247.386719 48.699219 247.332031 49.652344 L 245.242188 58.042969 C 245.367188 58.074219 245.527344 58.121094 245.707031 58.191406 C 245.558594 58.15625 245.398438 58.113281 245.234375 58.074219 L 242.300781 69.832031 C 242.078125 70.382812 241.515625 71.210938 240.246094 70.894531 C 240.289062 70.960938 236.988281 70.082031 236.988281 70.082031 L 234.761719 75.214844 L 240.597656 76.667969 C 241.679688 76.941406 242.746094 77.226562 243.792969 77.496094 L 241.9375 84.945312 L 246.414062 86.0625 L 248.253906 78.691406 C 249.476562 79.023438 250.664062 79.332031 251.828125 79.617188 L 249.996094 86.957031 L 254.480469 88.074219 L 256.335938 80.636719 C 263.980469 82.082031 269.730469 81.5 272.152344 74.585938 C 274.101562 69.015625 272.054688 65.804688 268.03125 63.710938 C 270.960938 63.035156 273.167969 61.105469 273.757812 57.125 Z M 263.511719 71.492188 C 262.125 77.0625 252.75 74.050781 249.710938 73.296875 L 252.171875 63.425781 C 255.210938 64.183594 264.960938 65.683594 263.511719 71.492188 Z M 264.898438 57.046875 C 263.632812 62.109375 255.832031 59.535156 253.300781 58.90625 L 255.53125 49.953125 C 258.0625 50.585938 266.214844 51.761719 264.898438 57.046875 Z M 264.898438 57.046875 "/></g></g></g></svg>