<svg xmlns="http://www.w3.org/2000/svg" width="300" viewBox="0 0 224.88 37.5" height="50" version="1.2"><defs><clipPath id="b"><path d="M198.04 8.234h17.269V26.41h-17.27Zm0 0"/></clipPath><clipPath id="a"><path d="M0 0h217v30H0z"/></clipPath></defs><g clip-path="url(#a)" transform="translate(4 3)"><g style="fill:#000;fill-opacity:1"><path style="stroke:none" d="M8.09-15.121V0H5.207v-15.121Zm-7.707 1.3v-2.667h12.531v2.668Zm0 0" transform="translate(1.164 23.682)"/></g><g style="fill:#000;fill-opacity:1"><path style="stroke:none" d="M8.41-11.191v2.562H7.395q-1.497 0-2.36.8-.862.797-.863 2.427V0H1.43v-11.125h2.582l.222 2.309H3.98a3.13 3.13 0 0 1 1.051-1.813q.828-.703 2.164-.703.296 0 .59.027c.195.024.402.059.625.114m0 0" transform="translate(13.114 23.682)"/></g><g style="fill:#000;fill-opacity:1"><path style="stroke:none" d="M4.734.285q-1.77 0-2.789-.95Q.921-1.614.922-3.18q.001-1.536 1.074-2.453c.719-.613 1.738-.972 3.066-1.078l3.325-.262v-.246q0-.763-.285-1.226a1.7 1.7 0 0 0-.793-.684q-.51-.216-1.211-.215-1.227-.001-1.883.485-.657.48-.656 1.379H1.227q.001-1.22.617-2.118.616-.895 1.754-1.386 1.131-.492 2.632-.493 1.507-.001 2.586.532a3.8 3.8 0 0 1 1.664 1.578q.586 1.047.586 2.605V0H8.672l-.219-1.652Q8.091-.781 7.066-.25c-.687.36-1.46.535-2.332.535m.895-2.078q1.267 0 2.023-.715.75-.72.75-1.992v-.605l-2.32.199q-1.284.104-1.824.52a1.3 1.3 0 0 0-.547 1.09q.001.756.5 1.132.498.373 1.418.371m0 0" transform="translate(21.524 23.682)"/></g><g style="fill:#000;fill-opacity:1"><path style="stroke:none" d="M4.172 0H1.43v-11.14h2.539l.226 1.449q.528-.844 1.477-1.313a4.6 4.6 0 0 1 2.09-.473c1.394 0 2.453.41 3.164 1.235.71.82 1.07 1.949 1.07 3.387V0H9.254v-6.21q-.001-1.383-.64-2.08-.64-.69-1.712-.69-1.282 0-2.004.808-.726.81-.726 2.168Zm0 0" transform="translate(33.88 23.682)"/></g><g style="fill:#000;fill-opacity:1"><path style="stroke:none" d="M.57-3.375h2.61c.023.48.207.863.55 1.14q.521.423 1.446.422c.656 0 1.148-.12 1.488-.363q.504-.363.504-.96.001-.41-.262-.72c-.176-.203-.515-.367-1.023-.484l-2-.457Q2.378-5.144 1.64-5.895.9-6.646.898-7.988q0-1.092.575-1.871.573-.78 1.57-1.196.996-.421 2.273-.422 1.255 0 2.2.446.948.45 1.48 1.258.533.807.54 1.914h-2.61c-.008-.489-.164-.868-.461-1.149-.3-.277-.723-.414-1.258-.414q-.803-.001-1.254.356-.451.355-.453.968.002.93 1.434 1.27l2.011.457q1.405.314 2.114 1.023.709.704.71 1.993-.001 1.112-.593 1.937c-.39.55-.942.973-1.64 1.266Q6.481.286 5.093.285q-2.076 0-3.301-1.008Q.57-1.735.57-3.375m0 0" transform="translate(47.026 23.682)"/></g><g style="fill:#000;fill-opacity:1"><path style="stroke:none" d="M4.734.285q-1.77 0-2.789-.95Q.921-1.614.922-3.18q.001-1.536 1.074-2.453c.719-.613 1.738-.972 3.066-1.078l3.325-.262v-.246q0-.763-.285-1.226a1.7 1.7 0 0 0-.793-.684q-.51-.216-1.211-.215-1.227-.001-1.883.485-.657.48-.656 1.379H1.227q.001-1.22.617-2.118.616-.895 1.754-1.386 1.131-.492 2.632-.493 1.507-.001 2.586.532a3.8 3.8 0 0 1 1.664 1.578q.586 1.047.586 2.605V0H8.672l-.219-1.652Q8.091-.781 7.066-.25c-.687.36-1.46.535-2.332.535m.895-2.078q1.267 0 2.023-.715.75-.72.75-1.992v-.605l-2.32.199q-1.284.104-1.824.52a1.3 1.3 0 0 0-.547 1.09q.001.756.5 1.132.498.373 1.418.371m0 0" transform="translate(57.466 23.682)"/></g><g style="fill:#000;fill-opacity:1"><path style="stroke:none" d="M.762-5.59q.001-1.73.71-3.055a5.34 5.34 0 0 1 1.97-2.078q1.25-.755 2.902-.754 2.273 0 3.734 1.184c.969.79 1.531 1.855 1.676 3.191H8.988q-.227-.956-.894-1.437-.662-.48-1.653-.48-.867 0-1.535.421-.668.416-1.031 1.184-.363.762-.363 1.816.001 1.054.347 1.82.345.768.989 1.184.638.418 1.52.418 1.04.001 1.726-.496.69-.493.906-1.41h2.766q-.165 1.3-.899 2.277A5 5 0 0 1 8.977-.27c-.774.372-1.641.555-2.61.555-1.129 0-2.113-.242-2.957-.734A5.05 5.05 0 0 1 1.453-2.5Q.763-3.82.762-5.59m0 0" transform="translate(69.823 23.682)"/></g><g style="fill:#000;fill-opacity:1"><path style="stroke:none" d="M.309-11.14h7.054v2.288H.31ZM5.207 0H2.465v-14.617h2.742Zm0 0" transform="translate(82.224 23.682)"/></g><g style="fill:#000;fill-opacity:1"><path style="stroke:none" d="M1.43 0v-11.14h2.742V0Zm1.355-13.367q-.697-.001-1.187-.488a1.6 1.6 0 0 1-.485-1.18q-.001-.698.485-1.184.49-.48 1.187-.48.686 0 1.172.48.487.486.488 1.184-.001.691-.488 1.18a1.6 1.6 0 0 1-1.172.488m0 0" transform="translate(89.89 23.682)"/></g><g style="fill:#000;fill-opacity:1"><path style="stroke:none" d="M.762-5.586c0-1.16.254-2.184.77-3.062a5.4 5.4 0 0 1 2.12-2.067q1.353-.745 3.075-.746 1.734.001 3.074.746a5.47 5.47 0 0 1 2.11 2.067c.51.878.769 1.902.769 3.062q-.001 1.734-.77 3.05A5.5 5.5 0 0 1 9.8-.472Q8.46.271 6.728.27q-1.722 0-3.075-.743a5.44 5.44 0 0 1-2.12-2.062c-.516-.88-.77-1.895-.77-3.05m2.761-.016c0 .676.141 1.27.414 1.782q.41.772 1.126 1.199.72.429 1.664.43.947-.001 1.668-.43a2.93 2.93 0 0 0 1.117-1.2q.403-.767.402-1.78 0-1.02-.402-1.782A2.95 2.95 0 0 0 8.395-8.57q-.72-.427-1.668-.426-.944-.002-1.665.426-.714.427-1.125 1.187c-.273.508-.414 1.102-.414 1.781m0 0" transform="translate(95.483 23.682)"/></g><g style="fill:#000;fill-opacity:1"><path style="stroke:none" d="M4.172 0H1.43v-11.14h2.539l.226 1.449q.528-.844 1.477-1.313a4.6 4.6 0 0 1 2.09-.473c1.394 0 2.453.41 3.164 1.235.71.82 1.07 1.949 1.07 3.387V0H9.254v-6.21q-.001-1.383-.64-2.08-.64-.69-1.712-.69-1.282 0-2.004.808-.726.81-.726 2.168Zm0 0" transform="translate(108.921 23.682)"/></g><g transform="translate(122.202 23.682)" style="fill:#000;fill-opacity:1"/><g style="fill:#000;fill-opacity:1"><path style="stroke:none" d="M1.43 5.164V-11.14h2.539l.176 1.692q.51-.974 1.543-1.5 1.03-.528 2.285-.528 1.587 0 2.754.715 1.17.719 1.82 2.012.646 1.294.648 3.05 0 1.731-.61 3.087c-.405.906-1 1.617-1.773 2.136q-1.16.779-2.824.778-1.253 0-2.273-.48Q4.697-.66 4.172-1.493v6.656ZM4.195-5.57q0 .99.387 1.761.386.769 1.094 1.204.708.429 1.664.43c.644 0 1.2-.15 1.66-.442a2.9 2.9 0 0 0 1.059-1.2q.37-.765.37-1.753c0-.664-.124-1.254-.37-1.762A2.87 2.87 0 0 0 9-8.532q-.692-.433-1.66-.433-.956-.002-1.664.426a2.9 2.9 0 0 0-1.094 1.191q-.387.763-.387 1.778m0 0" transform="translate(128.29 23.682)"/></g><g style="fill:#000;fill-opacity:1"><path style="stroke:none" d="M8.41-11.191v2.562H7.395q-1.497 0-2.36.8-.862.797-.863 2.427V0H1.43v-11.125h2.582l.222 2.309H3.98a3.13 3.13 0 0 1 1.051-1.813q.828-.703 2.164-.703.296 0 .59.027c.195.024.402.059.625.114m0 0" transform="translate(142.248 23.682)"/></g><g style="fill:#000;fill-opacity:1"><path style="stroke:none" d="M.762-5.586c0-1.16.254-2.184.77-3.062a5.4 5.4 0 0 1 2.12-2.067q1.353-.745 3.075-.746 1.734.001 3.074.746a5.47 5.47 0 0 1 2.11 2.067c.51.878.769 1.902.769 3.062q-.001 1.734-.77 3.05A5.5 5.5 0 0 1 9.8-.472Q8.46.271 6.728.27q-1.722 0-3.075-.743a5.44 5.44 0 0 1-2.12-2.062c-.516-.88-.77-1.895-.77-3.05m2.761-.016c0 .676.141 1.27.414 1.782q.41.772 1.126 1.199.72.429 1.664.43.947-.001 1.668-.43a2.93 2.93 0 0 0 1.117-1.2q.403-.767.402-1.78 0-1.02-.402-1.782A2.95 2.95 0 0 0 8.395-8.57q-.72-.427-1.668-.426-.944-.002-1.665.426-.714.427-1.125 1.187c-.273.508-.414 1.102-.414 1.781m0 0" transform="translate(150.737 23.682)"/></g><g style="fill:#000;fill-opacity:1"><path style="stroke:none" d="M.762-5.586c0-1.16.254-2.184.77-3.062a5.4 5.4 0 0 1 2.12-2.067q1.353-.745 3.075-.746 1.734.001 3.074.746a5.47 5.47 0 0 1 2.11 2.067c.51.878.769 1.902.769 3.062q-.001 1.734-.77 3.05A5.5 5.5 0 0 1 9.8-.472Q8.46.271 6.728.27q-1.722 0-3.075-.743a5.44 5.44 0 0 1-2.12-2.062c-.516-.88-.77-1.895-.77-3.05m2.761-.016c0 .676.141 1.27.414 1.782q.41.772 1.126 1.199.72.429 1.664.43.947-.001 1.668-.43a2.93 2.93 0 0 0 1.117-1.2q.403-.767.402-1.78 0-1.02-.402-1.782A2.95 2.95 0 0 0 8.395-8.57q-.72-.427-1.668-.426-.944-.002-1.665.426-.714.427-1.125 1.187c-.273.508-.414 1.102-.414 1.781m0 0" transform="translate(164.176 23.682)"/></g><g style="fill:#000;fill-opacity:1"><path style="stroke:none" d="M.309-11.14h7v2.288h-7Zm7.03-5.536v2.356h-.952q-1.05.001-1.395.5-.344.498-.344 1.316V0H1.906v-12.504q-.001-1.519.508-2.457.504-.943 1.406-1.387.902-.44 2.102-.441a9 9 0 0 1 1.418.113m0 0" transform="translate(177.58 23.682)"/></g><g clip-path="url(#b)"><path style="stroke:none;fill-rule:nonzero;fill:#000;fill-opacity:1" d="m198.113 8.238 17.192 9.004-17.266 9.164c2.781-5.023 5.02-10.25.074-18.168m0 0"/></g></g></svg>