<svg xmlns="http://www.w3.org/2000/svg" xmlns:xlink="http://www.w3.org/1999/xlink" width="500" zoomAndPan="magnify" viewBox="0 0 375 374.999991" height="500" preserveAspectRatio="xMidYMid meet" version="1.2"><defs><clipPath id="1b3275cbfe"><path d="M 2 0.5 L 215 0.5 L 215 300.5 L 2 300.5 Z M 2 0.5 "/></clipPath><clipPath id="d76de7615e"><path d="M 34 118 L 181 118 L 181 300.5 L 34 300.5 Z M 34 118 "/></clipPath><clipPath id="e763c3d73f"><path d="M 71 199 L 145 199 L 145 300.5 L 71 300.5 Z M 71 199 "/></clipPath><clipPath id="9d9d52cd48"><path d="M 29.710938 126.03125 L 189.710938 126.03125 L 189.710938 286.03125 L 29.710938 286.03125 Z M 29.710938 126.03125 "/></clipPath><clipPath id="3e9a3b07c9"><rect x="0" width="219" y="0" height="301"/></clipPath></defs><g id="9c2d29fd6e"><g transform="matrix(1,0,0,1,78,37)"><g clip-path="url(#3e9a3b07c9)"><g clip-rule="nonzero" clip-path="url(#1b3275cbfe)"><path style=" stroke:none;fill-rule:nonzero;fill:#fe3d2d;fill-opacity:1;" d="M 111.613281 0.484375 L 111.390625 0.625 C 110.902344 0.859375 110.621094 1.878906 110.546875 3.683594 C 112.316406 12.480469 113.035156 19.953125 112.703125 26.097656 C 112.523438 30.75 111.160156 36.703125 108.605469 43.957031 C 107.476562 47 104.5625 51.921875 99.867188 58.722656 L 72.59375 95.285156 C 69.300781 101.503906 67.050781 109.648438 65.84375 119.710938 C 56.816406 104.683594 54.128906 87.921875 57.78125 69.421875 C 56.945312 68.429688 53.542969 74.527344 47.570312 87.710938 C 44.230469 95.742188 41.542969 105.382812 39.507812 116.628906 C 38.992188 123.652344 39.253906 138.039062 40.300781 159.789062 C 39.980469 164.914062 39.316406 168.28125 38.304688 169.890625 C 36.097656 173.070312 33.910156 174.472656 31.75 174.105469 C 27.574219 172.78125 24.335938 170.308594 22.035156 166.683594 C 18.191406 162.515625 16.917969 153.742188 18.21875 140.363281 L 8.523438 165.988281 C 6.328125 172.808594 4.777344 179.566406 3.867188 186.265625 C 2.066406 198.425781 2.71875 211.183594 5.820312 224.542969 C 7.96875 233.851562 12.007812 243.816406 17.9375 254.433594 C 21.765625 260.621094 26.367188 266.734375 31.742188 272.773438 C 45.109375 285.214844 58.058594 293.078125 70.59375 296.355469 C 76.035156 298.046875 81.75 299.304688 87.746094 300.132812 C 109.304688 300.390625 122.40625 299.664062 127.046875 297.957031 C 145.671875 294.757812 162.070312 288.355469 176.242188 278.75 C 182.613281 274.496094 187.683594 270.113281 191.441406 265.605469 C 197.984375 258.515625 203.363281 249.808594 207.582031 239.476562 C 214.566406 220.242188 216.359375 200.246094 212.96875 179.484375 C 211.863281 172.863281 207.898438 162.585938 201.074219 148.648438 C 196.632812 141.050781 185.308594 125.175781 167.097656 101.027344 C 163.296875 94.746094 161.066406 88.542969 160.398438 82.417969 C 155.023438 97.863281 152.433594 107.320312 152.625 110.800781 L 139.867188 102.132812 C 137.425781 99.855469 135.191406 96.910156 133.167969 93.292969 C 131.0625 89.546875 129.800781 84.011719 129.386719 76.683594 C 132.285156 46.398438 132.988281 30.046875 131.488281 27.625 C 130.542969 22.042969 127.566406 15.589844 122.554688 8.269531 C 119.46875 4.53125 115.820312 1.9375 111.613281 0.484375 "/></g><g clip-rule="nonzero" clip-path="url(#d76de7615e)"><path style=" stroke:none;fill-rule:nonzero;fill:#fec107;fill-opacity:0.996;" d="M 95.804688 118.371094 L 95.535156 118.390625 C 94.828125 118.492188 94.207031 118.992188 93.679688 119.890625 C 92.40625 125.007812 90.382812 131.085938 87.609375 138.113281 C 82.164062 149.121094 76.316406 161.707031 70.066406 175.875 C 67.378906 181.75 65.234375 187.953125 63.632812 194.488281 C 61.027344 205.234375 61.363281 217.976562 64.636719 232.722656 C 64.53125 232.976562 64.335938 233.101562 64.050781 233.101562 C 63.589844 233.101562 62.894531 232.769531 61.964844 232.109375 C 48.691406 221.324219 40.101562 214.113281 36.191406 210.472656 C 36.0625 210.308594 35.921875 210.226562 35.769531 210.226562 C 35.539062 210.226562 35.277344 210.417969 34.992188 210.804688 C 34.335938 213.179688 34.191406 216.765625 34.558594 221.5625 L 36.863281 239.28125 L 40.804688 255.519531 L 46.386719 270.277344 L 53.609375 283.554688 L 60.546875 292.792969 L 60.558594 292.792969 C 63.933594 294.300781 67.277344 295.488281 70.59375 296.355469 C 76.035156 298.046875 81.75 299.304688 87.746094 300.132812 C 90.558594 300.167969 93.226562 300.183594 95.75 300.183594 C 112.578125 300.183594 123.011719 299.441406 127.046875 297.957031 C 145.671875 294.757812 162.070312 288.355469 176.242188 278.75 C 177.527344 277.894531 178.757812 277.03125 179.9375 276.164062 L 179.949219 276.164062 C 181.457031 253.132812 179.53125 228.789062 174.164062 203.125 C 170.546875 190.21875 167.1875 183.765625 164.089844 183.765625 C 163.753906 183.765625 163.417969 183.84375 163.089844 183.996094 C 162.039062 184.515625 161.085938 185.484375 160.230469 186.902344 C 153.414062 199.773438 148.726562 207.921875 146.167969 211.347656 C 142.988281 215.972656 140.496094 218.285156 138.699219 218.285156 C 138.328125 218.285156 137.988281 218.183594 137.675781 217.988281 C 133.957031 189.933594 130.226562 171.066406 126.484375 161.390625 C 121.382812 150.253906 116.996094 142.167969 113.316406 137.132812 C 106.199219 127.148438 100.363281 120.894531 95.804688 118.371094 Z M 95.804688 118.371094 "/></g><g clip-rule="nonzero" clip-path="url(#e763c3d73f)"><path style=" stroke:none;fill-rule:nonzero;fill:#feeb3a;fill-opacity:0.996;" d="M 105.617188 199.816406 L 105.382812 199.859375 C 104.785156 200 104.136719 200.847656 103.4375 202.410156 L 98.269531 217.601562 C 96.707031 222.6875 95.4375 228.355469 94.464844 234.601562 C 93.824219 239.46875 93.570312 243.960938 93.703125 248.074219 L 95.488281 269.222656 C 95.195312 269.449219 94.882812 269.566406 94.558594 269.566406 C 94.164062 269.566406 93.742188 269.394531 93.304688 269.054688 L 76.527344 255.359375 C 74.484375 253.859375 73.121094 253.109375 72.429688 253.109375 C 72.421875 253.109375 72.410156 253.109375 72.402344 253.109375 C 70.539062 253.570312 70.832031 260.175781 73.285156 272.933594 L 75.710938 280.414062 L 79.082031 287.472656 L 83.390625 294.113281 L 88.484375 300.144531 L 88.496094 300.144531 C 91.035156 300.171875 93.453125 300.183594 95.75 300.183594 C 112.578125 300.183594 123.011719 299.441406 127.046875 297.957031 C 132.1875 297.074219 137.160156 295.945312 141.960938 294.574219 L 141.972656 294.578125 C 143.082031 287.464844 143.773438 281.152344 144.058594 275.644531 C 144.199219 272.871094 144.234375 270.300781 144.167969 267.933594 C 143.816406 262.375 143.480469 259.28125 143.160156 258.65625 C 142.363281 255.152344 141.492188 253.398438 140.546875 253.398438 C 140.277344 253.398438 140.003906 253.539062 139.722656 253.824219 L 130.855469 268.621094 C 130.152344 269.589844 129.53125 270.074219 128.984375 270.074219 C 128.742188 270.074219 128.511719 269.976562 128.300781 269.78125 C 128.003906 261.007812 127.472656 253.304688 126.703125 246.667969 C 125.195312 235.796875 123.863281 229.175781 122.710938 226.8125 C 120.300781 220.574219 117.835938 215.328125 115.316406 211.082031 C 114.054688 208.957031 112.78125 207.082031 111.496094 205.457031 C 110.210938 203.828125 108.910156 202.449219 107.597656 201.320312 Z M 105.617188 199.816406 "/></g><g clip-rule="nonzero" clip-path="url(#9d9d52cd48)"><path style=" stroke:none;fill-rule:nonzero;fill:#000000;fill-opacity:1;" d="M 189.710938 206.03125 C 189.710938 207.339844 189.679688 208.648438 189.617188 209.957031 C 189.550781 211.265625 189.457031 212.570312 189.328125 213.875 C 189.199219 215.175781 189.039062 216.476562 188.847656 217.769531 C 188.65625 219.066406 188.429688 220.355469 188.175781 221.640625 C 187.921875 222.921875 187.632812 224.199219 187.316406 225.46875 C 186.996094 226.742188 186.648438 228 186.269531 229.253906 C 185.886719 230.507812 185.476562 231.75 185.035156 232.984375 C 184.59375 234.214844 184.125 235.4375 183.625 236.648438 C 183.121094 237.855469 182.589844 239.054688 182.03125 240.234375 C 181.472656 241.417969 180.882812 242.589844 180.265625 243.742188 C 179.648438 244.898438 179.003906 246.039062 178.332031 247.160156 C 177.65625 248.28125 176.957031 249.390625 176.230469 250.476562 C 175.503906 251.566406 174.75 252.636719 173.96875 253.6875 C 173.1875 254.738281 172.382812 255.769531 171.554688 256.785156 C 170.722656 257.796875 169.867188 258.785156 168.988281 259.757812 C 168.109375 260.726562 167.207031 261.675781 166.28125 262.601562 C 165.355469 263.527344 164.40625 264.429688 163.4375 265.308594 C 162.46875 266.1875 161.476562 267.042969 160.464844 267.871094 C 159.453125 268.703125 158.421875 269.507812 157.367188 270.289062 C 156.316406 271.070312 155.246094 271.820312 154.160156 272.550781 C 153.070312 273.277344 151.964844 273.976562 150.839844 274.648438 C 149.71875 275.324219 148.578125 275.96875 147.425781 276.585938 C 146.269531 277.203125 145.101562 277.792969 143.917969 278.351562 C 142.734375 278.910156 141.535156 279.441406 140.328125 279.941406 C 139.117188 280.441406 137.898438 280.914062 136.664062 281.355469 C 135.429688 281.796875 134.1875 282.207031 132.933594 282.585938 C 131.683594 282.96875 130.421875 283.316406 129.152344 283.632812 C 127.882812 283.953125 126.605469 284.238281 125.320312 284.496094 C 124.035156 284.75 122.746094 284.972656 121.453125 285.164062 C 120.15625 285.359375 118.855469 285.519531 117.554688 285.648438 C 116.25 285.773438 114.945312 285.871094 113.636719 285.933594 C 112.332031 286 111.023438 286.03125 109.710938 286.03125 C 108.402344 286.03125 107.09375 286 105.789062 285.933594 C 104.480469 285.871094 103.175781 285.773438 101.871094 285.648438 C 100.570312 285.519531 99.269531 285.359375 97.972656 285.167969 C 96.679688 284.972656 95.390625 284.75 94.105469 284.496094 C 92.820312 284.238281 91.542969 283.953125 90.273438 283.632812 C 89.003906 283.316406 87.742188 282.96875 86.488281 282.585938 C 85.238281 282.207031 83.996094 281.796875 82.761719 281.355469 C 81.527344 280.914062 80.308594 280.441406 79.097656 279.941406 C 77.886719 279.441406 76.691406 278.910156 75.507812 278.351562 C 74.324219 277.792969 73.15625 277.203125 72 276.585938 C 70.847656 275.96875 69.707031 275.324219 68.585938 274.648438 C 67.460938 273.976562 66.355469 273.277344 65.265625 272.550781 C 64.179688 271.820312 63.109375 271.070312 62.058594 270.289062 C 61.003906 269.507812 59.972656 268.703125 58.960938 267.871094 C 57.949219 267.042969 56.957031 266.1875 55.988281 265.308594 C 55.019531 264.429688 54.070312 263.527344 53.144531 262.601562 C 52.21875 261.675781 51.316406 260.726562 50.4375 259.757812 C 49.558594 258.785156 48.703125 257.796875 47.871094 256.785156 C 47.042969 255.769531 46.234375 254.738281 45.457031 253.6875 C 44.675781 252.636719 43.921875 251.566406 43.195312 250.476562 C 42.46875 249.390625 41.765625 248.28125 41.09375 247.160156 C 40.421875 246.039062 39.777344 244.898438 39.160156 243.742188 C 38.542969 242.589844 37.953125 241.417969 37.394531 240.234375 C 36.832031 239.054688 36.304688 237.855469 35.800781 236.648438 C 35.300781 235.4375 34.832031 234.214844 34.390625 232.984375 C 33.949219 231.75 33.539062 230.507812 33.15625 229.253906 C 32.777344 228 32.429688 226.742188 32.109375 225.46875 C 31.792969 224.199219 31.503906 222.921875 31.25 221.640625 C 30.996094 220.355469 30.769531 219.066406 30.578125 217.769531 C 30.386719 216.476562 30.226562 215.175781 30.097656 213.875 C 29.96875 212.570312 29.875 211.265625 29.808594 209.957031 C 29.746094 208.648438 29.710938 207.339844 29.710938 206.03125 C 29.710938 204.722656 29.746094 203.414062 29.808594 202.105469 C 29.875 200.796875 29.96875 199.492188 30.097656 198.191406 C 30.226562 196.886719 30.386719 195.589844 30.578125 194.292969 C 30.769531 193 30.996094 191.707031 31.25 190.425781 C 31.503906 189.140625 31.792969 187.863281 32.109375 186.59375 C 32.429688 185.324219 32.777344 184.0625 33.15625 182.808594 C 33.539062 181.554688 33.949219 180.3125 34.390625 179.082031 C 34.832031 177.847656 35.300781 176.625 35.800781 175.417969 C 36.304688 174.207031 36.832031 173.011719 37.394531 171.828125 C 37.953125 170.644531 38.542969 169.476562 39.160156 168.320312 C 39.777344 167.164062 40.421875 166.027344 41.09375 164.902344 C 41.765625 163.78125 42.46875 162.675781 43.195312 161.585938 C 43.921875 160.496094 44.675781 159.425781 45.457031 158.375 C 46.234375 157.324219 47.042969 156.292969 47.871094 155.28125 C 48.703125 154.269531 49.558594 153.277344 50.4375 152.308594 C 51.316406 151.335938 52.21875 150.390625 53.144531 149.464844 C 54.070312 148.539062 55.019531 147.636719 55.988281 146.753906 C 56.957031 145.875 57.949219 145.023438 58.960938 144.191406 C 59.972656 143.359375 61.003906 142.554688 62.058594 141.773438 C 63.109375 140.996094 64.179688 140.242188 65.265625 139.515625 C 66.355469 138.785156 67.460938 138.085938 68.585938 137.414062 C 69.707031 136.742188 70.847656 136.09375 72 135.476562 C 73.15625 134.859375 74.324219 134.273438 75.507812 133.710938 C 76.691406 133.152344 77.886719 132.621094 79.097656 132.121094 C 80.308594 131.621094 81.527344 131.148438 82.761719 130.707031 C 83.996094 130.265625 85.238281 129.855469 86.488281 129.476562 C 87.742188 129.097656 89.003906 128.746094 90.273438 128.429688 C 91.542969 128.109375 92.820312 127.824219 94.105469 127.570312 C 95.390625 127.3125 96.679688 127.089844 97.972656 126.898438 C 99.269531 126.707031 100.570312 126.546875 101.871094 126.417969 C 103.175781 126.289062 104.480469 126.191406 105.789062 126.128906 C 107.09375 126.0625 108.402344 126.03125 109.710938 126.03125 C 111.023438 126.03125 112.332031 126.0625 113.636719 126.128906 C 114.945312 126.191406 116.25 126.289062 117.554688 126.417969 C 118.855469 126.546875 120.15625 126.707031 121.453125 126.898438 C 122.746094 127.089844 124.035156 127.3125 125.320312 127.570312 C 126.605469 127.824219 127.882812 128.109375 129.152344 128.429688 C 130.421875 128.746094 131.683594 129.097656 132.933594 129.476562 C 134.1875 129.855469 135.429688 130.265625 136.664062 130.707031 C 137.898438 131.148438 139.117188 131.621094 140.328125 132.121094 C 141.535156 132.621094 142.734375 133.152344 143.917969 133.710938 C 145.101562 134.273438 146.269531 134.859375 147.425781 135.476562 C 148.578125 136.09375 149.71875 136.742188 150.839844 137.414062 C 151.964844 138.085938 153.070312 138.785156 154.160156 139.515625 C 155.246094 140.242188 156.316406 140.996094 157.367188 141.773438 C 158.421875 142.554688 159.453125 143.359375 160.464844 144.191406 C 161.476562 145.023438 162.46875 145.875 163.4375 146.753906 C 164.40625 147.636719 165.355469 148.539062 166.28125 149.464844 C 167.207031 150.390625 168.109375 151.335938 168.988281 152.308594 C 169.867188 153.277344 170.722656 154.269531 171.554688 155.28125 C 172.382812 156.292969 173.1875 157.324219 173.96875 158.375 C 174.75 159.425781 175.503906 160.496094 176.230469 161.585938 C 176.957031 162.675781 177.65625 163.78125 178.332031 164.902344 C 179.003906 166.027344 179.648438 167.164062 180.265625 168.320312 C 180.882812 169.476562 181.472656 170.644531 182.03125 171.828125 C 182.589844 173.011719 183.121094 174.207031 183.625 175.417969 C 184.125 176.625 184.59375 177.847656 185.035156 179.082031 C 185.476562 180.3125 185.886719 181.554688 186.269531 182.808594 C 186.648438 184.0625 186.996094 185.324219 187.316406 186.59375 C 187.632812 187.863281 187.921875 189.140625 188.175781 190.425781 C 188.429688 191.707031 188.65625 193 188.847656 194.292969 C 189.039062 195.589844 189.199219 196.886719 189.328125 198.191406 C 189.457031 199.492188 189.550781 200.796875 189.617188 202.105469 C 189.679688 203.414062 189.710938 204.722656 189.710938 206.03125 Z M 189.710938 206.03125 "/></g><path style=" stroke:none;fill-rule:nonzero;fill:#ffffff;fill-opacity:1;" d="M 161.710938 205.75 C 161.710938 207.453125 161.625 209.152344 161.457031 210.847656 C 161.289062 212.539062 161.039062 214.222656 160.707031 215.890625 C 160.375 217.558594 159.960938 219.210938 159.464844 220.835938 C 158.96875 222.464844 158.394531 224.066406 157.742188 225.640625 C 157.089844 227.210938 156.363281 228.746094 155.558594 230.25 C 154.757812 231.75 153.882812 233.207031 152.933594 234.621094 C 151.988281 236.039062 150.976562 237.402344 149.894531 238.71875 C 148.816406 240.03125 147.671875 241.292969 146.46875 242.496094 C 145.265625 243.699219 144.003906 244.839844 142.6875 245.917969 C 141.371094 247 140.003906 248.011719 138.589844 248.957031 C 137.175781 249.902344 135.714844 250.777344 134.214844 251.578125 C 132.714844 252.378906 131.175781 253.105469 129.601562 253.757812 C 128.03125 254.410156 126.429688 254.980469 124.800781 255.476562 C 123.171875 255.96875 121.523438 256.382812 119.851562 256.714844 C 118.183594 257.046875 116.5 257.296875 114.808594 257.460938 C 113.113281 257.628906 111.414062 257.710938 109.710938 257.710938 L 109.710938 233.230469 C 110.613281 233.230469 111.511719 233.1875 112.410156 233.097656 C 113.304688 233.011719 114.195312 232.878906 115.078125 232.703125 C 115.960938 232.527344 116.832031 232.308594 117.695312 232.046875 C 118.558594 231.785156 119.40625 231.480469 120.238281 231.136719 C 121.070312 230.792969 121.882812 230.40625 122.675781 229.980469 C 123.472656 229.558594 124.242188 229.09375 124.992188 228.59375 C 125.738281 228.09375 126.460938 227.558594 127.160156 226.988281 C 127.855469 226.414062 128.523438 225.8125 129.160156 225.175781 C 129.796875 224.535156 130.398438 223.871094 130.972656 223.175781 C 131.542969 222.476562 132.078125 221.753906 132.578125 221.007812 C 133.078125 220.257812 133.542969 219.484375 133.964844 218.691406 C 134.390625 217.898438 134.777344 217.085938 135.121094 216.253906 C 135.464844 215.417969 135.769531 214.574219 136.03125 213.710938 C 136.292969 212.847656 136.511719 211.976562 136.6875 211.09375 C 136.863281 210.210938 136.996094 209.320312 137.082031 208.421875 C 137.171875 207.527344 137.214844 206.628906 137.214844 205.726562 Z M 161.710938 205.75 "/><path style=" stroke:none;fill-rule:nonzero;fill:#ffffff;fill-opacity:1;" d="M 109.710938 153.785156 L 109.710938 178.246094 C 108.8125 178.25 107.914062 178.292969 107.015625 178.382812 C 106.121094 178.46875 105.230469 178.601562 104.347656 178.777344 C 103.464844 178.953125 102.59375 179.171875 101.730469 179.433594 C 100.867188 179.695312 100.023438 180 99.191406 180.34375 C 98.359375 180.6875 97.542969 181.074219 96.75 181.5 C 95.957031 181.921875 95.183594 182.386719 94.4375 182.886719 C 93.6875 183.386719 92.964844 183.921875 92.269531 184.492188 C 91.574219 185.066406 90.90625 185.667969 90.269531 186.304688 C 89.632812 186.945312 89.027344 187.609375 88.457031 188.304688 C 87.886719 189.003906 87.351562 189.726562 86.851562 190.472656 C 86.351562 191.222656 85.886719 191.996094 85.464844 192.789062 C 85.039062 193.582031 84.652344 194.394531 84.308594 195.226562 C 83.964844 196.058594 83.660156 196.90625 83.402344 197.769531 C 83.140625 198.632812 82.921875 199.503906 82.746094 200.386719 C 82.570312 201.269531 82.4375 202.160156 82.347656 203.054688 C 82.261719 203.953125 82.214844 204.851562 82.214844 205.75 L 57.753906 205.75 C 57.753906 204.050781 57.839844 202.351562 58.003906 200.660156 C 58.171875 198.964844 58.421875 197.285156 58.757812 195.617188 C 59.089844 193.949219 59.503906 192.300781 59.996094 190.671875 C 60.492188 189.042969 61.066406 187.441406 61.714844 185.871094 C 62.367188 184.300781 63.09375 182.761719 63.898438 181.261719 C 64.699219 179.761719 65.574219 178.304688 66.519531 176.890625 C 67.464844 175.476562 68.476562 174.109375 69.554688 172.796875 C 70.636719 171.480469 71.777344 170.21875 72.980469 169.015625 C 74.183594 167.8125 75.441406 166.671875 76.757812 165.59375 C 78.074219 164.511719 79.4375 163.5 80.851562 162.554688 C 82.265625 161.609375 83.722656 160.734375 85.226562 159.933594 C 86.726562 159.128906 88.261719 158.402344 89.832031 157.75 C 91.40625 157.097656 93.003906 156.527344 94.632812 156.03125 C 96.261719 155.535156 97.910156 155.121094 99.578125 154.789062 C 101.246094 154.457031 102.925781 154.207031 104.621094 154.039062 C 106.3125 153.871094 108.011719 153.785156 109.710938 153.785156 Z M 109.710938 153.785156 "/><path style=" stroke:none;fill-rule:nonzero;fill:#ffffff;fill-opacity:1;" d="M 125.625 206.039062 C 125.625 206.5625 125.597656 207.082031 125.546875 207.597656 C 125.496094 208.117188 125.421875 208.632812 125.320312 209.144531 C 125.21875 209.652344 125.089844 210.15625 124.941406 210.65625 C 124.789062 211.15625 124.613281 211.644531 124.414062 212.125 C 124.214844 212.605469 123.992188 213.078125 123.746094 213.535156 C 123.5 213.996094 123.234375 214.441406 122.945312 214.875 C 122.65625 215.308594 122.34375 215.726562 122.015625 216.128906 C 121.683594 216.53125 121.335938 216.917969 120.964844 217.285156 C 120.597656 217.652344 120.210938 218.003906 119.808594 218.332031 C 119.40625 218.664062 118.988281 218.972656 118.554688 219.261719 C 118.125 219.554688 117.675781 219.820312 117.21875 220.066406 C 116.757812 220.3125 116.289062 220.535156 115.808594 220.734375 C 115.324219 220.933594 114.835938 221.109375 114.335938 221.257812 C 113.839844 221.410156 113.335938 221.535156 112.824219 221.636719 C 112.3125 221.738281 111.796875 221.816406 111.28125 221.867188 C 110.761719 221.917969 110.242188 221.945312 109.722656 221.945312 C 109.199219 221.945312 108.679688 221.917969 108.160156 221.867188 C 107.644531 221.816406 107.128906 221.738281 106.617188 221.636719 C 106.105469 221.535156 105.601562 221.410156 105.105469 221.257812 C 104.605469 221.109375 104.117188 220.933594 103.632812 220.734375 C 103.152344 220.535156 102.683594 220.3125 102.222656 220.066406 C 101.765625 219.820312 101.316406 219.554688 100.886719 219.261719 C 100.453125 218.972656 100.035156 218.664062 99.632812 218.332031 C 99.230469 218.003906 98.84375 217.652344 98.476562 217.285156 C 98.105469 216.917969 97.757812 216.53125 97.425781 216.128906 C 97.097656 215.726562 96.785156 215.308594 96.496094 214.875 C 96.207031 214.441406 95.941406 213.996094 95.695312 213.535156 C 95.449219 213.078125 95.226562 212.605469 95.027344 212.125 C 94.828125 211.644531 94.652344 211.15625 94.5 210.65625 C 94.351562 210.15625 94.222656 209.652344 94.121094 209.144531 C 94.019531 208.632812 93.945312 208.117188 93.894531 207.597656 C 93.84375 207.082031 93.816406 206.5625 93.816406 206.039062 C 93.816406 205.519531 93.84375 205 93.894531 204.480469 C 93.945312 203.960938 94.019531 203.449219 94.121094 202.9375 C 94.222656 202.425781 94.351562 201.921875 94.5 201.421875 C 94.652344 200.925781 94.828125 200.433594 95.027344 199.953125 C 95.226562 199.472656 95.449219 199.003906 95.695312 198.542969 C 95.941406 198.082031 96.207031 197.636719 96.496094 197.203125 C 96.785156 196.769531 97.097656 196.351562 97.425781 195.949219 C 97.757812 195.546875 98.105469 195.164062 98.476562 194.792969 C 98.84375 194.425781 99.230469 194.078125 99.632812 193.746094 C 100.035156 193.414062 100.453125 193.105469 100.886719 192.816406 C 101.316406 192.527344 101.765625 192.257812 102.222656 192.015625 C 102.683594 191.769531 103.152344 191.546875 103.632812 191.347656 C 104.117188 191.148438 104.605469 190.972656 105.105469 190.820312 C 105.601562 190.667969 106.105469 190.542969 106.617188 190.441406 C 107.128906 190.339844 107.644531 190.261719 108.160156 190.210938 C 108.679688 190.160156 109.199219 190.136719 109.722656 190.136719 C 110.242188 190.136719 110.761719 190.160156 111.28125 190.210938 C 111.796875 190.261719 112.3125 190.339844 112.824219 190.441406 C 113.335938 190.542969 113.839844 190.667969 114.335938 190.820312 C 114.835938 190.972656 115.324219 191.148438 115.808594 191.347656 C 116.289062 191.546875 116.757812 191.769531 117.21875 192.015625 C 117.675781 192.257812 118.125 192.527344 118.554688 192.816406 C 118.988281 193.105469 119.40625 193.414062 119.808594 193.746094 C 120.210938 194.078125 120.597656 194.425781 120.964844 194.792969 C 121.335938 195.164062 121.683594 195.546875 122.015625 195.949219 C 122.34375 196.351562 122.65625 196.769531 122.945312 197.203125 C 123.234375 197.636719 123.5 198.082031 123.746094 198.542969 C 123.992188 199.003906 124.214844 199.472656 124.414062 199.953125 C 124.613281 200.433594 124.789062 200.925781 124.941406 201.421875 C 125.089844 201.921875 125.21875 202.425781 125.320312 202.9375 C 125.421875 203.449219 125.496094 203.960938 125.546875 204.480469 C 125.597656 205 125.625 205.519531 125.625 206.039062 Z M 125.625 206.039062 "/></g></g></g></svg>