<svg xmlns="http://www.w3.org/2000/svg" xmlns:xlink="http://www.w3.org/1999/xlink" width="500" zoomAndPan="magnify" viewBox="0 0 375 374.999991" height="500" preserveAspectRatio="xMidYMid meet" version="1.2"><defs><clipPath id="483b15eb25"><path d="M 90.953125 193 L 253 193 L 253 217 L 90.953125 217 Z M 90.953125 193 "/></clipPath><clipPath id="46ab2d477e"><path d="M 123 227 L 283.703125 227 L 283.703125 248 L 123 248 Z M 123 227 "/></clipPath><clipPath id="24f996e2df"><path d="M 90.953125 209 L 253 209 L 253 238 L 90.953125 238 Z M 90.953125 209 "/></clipPath><clipPath id="9e70398389"><path d="M 121 240 L 283.703125 240 L 283.703125 268 L 121 268 Z M 121 240 "/></clipPath></defs><g id="f35960818c"><g clip-rule="nonzero" clip-path="url(#483b15eb25)"><path style=" stroke:none;fill-rule:nonzero;fill:#ffa92c;fill-opacity:1;" d="M 171.71875 217 C 221.164062 217 252.714844 209.90625 252.714844 205.027344 C 252.714844 200.234375 222.257812 193.328125 174.359375 193.078125 C 173.285156 198.535156 173.464844 202.640625 173.46875 202.714844 C 173.46875 202.71875 173.46875 202.71875 173.46875 202.722656 C 173.46875 202.722656 173.46875 202.730469 173.46875 202.734375 C 173.46875 202.738281 173.464844 202.738281 173.464844 202.742188 C 173.5 203.6875 172.78125 204.5 171.835938 204.5625 C 171.792969 204.566406 171.753906 204.566406 171.714844 204.566406 C 170.8125 204.566406 170.042969 203.871094 169.972656 202.949219 C 169.960938 202.800781 169.902344 202.066406 169.824219 200.972656 C 169.679688 199.3125 169.394531 196.609375 168.875 193.082031 C 121.09375 193.351562 90.722656 200.242188 90.722656 205.027344 C 90.722656 209.90625 122.273438 217 171.71875 217 Z M 171.71875 217 "/></g><path style=" stroke:none;fill-rule:nonzero;fill:#38e067;fill-opacity:1;" d="M 178.863281 121.574219 C 178.902344 121.59375 178.945312 121.601562 178.984375 121.625 C 185.328125 100.71875 213.449219 59.0625 214.167969 59.71875 C 214.882812 60.367188 188.417969 102.441406 182.207031 123.046875 C 185.570312 124.050781 189.214844 123.785156 192.460938 122.207031 C 197.183594 119.90625 203.816406 115.195312 208.578125 105.824219 C 221.296875 80.796875 225.449219 57.566406 227.414062 39.546875 C 208.042969 50.828125 187.320312 65.832031 175.765625 90.640625 C 173.273438 95.992188 171.832031 103.316406 172.011719 109.765625 C 172.140625 114.628906 174.703125 119.042969 178.863281 121.574219 Z M 178.863281 121.574219 "/><path style=" stroke:none;fill-rule:nonzero;fill:#38e067;fill-opacity:1;" d="M 143.238281 141.359375 C 146.613281 142.886719 150.335938 142.710938 153.476562 141.066406 C 146.648438 126.070312 122.824219 93.894531 123.527344 93.230469 C 124.234375 92.570312 149.414062 123.859375 156.363281 138.980469 C 158.355469 136.925781 159.460938 134.214844 159.394531 131.222656 C 159.289062 125.976562 157.804688 120.039062 155.527344 115.714844 C 145.015625 95.777344 127.414062 83.804688 110.960938 74.851562 C 113.347656 89.492188 117.78125 108.195312 129.210938 128.214844 C 133.539062 135.792969 139.226562 139.546875 143.238281 141.359375 Z M 143.238281 141.359375 "/><g clip-rule="nonzero" clip-path="url(#46ab2d477e)"><path style=" stroke:none;fill-rule:nonzero;fill:#ffa92c;fill-opacity:1;" d="M 171.71875 240.585938 C 156.914062 240.585938 138.960938 239.800781 123.417969 237.976562 C 130.921875 242.566406 160.070312 247.761719 202.425781 247.761719 C 251.875 247.761719 283.433594 240.679688 283.433594 235.804688 C 283.433594 234.4375 278.355469 230.261719 255.671875 227.085938 C 250.152344 236.945312 203.628906 240.585938 171.71875 240.585938 Z M 171.71875 240.585938 "/></g><path style=" stroke:none;fill-rule:nonzero;fill:#38e067;fill-opacity:1;" d="M 192.097656 149.167969 C 190.03125 152.730469 189.839844 156.960938 191.375 160.726562 C 204.636719 148.152344 240.160156 131.015625 240.503906 131.921875 C 240.851562 132.828125 206.164062 151.332031 193.15625 163.835938 C 195.378906 166.710938 198.640625 168.621094 202.359375 168.984375 L 202.355469 168.984375 C 207.292969 169.464844 214.941406 168.960938 223.386719 163.828125 C 245.878906 150.15625 260.652344 133.738281 271.125 120.355469 C 250.011719 119.859375 226.011719 121.695312 204.535156 135.773438 C 199.902344 138.8125 195.136719 143.945312 192.097656 149.167969 Z M 192.097656 149.167969 "/><path style=" stroke:none;fill-rule:nonzero;fill:#e08e0b;fill-opacity:1;" d="M 101.644531 268.09375 L 101.644531 283.273438 C 101.644531 283.292969 101.65625 283.3125 101.65625 283.332031 L 101.65625 283.371094 C 101.789062 287.550781 129.589844 295.296875 182.652344 295.296875 C 235.714844 295.296875 263.519531 287.550781 263.648438 283.371094 L 263.648438 283.332031 C 263.648438 283.3125 263.660156 283.292969 263.660156 283.273438 L 263.660156 268.09375 C 252.78125 275.078125 216.277344 278.726562 182.652344 278.726562 C 154.03125 278.726562 113.65625 275.804688 101.644531 268.09375 Z M 101.644531 268.09375 "/><path style=" stroke:none;fill-rule:nonzero;fill:#e08e0b;fill-opacity:1;" d="M 101.65625 308.25 L 101.65625 323.480469 C 101.65625 328.359375 133.207031 335.453125 182.652344 335.453125 C 232.097656 335.453125 263.648438 328.359375 263.648438 323.480469 L 263.648438 308.25 C 251.636719 315.960938 211.269531 318.890625 182.652344 318.890625 C 154.039062 318.890625 113.667969 315.960938 101.65625 308.25 Z M 101.65625 308.25 "/><g clip-rule="nonzero" clip-path="url(#24f996e2df)"><path style=" stroke:none;fill-rule:nonzero;fill:#e08e0b;fill-opacity:1;" d="M 252.714844 225.101562 L 252.714844 209.867188 C 240.703125 217.582031 200.335938 220.511719 171.71875 220.511719 C 143.105469 220.511719 102.734375 217.582031 90.722656 209.867188 L 90.722656 225.101562 C 90.722656 229.980469 122.273438 237.074219 171.71875 237.074219 C 221.164062 237.074219 252.714844 229.980469 252.714844 225.101562 Z M 252.714844 225.101562 "/></g><g clip-rule="nonzero" clip-path="url(#9e70398389)"><path style=" stroke:none;fill-rule:nonzero;fill:#e08e0b;fill-opacity:1;" d="M 202.425781 251.273438 C 173.8125 251.273438 133.449219 248.347656 121.445312 240.640625 L 121.445312 255.875 C 121.445312 260.757812 152.996094 267.847656 202.441406 267.847656 C 251.882812 267.847656 283.433594 260.757812 283.433594 255.875 L 283.433594 240.640625 C 271.425781 248.347656 231.046875 251.273438 202.425781 251.273438 Z M 202.425781 251.273438 "/></g><path style=" stroke:none;fill-rule:nonzero;fill:#e08e0b;fill-opacity:1;" d="M 101.65625 288.183594 L 101.65625 303.40625 C 101.65625 308.285156 133.207031 315.378906 182.652344 315.378906 C 232.097656 315.378906 263.648438 308.285156 263.648438 303.40625 L 263.648438 288.183594 C 251.621094 295.886719 211.261719 298.808594 182.652344 298.808594 C 154.042969 298.808594 113.683594 295.886719 101.65625 288.183594 Z M 101.65625 288.183594 "/><path style=" stroke:none;fill-rule:nonzero;fill:#e08e0b;fill-opacity:1;" d="M 101.644531 263.257812 C 101.644531 268.132812 133.199219 275.214844 182.652344 275.214844 C 215.90625 275.214844 241.511719 272.125 254.449219 268.289062 C 238.113281 270.441406 218.4375 271.359375 202.441406 271.359375 C 169.09375 271.359375 119.820312 267.378906 118.023438 256.488281 C 105.226562 259.1875 101.644531 262.0625 101.644531 263.257812 Z M 101.644531 263.257812 "/><path style=" stroke:none;fill-rule:nonzero;fill:#1ca03b;fill-opacity:1;" d="M 154.921875 144.339844 C 162.6875 162.292969 166.492188 178.707031 168.320312 189.558594 L 175.195312 189.558594 C 176.292969 185.632812 178.066406 181.347656 180.972656 177.46875 C 183.816406 173.671875 187.125 169.96875 190.667969 166.363281 L 188.65625 163.40625 C 184.804688 167.277344 181.234375 171.269531 178.167969 175.363281 C 175.582031 178.816406 173.804688 182.515625 172.585938 186.046875 C 172.394531 179.742188 172.390625 172.949219 172.925781 168.222656 C 173.972656 158.984375 176.300781 143.582031 181.203125 126.402344 L 177.957031 125.042969 C 172.902344 142.628906 170.511719 158.394531 169.441406 167.828125 C 169.191406 170.0625 169.054688 172.707031 168.992188 175.523438 C 166.667969 165.898438 163.140625 154.433594 157.835938 142.289062 Z M 154.921875 144.339844 "/></g></svg>