<svg xmlns="http://www.w3.org/2000/svg" xmlns:xlink="http://www.w3.org/1999/xlink" width="53" zoomAndPan="magnify" viewBox="0 0 39.75 39.749999" height="53" preserveAspectRatio="xMidYMid meet" version="1.2"><defs><clipPath id="b1ca98873b"><path d="M 10.078125 10.507812 L 28.710938 10.507812 L 28.710938 29 L 10.078125 29 Z M 10.078125 10.507812 "/></clipPath></defs><g id="8a43377203"><g clip-rule="nonzero" clip-path="url(#b1ca98873b)"><path style=" stroke:none;fill-rule:evenodd;fill:#ffffff;fill-opacity:1;" d="M 28.558594 28.992188 L 24.863281 28.992188 L 24.863281 22.523438 C 24.863281 20.75 24.078125 19.757812 22.675781 19.757812 C 21.148438 19.757812 20.242188 20.789062 20.242188 22.523438 L 20.242188 28.992188 L 16.546875 28.992188 L 16.546875 16.976562 L 20.242188 16.976562 L 20.242188 18.328125 C 20.242188 18.328125 21.402344 16.292969 24.015625 16.292969 C 26.628906 16.292969 28.558594 17.886719 28.558594 21.191406 Z M 12.332031 15.054688 C 11.085938 15.054688 10.078125 14.039062 10.078125 12.78125 C 10.078125 11.527344 11.085938 10.507812 12.332031 10.507812 C 13.578125 10.507812 14.589844 11.527344 14.589844 12.78125 C 14.589844 14.039062 13.578125 15.054688 12.332031 15.054688 Z M 10.078125 28.992188 L 14.695312 28.992188 L 14.695312 16.976562 L 10.078125 16.976562 Z M 10.078125 28.992188 "/></g></g></svg>