<svg xmlns="http://www.w3.org/2000/svg" xmlns:xlink="http://www.w3.org/1999/xlink" width="53" zoomAndPan="magnify" viewBox="0 0 39.75 39.749999" height="53" preserveAspectRatio="xMidYMid meet" version="1.2"><defs><clipPath id="128337bed1"><path d="M 10.078125 12 L 28.710938 12 L 28.710938 27.652344 L 10.078125 27.652344 Z M 10.078125 12 "/></clipPath></defs><g id="b96222f189"><g clip-rule="nonzero" clip-path="url(#128337bed1)"><path style=" stroke:none;fill-rule:nonzero;fill:#ffffff;fill-opacity:1;" d="M 28.519531 12.394531 C 28.453125 12.203125 28.375 12.152344 28.253906 12.105469 C 27.984375 12.003906 27.53125 12.15625 27.53125 12.15625 C 27.53125 12.15625 11.453125 17.933594 10.53125 18.574219 C 10.335938 18.714844 10.269531 18.792969 10.234375 18.886719 C 10.078125 19.34375 10.570312 19.542969 10.570312 19.542969 L 14.714844 20.894531 C 14.714844 20.894531 14.871094 20.917969 14.925781 20.882812 C 15.867188 20.285156 24.410156 14.890625 24.90625 14.710938 C 24.984375 14.6875 25.039062 14.714844 25.023438 14.765625 C 24.828125 15.460938 17.40625 22.054688 17.40625 22.054688 C 17.40625 22.054688 17.378906 22.089844 17.359375 22.128906 L 17.351562 22.125 L 16.964844 26.238281 C 16.964844 26.238281 16.800781 27.496094 18.0625 26.238281 C 18.949219 25.351562 19.808594 24.605469 20.242188 24.242188 C 21.664062 25.226562 23.199219 26.316406 23.863281 26.882812 C 24.195312 27.171875 24.472656 27.21875 24.699219 27.207031 C 25.328125 27.183594 25.503906 26.496094 25.503906 26.496094 C 25.503906 26.496094 28.433594 14.699219 28.53125 13.121094 C 28.542969 12.964844 28.554688 12.867188 28.558594 12.761719 C 28.558594 12.613281 28.546875 12.464844 28.519531 12.394531 Z M 28.519531 12.394531 "/></g></g></svg>