<svg xmlns="http://www.w3.org/2000/svg" width="53" viewBox="0 0 39.75 39.75" height="53" version="1.2"><defs><clipPath id="a"><path d="M10 10h19v19H10Zm0 0"/></clipPath><clipPath id="b"><path d="M0 5.219v29.164a5.22 5.22 0 0 0 5.219 5.219h29.066a5.217 5.217 0 0 0 5.215-5.22V5.22A5.217 5.217 0 0 0 34.285 0H5.22A5.22 5.22 0 0 0 0 5.219m0 0"/></clipPath><clipPath id="c"><path d="M10 9h20v21H10Zm0 0"/></clipPath><clipPath id="d"><path d="M0 5.219v29.164a5.22 5.22 0 0 0 5.219 5.219h29.066a5.217 5.217 0 0 0 5.215-5.22V5.22A5.217 5.217 0 0 0 34.285 0H5.22A5.22 5.22 0 0 0 0 5.219m0 0"/></clipPath><clipPath id="e"><path d="M10 10h19v19H10Zm0 0"/></clipPath><clipPath id="f"><path d="M0 5.219v29.164a5.22 5.22 0 0 0 5.219 5.219h29.066a5.217 5.217 0 0 0 5.215-5.22V5.22A5.217 5.217 0 0 0 34.285 0H5.22A5.22 5.22 0 0 0 0 5.219m0 0"/></clipPath><clipPath id="g"><path d="M10 9h19v21H10Zm0 0"/></clipPath><clipPath id="h"><path d="M0 5.219v29.164a5.22 5.22 0 0 0 5.219 5.219h29.066a5.217 5.217 0 0 0 5.215-5.22V5.22A5.217 5.217 0 0 0 34.285 0H5.22A5.22 5.22 0 0 0 0 5.219m0 0"/></clipPath><clipPath id="k"><path d="M12 11h15v17H12Zm0 0"/></clipPath><clipPath id="l"><path d="M0 5.219v29.164a5.22 5.22 0 0 0 5.219 5.219h29.066a5.217 5.217 0 0 0 5.215-5.22V5.22A5.217 5.217 0 0 0 34.285 0H5.22A5.22 5.22 0 0 0 0 5.219m0 0"/></clipPath></defs><g clip-path="url(#a)"><g clip-path="url(#b)"><path style="stroke:none;fill-rule:evenodd;fill:#fff;fill-opacity:1" d="m10.602 10.145 5.332-.036L28.89 28.918l-5.383-.047Zm0 0"/></g></g><g clip-path="url(#c)"><g clip-path="url(#d)"><path style="fill:none;stroke-width:2.14;stroke-linecap:round;stroke-linejoin:round;stroke:#fff;stroke-opacity:1;stroke-miterlimit:1.5" d="m30640.414 9422.333 45.274-.299 110.015 160.077-45.704-.4Zm0 0" transform="matrix(.11777 0 0 .1175 -3598.057 -1096.955)"/></g></g><g clip-path="url(#e)"><g clip-path="url(#f)"><path style="stroke:none;fill-rule:evenodd;fill:#fff;fill-opacity:1" d="M26.664 10.11h1.66l-16.12 18.808h-1.602Zm0 0"/></g></g><g clip-path="url(#g)"><g clip-path="url(#h)"><path style="fill:none;stroke-width:2.14;stroke-linecap:round;stroke-linejoin:round;stroke:#fff;stroke-opacity:1;stroke-miterlimit:1.5" d="M30776.798 9422.034h14.096l-136.881 160.077h-13.599Zm0 0" transform="matrix(.11777 0 0 .1175 -3598.057 -1096.955)"/></g></g><g clip-path="url(#k)"><g clip-path="url(#l)"><path style="stroke:none;fill-rule:evenodd;fill:#fff;fill-opacity:1" d="m12.8 11.57 2.477.012 11.434 16.34-2.473-.004Zm0 0"/><path style="stroke:none;fill-rule:evenodd;fill:#fff;fill-opacity:1" d="m12.8 11.57 2.477.012 11.434 16.34-2.473-.004Zm.192.098 11.293 16.148 2.238.004L15.22 11.684Zm0 0"/></g></g></svg>