<svg xmlns="http://www.w3.org/2000/svg" xmlns:xlink="http://www.w3.org/1999/xlink" width="962" zoomAndPan="magnify" viewBox="0 0 721.5 34.499999" height="46" preserveAspectRatio="xMidYMid meet" version="1.2"><defs><clipPath id="ae25ca76da"><path d="M 8.308594 3.402344 L 96.28125 3.402344 L 96.28125 30.753906 L 8.308594 30.753906 Z M 8.308594 3.402344 "/></clipPath><clipPath id="c2212cb952"><path d="M 96.421875 3.402344 L 184.398438 3.402344 L 184.398438 30.753906 L 96.421875 30.753906 Z M 96.421875 3.402344 "/></clipPath><clipPath id="a4e38fdfd6"><path d="M 184.273438 3.402344 L 272.246094 3.402344 L 272.246094 30.753906 L 184.273438 30.753906 Z M 184.273438 3.402344 "/></clipPath><clipPath id="342a69b62d"><path d="M 272.386719 3.402344 L 360.363281 3.402344 L 360.363281 30.753906 L 272.386719 30.753906 Z M 272.386719 3.402344 "/></clipPath><clipPath id="6c38ac5c10"><path d="M 360.363281 3.402344 L 448.335938 3.402344 L 448.335938 30.753906 L 360.363281 30.753906 Z M 360.363281 3.402344 "/></clipPath><clipPath id="a395d5c9af"><path d="M 448.480469 3.402344 L 536.453125 3.402344 L 536.453125 30.753906 L 448.480469 30.753906 Z M 448.480469 3.402344 "/></clipPath><clipPath id="6e654b64d8"><path d="M 536.328125 3.402344 L 624.300781 3.402344 L 624.300781 30.753906 L 536.328125 30.753906 Z M 536.328125 3.402344 "/></clipPath><clipPath id="5f84dcba05"><path d="M 624.441406 3.402344 L 712.417969 3.402344 L 712.417969 30.753906 L 624.441406 30.753906 Z M 624.441406 3.402344 "/></clipPath></defs><g id="52f1fb76eb"><g clip-rule="nonzero" clip-path="url(#ae25ca76da)"><path style=" stroke:none;fill-rule:nonzero;fill:#ff6d4d;fill-opacity:1;" d="M 26.433594 30.53125 C 26.417969 30.53125 26.402344 30.53125 26.382812 30.53125 C 26.09375 30.511719 25.886719 30.289062 25.867188 29.996094 L 25.09375 6.972656 L 22.777344 20.339844 C 22.722656 20.648438 22.464844 20.855469 22.15625 20.871094 C 21.847656 20.871094 21.589844 20.683594 21.519531 20.375 L 20.902344 17.640625 C 20.835938 17.351562 20.59375 17.160156 20.300781 17.160156 C 19.578125 17.160156 18.960938 16.644531 18.839844 15.941406 L 18.617188 14.617188 C 18.617188 14.601562 18.617188 14.585938 18.582031 14.585938 C 18.546875 14.585938 18.546875 14.601562 18.546875 14.617188 L 17.878906 18.640625 C 17.808594 19.070312 17.449219 19.359375 17.019531 19.34375 C 16.589844 19.34375 16.246094 19.035156 16.195312 18.605469 L 15.488281 13.039062 C 15.472656 12.898438 15.371094 12.867188 15.320312 12.867188 C 15.265625 12.867188 15.164062 12.867188 15.113281 12.984375 L 13.753906 16.320312 C 13.546875 16.835938 13.050781 17.160156 12.484375 17.160156 L 8.308594 17.160156 L 8.308594 16.40625 L 12.484375 16.40625 C 12.722656 16.40625 12.945312 16.25 13.050781 16.027344 L 14.40625 12.695312 C 14.578125 12.28125 14.976562 12.058594 15.421875 12.109375 C 15.851562 12.160156 16.195312 12.503906 16.246094 12.933594 L 16.949219 18.5 C 16.949219 18.519531 16.96875 18.570312 17.035156 18.585938 C 17.105469 18.585938 17.121094 18.535156 17.121094 18.519531 L 17.792969 14.5 C 17.863281 14.101562 18.1875 13.828125 18.582031 13.828125 C 18.976562 13.828125 19.304688 14.101562 19.375 14.480469 L 19.613281 15.804688 C 19.683594 16.148438 19.976562 16.40625 20.335938 16.40625 C 20.644531 16.40625 20.953125 16.507812 21.195312 16.714844 C 21.433594 16.902344 21.605469 17.179688 21.675781 17.488281 L 22.121094 19.601562 L 24.871094 3.808594 C 24.90625 3.585938 25.113281 3.433594 25.335938 3.449219 C 25.558594 3.46875 25.730469 3.65625 25.75 3.878906 L 26.554688 28.140625 L 28.582031 17.503906 C 28.703125 16.871094 29.269531 16.40625 29.90625 16.40625 C 30.4375 16.40625 30.902344 16.042969 31.023438 15.511719 L 31.726562 12.417969 C 31.796875 12.09375 32.089844 11.871094 32.433594 11.871094 C 32.777344 11.871094 33.050781 12.109375 33.121094 12.4375 L 34.304688 18.277344 C 34.304688 18.296875 34.304688 18.3125 34.339844 18.3125 C 34.375 18.3125 34.375 18.296875 34.375 18.296875 L 35.679688 14.480469 C 35.800781 14.121094 36.125 13.898438 36.503906 13.898438 C 36.882812 13.898438 37.191406 14.121094 37.328125 14.480469 L 37.914062 16.148438 C 37.964844 16.300781 38.121094 16.421875 38.292969 16.421875 L 96.28125 16.421875 L 96.28125 17.179688 L 38.273438 17.179688 C 37.777344 17.179688 37.347656 16.871094 37.175781 16.40625 L 36.589844 14.738281 C 36.574219 14.671875 36.523438 14.671875 36.488281 14.671875 C 36.453125 14.671875 36.402344 14.6875 36.382812 14.738281 L 35.078125 18.554688 C 34.957031 18.898438 34.632812 19.121094 34.269531 19.085938 C 33.910156 19.070312 33.617188 18.8125 33.550781 18.449219 L 32.414062 12.847656 L 31.761719 15.699219 C 31.660156 16.113281 31.4375 16.492188 31.09375 16.765625 C 30.75 17.042969 30.335938 17.179688 29.90625 17.179688 C 29.613281 17.179688 29.375 17.386719 29.320312 17.660156 L 26.984375 30.082031 C 26.933594 30.339844 26.710938 30.53125 26.433594 30.53125 Z M 26.433594 30.53125 "/></g><g clip-rule="nonzero" clip-path="url(#c2212cb952)"><path style=" stroke:none;fill-rule:nonzero;fill:#ff6d4d;fill-opacity:1;" d="M 114.550781 30.53125 C 114.535156 30.53125 114.515625 30.53125 114.5 30.53125 C 114.207031 30.511719 114 30.289062 113.984375 29.996094 L 113.210938 6.972656 L 110.890625 20.339844 C 110.839844 20.648438 110.582031 20.855469 110.273438 20.871094 C 109.964844 20.871094 109.707031 20.683594 109.636719 20.375 L 109.019531 17.640625 C 108.949219 17.351562 108.710938 17.160156 108.417969 17.160156 C 107.695312 17.160156 107.078125 16.644531 106.957031 15.941406 L 106.734375 14.617188 C 106.734375 14.601562 106.734375 14.585938 106.699219 14.585938 C 106.664062 14.585938 106.664062 14.601562 106.664062 14.617188 L 105.996094 18.640625 C 105.925781 19.070312 105.566406 19.359375 105.136719 19.34375 C 104.707031 19.34375 104.363281 19.035156 104.308594 18.605469 L 103.605469 13.039062 C 103.589844 12.898438 103.484375 12.867188 103.433594 12.867188 C 103.382812 12.867188 103.28125 12.867188 103.226562 12.984375 L 101.871094 16.320312 C 101.664062 16.835938 101.164062 17.160156 100.597656 17.160156 L 96.421875 17.160156 L 96.421875 16.40625 L 100.597656 16.40625 C 100.839844 16.40625 101.0625 16.25 101.164062 16.027344 L 102.523438 12.695312 C 102.695312 12.28125 103.089844 12.058594 103.539062 12.109375 C 103.964844 12.160156 104.308594 12.503906 104.363281 12.933594 L 105.066406 18.5 C 105.066406 18.519531 105.082031 18.570312 105.152344 18.585938 C 105.222656 18.585938 105.238281 18.535156 105.238281 18.519531 L 105.910156 14.5 C 105.976562 14.101562 106.304688 13.828125 106.699219 13.828125 C 107.09375 13.828125 107.421875 14.101562 107.488281 14.480469 L 107.730469 15.804688 C 107.796875 16.148438 108.089844 16.40625 108.453125 16.40625 C 108.761719 16.40625 109.070312 16.507812 109.308594 16.714844 C 109.550781 16.902344 109.722656 17.179688 109.792969 17.488281 L 110.238281 19.601562 L 112.988281 3.808594 C 113.023438 3.585938 113.226562 3.433594 113.453125 3.449219 C 113.675781 3.46875 113.847656 3.65625 113.863281 3.878906 L 114.671875 28.140625 L 116.699219 17.503906 C 116.820312 16.871094 117.386719 16.40625 118.023438 16.40625 C 118.554688 16.40625 119.019531 16.042969 119.140625 15.511719 L 119.84375 12.417969 C 119.914062 12.09375 120.203125 11.871094 120.546875 11.871094 C 120.890625 11.871094 121.167969 12.109375 121.234375 12.4375 L 122.421875 18.277344 C 122.421875 18.296875 122.421875 18.3125 122.457031 18.3125 C 122.488281 18.3125 122.488281 18.296875 122.488281 18.296875 L 123.796875 14.480469 C 123.914062 14.121094 124.242188 13.898438 124.621094 13.898438 C 125 13.898438 125.308594 14.121094 125.445312 14.480469 L 126.027344 16.148438 C 126.082031 16.300781 126.234375 16.421875 126.40625 16.421875 L 184.398438 16.421875 L 184.398438 17.179688 L 126.390625 17.179688 C 125.890625 17.179688 125.460938 16.871094 125.289062 16.40625 L 124.707031 14.738281 C 124.6875 14.671875 124.636719 14.671875 124.601562 14.671875 C 124.570312 14.671875 124.515625 14.6875 124.5 14.738281 L 123.195312 18.554688 C 123.074219 18.898438 122.746094 19.121094 122.386719 19.085938 C 122.027344 19.070312 121.734375 18.8125 121.664062 18.449219 L 120.53125 12.847656 L 119.878906 15.699219 C 119.773438 16.113281 119.550781 16.492188 119.207031 16.765625 C 118.863281 17.042969 118.453125 17.179688 118.023438 17.179688 C 117.730469 17.179688 117.488281 17.386719 117.4375 17.660156 L 115.101562 30.082031 C 115.050781 30.339844 114.824219 30.53125 114.550781 30.53125 Z M 114.550781 30.53125 "/></g><g clip-rule="nonzero" clip-path="url(#a4e38fdfd6)"><path style=" stroke:none;fill-rule:nonzero;fill:#ff6d4d;fill-opacity:1;" d="M 202.398438 30.53125 C 202.382812 30.53125 202.367188 30.53125 202.347656 30.53125 C 202.054688 30.511719 201.851562 30.289062 201.832031 29.996094 L 201.058594 6.972656 L 198.738281 20.339844 C 198.6875 20.648438 198.429688 20.855469 198.121094 20.871094 C 197.8125 20.871094 197.554688 20.683594 197.484375 20.375 L 196.867188 17.640625 C 196.796875 17.351562 196.558594 17.160156 196.265625 17.160156 C 195.542969 17.160156 194.925781 16.644531 194.804688 15.941406 L 194.582031 14.617188 C 194.582031 14.601562 194.582031 14.585938 194.546875 14.585938 C 194.511719 14.585938 194.511719 14.601562 194.511719 14.617188 L 193.84375 18.640625 C 193.773438 19.070312 193.414062 19.359375 192.984375 19.34375 C 192.554688 19.34375 192.210938 19.035156 192.160156 18.605469 L 191.453125 13.039062 C 191.4375 12.898438 191.335938 12.867188 191.28125 12.867188 C 191.230469 12.867188 191.128906 12.867188 191.078125 12.984375 L 189.71875 16.320312 C 189.511719 16.835938 189.015625 17.160156 188.449219 17.160156 L 184.273438 17.160156 L 184.273438 16.40625 L 188.449219 16.40625 C 188.6875 16.40625 188.910156 16.25 189.015625 16.027344 L 190.371094 12.695312 C 190.542969 12.28125 190.9375 12.058594 191.386719 12.109375 C 191.816406 12.160156 192.160156 12.503906 192.210938 12.933594 L 192.914062 18.5 C 192.914062 18.519531 192.933594 18.570312 193 18.585938 C 193.070312 18.585938 193.085938 18.535156 193.085938 18.519531 L 193.757812 14.5 C 193.824219 14.101562 194.152344 13.828125 194.546875 13.828125 C 194.941406 13.828125 195.269531 14.101562 195.335938 14.480469 L 195.578125 15.804688 C 195.648438 16.148438 195.9375 16.40625 196.300781 16.40625 C 196.609375 16.40625 196.917969 16.507812 197.160156 16.714844 C 197.398438 16.902344 197.570312 17.179688 197.640625 17.488281 L 198.085938 19.601562 L 200.835938 3.808594 C 200.871094 3.585938 201.078125 3.433594 201.300781 3.449219 C 201.523438 3.46875 201.695312 3.65625 201.710938 3.878906 L 202.519531 28.140625 L 204.546875 17.503906 C 204.667969 16.871094 205.234375 16.40625 205.871094 16.40625 C 206.402344 16.40625 206.867188 16.042969 206.988281 15.511719 L 207.691406 12.417969 C 207.761719 12.09375 208.054688 11.871094 208.398438 11.871094 C 208.742188 11.871094 209.015625 12.109375 209.082031 12.4375 L 210.269531 18.277344 C 210.269531 18.296875 210.269531 18.3125 210.304688 18.3125 C 210.339844 18.3125 210.339844 18.296875 210.339844 18.296875 L 211.644531 14.480469 C 211.765625 14.121094 212.089844 13.898438 212.46875 13.898438 C 212.847656 13.898438 213.15625 14.121094 213.292969 14.480469 L 213.878906 16.148438 C 213.929688 16.300781 214.085938 16.421875 214.257812 16.421875 L 272.246094 16.421875 L 272.246094 17.179688 L 214.238281 17.179688 C 213.742188 17.179688 213.3125 16.871094 213.140625 16.40625 L 212.554688 14.738281 C 212.539062 14.671875 212.484375 14.671875 212.453125 14.671875 C 212.417969 14.671875 212.367188 14.6875 212.347656 14.738281 L 211.042969 18.554688 C 210.921875 18.898438 210.597656 19.121094 210.234375 19.085938 C 209.875 19.070312 209.582031 18.8125 209.511719 18.449219 L 208.378906 12.847656 L 207.726562 15.699219 C 207.625 16.113281 207.398438 16.492188 207.054688 16.765625 C 206.710938 17.042969 206.300781 17.179688 205.871094 17.179688 C 205.578125 17.179688 205.339844 17.386719 205.285156 17.660156 L 202.949219 30.082031 C 202.898438 30.339844 202.675781 30.53125 202.398438 30.53125 Z M 202.398438 30.53125 "/></g><g clip-rule="nonzero" clip-path="url(#342a69b62d)"><path style=" stroke:none;fill-rule:nonzero;fill:#ff6d4d;fill-opacity:1;" d="M 290.515625 30.53125 C 290.5 30.53125 290.480469 30.53125 290.464844 30.53125 C 290.171875 30.511719 289.964844 30.289062 289.949219 29.996094 L 289.175781 6.972656 L 286.855469 20.339844 C 286.804688 20.648438 286.546875 20.855469 286.238281 20.871094 C 285.929688 20.871094 285.671875 20.683594 285.601562 20.375 L 284.984375 17.640625 C 284.914062 17.351562 284.671875 17.160156 284.382812 17.160156 C 283.660156 17.160156 283.042969 16.644531 282.921875 15.941406 L 282.699219 14.617188 C 282.699219 14.601562 282.699219 14.585938 282.664062 14.585938 C 282.628906 14.585938 282.628906 14.601562 282.628906 14.617188 L 281.957031 18.640625 C 281.890625 19.070312 281.527344 19.359375 281.097656 19.34375 C 280.667969 19.34375 280.328125 19.035156 280.273438 18.605469 L 279.570312 13.039062 C 279.554688 12.898438 279.449219 12.867188 279.398438 12.867188 C 279.347656 12.867188 279.242188 12.867188 279.191406 12.984375 L 277.835938 16.320312 C 277.628906 16.835938 277.128906 17.160156 276.5625 17.160156 L 272.386719 17.160156 L 272.386719 16.40625 L 276.5625 16.40625 C 276.804688 16.40625 277.027344 16.25 277.128906 16.027344 L 278.488281 12.695312 C 278.660156 12.28125 279.054688 12.058594 279.5 12.109375 C 279.929688 12.160156 280.273438 12.503906 280.328125 12.933594 L 281.03125 18.5 C 281.03125 18.519531 281.046875 18.570312 281.117188 18.585938 C 281.183594 18.585938 281.203125 18.535156 281.203125 18.519531 L 281.871094 14.5 C 281.941406 14.101562 282.269531 13.828125 282.664062 13.828125 C 283.058594 13.828125 283.386719 14.101562 283.453125 14.480469 L 283.695312 15.804688 C 283.761719 16.148438 284.054688 16.40625 284.414062 16.40625 C 284.726562 16.40625 285.035156 16.507812 285.273438 16.714844 C 285.515625 16.902344 285.6875 17.179688 285.757812 17.488281 L 286.203125 19.601562 L 288.953125 3.808594 C 288.984375 3.585938 289.191406 3.433594 289.414062 3.449219 C 289.640625 3.46875 289.8125 3.65625 289.828125 3.878906 L 290.636719 28.140625 L 292.664062 17.503906 C 292.785156 16.871094 293.351562 16.40625 293.988281 16.40625 C 294.519531 16.40625 294.984375 16.042969 295.101562 15.511719 L 295.808594 12.417969 C 295.875 12.09375 296.167969 11.871094 296.511719 11.871094 C 296.855469 11.871094 297.132812 12.109375 297.199219 12.4375 L 298.386719 18.277344 C 298.386719 18.296875 298.386719 18.3125 298.417969 18.3125 C 298.453125 18.3125 298.453125 18.296875 298.453125 18.296875 L 299.761719 14.480469 C 299.878906 14.121094 300.207031 13.898438 300.585938 13.898438 C 300.960938 13.898438 301.273438 14.121094 301.410156 14.480469 L 301.992188 16.148438 C 302.046875 16.300781 302.199219 16.421875 302.371094 16.421875 L 360.363281 16.421875 L 360.363281 17.179688 L 302.355469 17.179688 C 301.855469 17.179688 301.425781 16.871094 301.253906 16.40625 L 300.671875 14.738281 C 300.652344 14.671875 300.601562 14.671875 300.566406 14.671875 C 300.53125 14.671875 300.480469 14.6875 300.464844 14.738281 L 299.160156 18.554688 C 299.039062 18.898438 298.710938 19.121094 298.351562 19.085938 C 297.988281 19.070312 297.699219 18.8125 297.628906 18.449219 L 296.496094 12.847656 L 295.84375 15.699219 C 295.738281 16.113281 295.515625 16.492188 295.171875 16.765625 C 294.828125 17.042969 294.414062 17.179688 293.988281 17.179688 C 293.695312 17.179688 293.453125 17.386719 293.402344 17.660156 L 291.066406 30.082031 C 291.015625 30.339844 290.789062 30.53125 290.515625 30.53125 Z M 290.515625 30.53125 "/></g><g clip-rule="nonzero" clip-path="url(#6c38ac5c10)"><path style=" stroke:none;fill-rule:nonzero;fill:#ff6d4d;fill-opacity:1;" d="M 378.492188 30.53125 C 378.472656 30.53125 378.457031 30.53125 378.4375 30.53125 C 378.148438 30.511719 377.941406 30.289062 377.921875 29.996094 L 377.148438 6.972656 L 374.832031 20.339844 C 374.777344 20.648438 374.519531 20.855469 374.210938 20.871094 C 373.902344 20.871094 373.644531 20.683594 373.578125 20.375 L 372.957031 17.640625 C 372.890625 17.351562 372.648438 17.160156 372.355469 17.160156 C 371.632812 17.160156 371.015625 16.644531 370.894531 15.941406 L 370.671875 14.617188 C 370.671875 14.601562 370.671875 14.585938 370.636719 14.585938 C 370.605469 14.585938 370.605469 14.601562 370.605469 14.617188 L 369.933594 18.640625 C 369.863281 19.070312 369.503906 19.359375 369.074219 19.34375 C 368.644531 19.34375 368.300781 19.035156 368.25 18.605469 L 367.546875 13.039062 C 367.527344 12.898438 367.425781 12.867188 367.375 12.867188 C 367.320312 12.867188 367.21875 12.867188 367.167969 12.984375 L 365.808594 16.320312 C 365.605469 16.835938 365.105469 17.160156 364.539062 17.160156 L 360.363281 17.160156 L 360.363281 16.40625 L 364.539062 16.40625 C 364.777344 16.40625 365.003906 16.25 365.105469 16.027344 L 366.460938 12.695312 C 366.632812 12.28125 367.03125 12.058594 367.476562 12.109375 C 367.90625 12.160156 368.25 12.503906 368.300781 12.933594 L 369.003906 18.5 C 369.003906 18.519531 369.023438 18.570312 369.089844 18.585938 C 369.160156 18.585938 369.175781 18.535156 369.175781 18.519531 L 369.847656 14.5 C 369.917969 14.101562 370.242188 13.828125 370.636719 13.828125 C 371.035156 13.828125 371.359375 14.101562 371.429688 14.480469 L 371.667969 15.804688 C 371.738281 16.148438 372.03125 16.40625 372.390625 16.40625 C 372.699219 16.40625 373.007812 16.507812 373.25 16.714844 C 373.492188 16.902344 373.664062 17.179688 373.730469 17.488281 L 374.175781 19.601562 L 376.925781 3.808594 C 376.960938 3.585938 377.167969 3.433594 377.390625 3.449219 C 377.613281 3.46875 377.785156 3.65625 377.804688 3.878906 L 378.609375 28.140625 L 380.636719 17.503906 C 380.757812 16.871094 381.324219 16.40625 381.960938 16.40625 C 382.492188 16.40625 382.957031 16.042969 383.078125 15.511719 L 383.78125 12.417969 C 383.851562 12.09375 384.144531 11.871094 384.488281 11.871094 C 384.832031 11.871094 385.105469 12.109375 385.175781 12.4375 L 386.359375 18.277344 C 386.359375 18.296875 386.359375 18.3125 386.394531 18.3125 C 386.429688 18.3125 386.429688 18.296875 386.429688 18.296875 L 387.734375 14.480469 C 387.855469 14.121094 388.179688 13.898438 388.558594 13.898438 C 388.9375 13.898438 389.246094 14.121094 389.382812 14.480469 L 389.96875 16.148438 C 390.019531 16.300781 390.175781 16.421875 390.347656 16.421875 L 448.335938 16.421875 L 448.335938 17.179688 L 390.328125 17.179688 C 389.832031 17.179688 389.402344 16.871094 389.230469 16.40625 L 388.644531 14.738281 C 388.628906 14.671875 388.578125 14.671875 388.542969 14.671875 C 388.507812 14.671875 388.457031 14.6875 388.4375 14.738281 L 387.132812 18.554688 C 387.011719 18.898438 386.6875 19.121094 386.324219 19.085938 C 385.964844 19.070312 385.671875 18.8125 385.605469 18.449219 L 384.46875 12.847656 L 383.816406 15.699219 C 383.714844 16.113281 383.492188 16.492188 383.148438 16.765625 C 382.804688 17.042969 382.390625 17.179688 381.960938 17.179688 C 381.667969 17.179688 381.429688 17.386719 381.378906 17.660156 L 379.039062 30.082031 C 378.988281 30.339844 378.765625 30.53125 378.492188 30.53125 Z M 378.492188 30.53125 "/></g><g clip-rule="nonzero" clip-path="url(#a395d5c9af)"><path style=" stroke:none;fill-rule:nonzero;fill:#ff6d4d;fill-opacity:1;" d="M 466.605469 30.53125 C 466.589844 30.53125 466.570312 30.53125 466.554688 30.53125 C 466.261719 30.511719 466.054688 30.289062 466.039062 29.996094 L 465.265625 6.972656 L 462.945312 20.339844 C 462.894531 20.648438 462.636719 20.855469 462.328125 20.871094 C 462.019531 20.871094 461.761719 20.683594 461.691406 20.375 L 461.074219 17.640625 C 461.003906 17.351562 460.765625 17.160156 460.472656 17.160156 C 459.75 17.160156 459.132812 16.644531 459.011719 15.941406 L 458.789062 14.617188 C 458.789062 14.601562 458.789062 14.585938 458.753906 14.585938 C 458.71875 14.585938 458.71875 14.601562 458.71875 14.617188 L 458.050781 18.640625 C 457.980469 19.070312 457.621094 19.359375 457.191406 19.34375 C 456.761719 19.34375 456.417969 19.035156 456.367188 18.605469 L 455.660156 13.039062 C 455.644531 12.898438 455.539062 12.867188 455.488281 12.867188 C 455.4375 12.867188 455.335938 12.867188 455.28125 12.984375 L 453.925781 16.320312 C 453.71875 16.835938 453.222656 17.160156 452.652344 17.160156 L 448.480469 17.160156 L 448.480469 16.40625 L 452.652344 16.40625 C 452.894531 16.40625 453.117188 16.25 453.222656 16.027344 L 454.578125 12.695312 C 454.75 12.28125 455.144531 12.058594 455.59375 12.109375 C 456.023438 12.160156 456.367188 12.503906 456.417969 12.933594 L 457.121094 18.5 C 457.121094 18.519531 457.136719 18.570312 457.207031 18.585938 C 457.277344 18.585938 457.292969 18.535156 457.292969 18.519531 L 457.964844 14.5 C 458.03125 14.101562 458.359375 13.828125 458.753906 13.828125 C 459.148438 13.828125 459.476562 14.101562 459.542969 14.480469 L 459.785156 15.804688 C 459.851562 16.148438 460.144531 16.40625 460.507812 16.40625 C 460.816406 16.40625 461.125 16.507812 461.367188 16.714844 C 461.605469 16.902344 461.777344 17.179688 461.847656 17.488281 L 462.292969 19.601562 L 465.042969 3.808594 C 465.078125 3.585938 465.28125 3.433594 465.507812 3.449219 C 465.730469 3.46875 465.902344 3.65625 465.917969 3.878906 L 466.726562 28.140625 L 468.753906 17.503906 C 468.875 16.871094 469.441406 16.40625 470.078125 16.40625 C 470.609375 16.40625 471.074219 16.042969 471.195312 15.511719 L 471.898438 12.417969 C 471.96875 12.09375 472.257812 11.871094 472.601562 11.871094 C 472.945312 11.871094 473.222656 12.109375 473.289062 12.4375 L 474.476562 18.277344 C 474.476562 18.296875 474.476562 18.3125 474.511719 18.3125 C 474.542969 18.3125 474.542969 18.296875 474.542969 18.296875 L 475.851562 14.480469 C 475.972656 14.121094 476.296875 13.898438 476.675781 13.898438 C 477.054688 13.898438 477.363281 14.121094 477.5 14.480469 L 478.085938 16.148438 C 478.136719 16.300781 478.289062 16.421875 478.460938 16.421875 L 536.453125 16.421875 L 536.453125 17.179688 L 478.445312 17.179688 C 477.945312 17.179688 477.515625 16.871094 477.34375 16.40625 L 476.761719 14.738281 C 476.742188 14.671875 476.691406 14.671875 476.65625 14.671875 C 476.625 14.671875 476.570312 14.6875 476.554688 14.738281 L 475.25 18.554688 C 475.128906 18.898438 474.800781 19.121094 474.441406 19.085938 C 474.082031 19.070312 473.789062 18.8125 473.71875 18.449219 L 472.585938 12.847656 L 471.933594 15.699219 C 471.828125 16.113281 471.605469 16.492188 471.261719 16.765625 C 470.917969 17.042969 470.507812 17.179688 470.078125 17.179688 C 469.785156 17.179688 469.542969 17.386719 469.492188 17.660156 L 467.15625 30.082031 C 467.105469 30.339844 466.882812 30.53125 466.605469 30.53125 Z M 466.605469 30.53125 "/></g><g clip-rule="nonzero" clip-path="url(#6e654b64d8)"><path style=" stroke:none;fill-rule:nonzero;fill:#ff6d4d;fill-opacity:1;" d="M 554.453125 30.53125 C 554.4375 30.53125 554.421875 30.53125 554.402344 30.53125 C 554.109375 30.511719 553.90625 30.289062 553.886719 29.996094 L 553.113281 6.972656 L 550.796875 20.339844 C 550.742188 20.648438 550.484375 20.855469 550.175781 20.871094 C 549.867188 20.871094 549.609375 20.683594 549.539062 20.375 L 548.921875 17.640625 C 548.851562 17.351562 548.613281 17.160156 548.320312 17.160156 C 547.597656 17.160156 546.980469 16.644531 546.859375 15.941406 L 546.636719 14.617188 C 546.636719 14.601562 546.636719 14.585938 546.601562 14.585938 C 546.566406 14.585938 546.566406 14.601562 546.566406 14.617188 L 545.898438 18.640625 C 545.828125 19.070312 545.46875 19.359375 545.039062 19.34375 C 544.609375 19.34375 544.265625 19.035156 544.214844 18.605469 L 543.507812 13.039062 C 543.492188 12.898438 543.390625 12.867188 543.335938 12.867188 C 543.285156 12.867188 543.183594 12.867188 543.132812 12.984375 L 541.773438 16.320312 C 541.566406 16.835938 541.070312 17.160156 540.503906 17.160156 L 536.328125 17.160156 L 536.328125 16.40625 L 540.503906 16.40625 C 540.742188 16.40625 540.964844 16.25 541.070312 16.027344 L 542.425781 12.695312 C 542.597656 12.28125 542.992188 12.058594 543.441406 12.109375 C 543.871094 12.160156 544.214844 12.503906 544.265625 12.933594 L 544.96875 18.5 C 544.96875 18.519531 544.988281 18.570312 545.054688 18.585938 C 545.125 18.585938 545.140625 18.535156 545.140625 18.519531 L 545.8125 14.5 C 545.878906 14.101562 546.207031 13.828125 546.601562 13.828125 C 546.996094 13.828125 547.324219 14.101562 547.394531 14.480469 L 547.632812 15.804688 C 547.703125 16.148438 547.996094 16.40625 548.355469 16.40625 C 548.664062 16.40625 548.972656 16.507812 549.214844 16.714844 C 549.453125 16.902344 549.625 17.179688 549.695312 17.488281 L 550.140625 19.601562 L 552.890625 3.808594 C 552.925781 3.585938 553.132812 3.433594 553.355469 3.449219 C 553.578125 3.46875 553.75 3.65625 553.769531 3.878906 L 554.574219 28.140625 L 556.601562 17.503906 C 556.722656 16.871094 557.289062 16.40625 557.925781 16.40625 C 558.457031 16.40625 558.921875 16.042969 559.042969 15.511719 L 559.746094 12.417969 C 559.816406 12.09375 560.109375 11.871094 560.453125 11.871094 C 560.796875 11.871094 561.070312 12.109375 561.140625 12.4375 L 562.324219 18.277344 C 562.324219 18.296875 562.324219 18.3125 562.359375 18.3125 C 562.394531 18.3125 562.394531 18.296875 562.394531 18.296875 L 563.699219 14.480469 C 563.820312 14.121094 564.144531 13.898438 564.523438 13.898438 C 564.902344 13.898438 565.210938 14.121094 565.347656 14.480469 L 565.933594 16.148438 C 565.984375 16.300781 566.140625 16.421875 566.3125 16.421875 L 624.300781 16.421875 L 624.300781 17.179688 L 566.292969 17.179688 C 565.796875 17.179688 565.367188 16.871094 565.195312 16.40625 L 564.609375 14.738281 C 564.59375 14.671875 564.542969 14.671875 564.507812 14.671875 C 564.472656 14.671875 564.421875 14.6875 564.402344 14.738281 L 563.097656 18.554688 C 562.976562 18.898438 562.652344 19.121094 562.289062 19.085938 C 561.929688 19.070312 561.636719 18.8125 561.570312 18.449219 L 560.433594 12.847656 L 559.78125 15.699219 C 559.679688 16.113281 559.453125 16.492188 559.113281 16.765625 C 558.769531 17.042969 558.355469 17.179688 557.925781 17.179688 C 557.632812 17.179688 557.394531 17.386719 557.339844 17.660156 L 555.003906 30.082031 C 554.953125 30.339844 554.730469 30.53125 554.453125 30.53125 Z M 554.453125 30.53125 "/></g><g clip-rule="nonzero" clip-path="url(#5f84dcba05)"><path style=" stroke:none;fill-rule:nonzero;fill:#ff6d4d;fill-opacity:1;" d="M 642.570312 30.53125 C 642.554688 30.53125 642.535156 30.53125 642.519531 30.53125 C 642.226562 30.511719 642.019531 30.289062 642.003906 29.996094 L 641.230469 6.972656 L 638.910156 20.339844 C 638.859375 20.648438 638.601562 20.855469 638.292969 20.871094 C 637.984375 20.871094 637.726562 20.683594 637.65625 20.375 L 637.039062 17.640625 C 636.96875 17.351562 636.726562 17.160156 636.4375 17.160156 C 635.714844 17.160156 635.097656 16.644531 634.976562 15.941406 L 634.753906 14.617188 C 634.753906 14.601562 634.753906 14.585938 634.71875 14.585938 C 634.683594 14.585938 634.683594 14.601562 634.683594 14.617188 L 634.011719 18.640625 C 633.945312 19.070312 633.585938 19.359375 633.15625 19.34375 C 632.726562 19.34375 632.382812 19.035156 632.328125 18.605469 L 631.625 13.039062 C 631.609375 12.898438 631.503906 12.867188 631.453125 12.867188 C 631.402344 12.867188 631.296875 12.867188 631.246094 12.984375 L 629.890625 16.320312 C 629.683594 16.835938 629.183594 17.160156 628.617188 17.160156 L 624.441406 17.160156 L 624.441406 16.40625 L 628.617188 16.40625 C 628.859375 16.40625 629.082031 16.25 629.183594 16.027344 L 630.542969 12.695312 C 630.714844 12.28125 631.109375 12.058594 631.554688 12.109375 C 631.984375 12.160156 632.328125 12.503906 632.382812 12.933594 L 633.085938 18.5 C 633.085938 18.519531 633.101562 18.570312 633.171875 18.585938 C 633.242188 18.585938 633.257812 18.535156 633.257812 18.519531 L 633.925781 14.5 C 633.996094 14.101562 634.324219 13.828125 634.71875 13.828125 C 635.113281 13.828125 635.441406 14.101562 635.507812 14.480469 L 635.75 15.804688 C 635.816406 16.148438 636.109375 16.40625 636.46875 16.40625 C 636.78125 16.40625 637.089844 16.507812 637.328125 16.714844 C 637.570312 16.902344 637.742188 17.179688 637.8125 17.488281 L 638.257812 19.601562 L 641.007812 3.808594 C 641.042969 3.585938 641.246094 3.433594 641.472656 3.449219 C 641.695312 3.46875 641.867188 3.65625 641.882812 3.878906 L 642.691406 28.140625 L 644.71875 17.503906 C 644.839844 16.871094 645.40625 16.40625 646.042969 16.40625 C 646.574219 16.40625 647.039062 16.042969 647.160156 15.511719 L 647.863281 12.417969 C 647.929688 12.09375 648.222656 11.871094 648.566406 11.871094 C 648.910156 11.871094 649.1875 12.109375 649.253906 12.4375 L 650.441406 18.277344 C 650.441406 18.296875 650.441406 18.3125 650.472656 18.3125 C 650.507812 18.3125 650.507812 18.296875 650.507812 18.296875 L 651.816406 14.480469 C 651.933594 14.121094 652.261719 13.898438 652.640625 13.898438 C 653.015625 13.898438 653.328125 14.121094 653.464844 14.480469 L 654.046875 16.148438 C 654.101562 16.300781 654.253906 16.421875 654.425781 16.421875 L 712.417969 16.421875 L 712.417969 17.179688 L 654.410156 17.179688 C 653.910156 17.179688 653.480469 16.871094 653.308594 16.40625 L 652.726562 14.738281 C 652.707031 14.671875 652.65625 14.671875 652.621094 14.671875 C 652.589844 14.671875 652.535156 14.6875 652.519531 14.738281 L 651.214844 18.554688 C 651.09375 18.898438 650.765625 19.121094 650.40625 19.085938 C 650.046875 19.070312 649.753906 18.8125 649.683594 18.449219 L 648.550781 12.847656 L 647.898438 15.699219 C 647.792969 16.113281 647.570312 16.492188 647.226562 16.765625 C 646.882812 17.042969 646.472656 17.179688 646.042969 17.179688 C 645.75 17.179688 645.507812 17.386719 645.457031 17.660156 L 643.121094 30.082031 C 643.070312 30.339844 642.84375 30.53125 642.570312 30.53125 Z M 642.570312 30.53125 "/></g></g></svg>