<svg xmlns="http://www.w3.org/2000/svg" xmlns:xlink="http://www.w3.org/1999/xlink" width="2000" zoomAndPan="magnify" viewBox="0 0 1500 91.5" height="122" preserveAspectRatio="xMidYMid meet" version="1.2"><defs><clipPath id="5194b40e21"><path d="M 4.074219 9.101562 L 129.554688 9.101562 L 129.554688 81 L 4.074219 81 Z M 4.074219 9.101562 "/></clipPath><clipPath id="dc0221f0ba"><path d="M 129.257812 9.101562 L 362 9.101562 L 362 81 L 129.257812 81 Z M 129.257812 9.101562 "/></clipPath><clipPath id="1dfa77c22a"><path d="M 361.144531 9.101562 L 594 9.101562 L 594 81 L 361.144531 81 Z M 361.144531 9.101562 "/></clipPath><clipPath id="d569147c4c"><path d="M 593.738281 9.101562 L 826.628906 9.101562 L 826.628906 81 L 593.738281 81 Z M 593.738281 9.101562 "/></clipPath><clipPath id="c5710ec930"><path d="M 825.960938 9.101562 L 1058.851562 9.101562 L 1058.851562 81 L 825.960938 81 Z M 825.960938 9.101562 "/></clipPath><clipPath id="4745c681d4"><path d="M 1057.0625 9.101562 L 1289.953125 9.101562 L 1289.953125 81 L 1057.0625 81 Z M 1057.0625 9.101562 "/></clipPath><clipPath id="f3f83f43c7"><path d="M 1289.65625 9.101562 L 1495.921875 9.101562 L 1495.921875 81 L 1289.65625 81 Z M 1289.65625 9.101562 "/></clipPath></defs><g id="21147669fb"><g clip-rule="nonzero" clip-path="url(#5194b40e21)"><path style=" stroke:none;fill-rule:nonzero;fill:#ff6d4d;fill-opacity:1;" d="M -55.410156 80.824219 C -55.457031 80.824219 -55.503906 80.824219 -55.546875 80.824219 C -56.320312 80.777344 -56.867188 80.1875 -56.910156 79.414062 L -58.957031 18.542969 L -65.085938 53.886719 C -65.222656 54.703125 -65.90625 55.25 -66.722656 55.292969 C -67.539062 55.292969 -68.222656 54.792969 -68.402344 53.976562 L -70.039062 46.753906 C -70.222656 45.980469 -70.855469 45.480469 -71.628906 45.480469 C -73.539062 45.480469 -75.171875 44.117188 -75.492188 42.257812 L -76.082031 38.757812 C -76.082031 38.714844 -76.082031 38.667969 -76.171875 38.667969 C -76.261719 38.667969 -76.261719 38.714844 -76.261719 38.757812 L -78.035156 49.386719 C -78.214844 50.523438 -79.171875 51.296875 -80.304688 51.25 C -81.441406 51.25 -82.351562 50.433594 -82.484375 49.296875 L -84.347656 34.578125 C -84.394531 34.214844 -84.667969 34.125 -84.804688 34.125 C -84.9375 34.125 -85.210938 34.125 -85.347656 34.441406 L -88.9375 43.253906 C -89.480469 44.617188 -90.800781 45.480469 -92.296875 45.480469 L -103.335938 45.480469 L -103.335938 43.484375 L -92.296875 43.484375 C -91.664062 43.484375 -91.070312 43.074219 -90.800781 42.484375 L -87.210938 33.671875 C -86.757812 32.582031 -85.710938 31.988281 -84.53125 32.125 C -83.394531 32.261719 -82.484375 33.171875 -82.351562 34.304688 L -80.488281 49.023438 C -80.488281 49.070312 -80.441406 49.207031 -80.261719 49.253906 C -80.078125 49.253906 -80.03125 49.117188 -80.03125 49.070312 L -78.261719 38.441406 C -78.078125 37.394531 -77.214844 36.667969 -76.171875 36.667969 C -75.128906 36.667969 -74.265625 37.394531 -74.082031 38.394531 L -73.445312 41.894531 C -73.265625 42.800781 -72.492188 43.484375 -71.539062 43.484375 C -70.71875 43.484375 -69.902344 43.753906 -69.265625 44.300781 C -68.632812 44.800781 -68.175781 45.527344 -67.996094 46.34375 L -66.8125 51.933594 L -59.546875 10.183594 C -59.453125 9.59375 -58.910156 9.1875 -58.320312 9.230469 C -57.730469 9.277344 -57.273438 9.777344 -57.230469 10.367188 L -55.09375 74.507812 L -49.734375 46.390625 C -49.414062 44.710938 -47.917969 43.484375 -46.234375 43.484375 C -44.828125 43.484375 -43.601562 42.527344 -43.28125 41.121094 L -41.421875 32.945312 C -41.238281 32.082031 -40.464844 31.488281 -39.558594 31.488281 C -38.648438 31.488281 -37.921875 32.125 -37.742188 32.988281 L -34.605469 48.433594 C -34.605469 48.480469 -34.605469 48.523438 -34.515625 48.523438 C -34.425781 48.523438 -34.425781 48.480469 -34.425781 48.480469 L -30.972656 38.394531 C -30.65625 37.441406 -29.792969 36.851562 -28.792969 36.851562 C -27.792969 36.851562 -26.976562 37.441406 -26.613281 38.394531 L -25.066406 42.800781 C -24.929688 43.210938 -24.523438 43.527344 -24.066406 43.527344 L 129.246094 43.527344 L 129.246094 45.527344 L -24.113281 45.527344 C -25.429688 45.527344 -26.566406 44.710938 -27.019531 43.484375 L -28.566406 39.078125 C -28.609375 38.894531 -28.746094 38.894531 -28.835938 38.894531 C -28.929688 38.894531 -29.066406 38.941406 -29.109375 39.078125 L -32.5625 49.160156 C -32.878906 50.070312 -33.742188 50.660156 -34.699219 50.570312 C -35.652344 50.523438 -36.421875 49.84375 -36.605469 48.886719 L -39.601562 34.078125 L -41.328125 41.621094 C -41.601562 42.710938 -42.191406 43.710938 -43.101562 44.4375 C -44.011719 45.164062 -45.101562 45.527344 -46.234375 45.527344 C -47.007812 45.527344 -47.644531 46.070312 -47.78125 46.800781 L -53.957031 79.640625 C -54.09375 80.324219 -54.683594 80.824219 -55.410156 80.824219 Z M -55.410156 80.824219 "/></g><g clip-rule="nonzero" clip-path="url(#dc0221f0ba)"><path style=" stroke:none;fill-rule:nonzero;fill:#ff6d4d;fill-opacity:1;" d="M 177.179688 80.824219 C 177.136719 80.824219 177.089844 80.824219 177.046875 80.824219 C 176.273438 80.777344 175.726562 80.1875 175.683594 79.414062 L 173.636719 18.542969 L 167.503906 53.886719 C 167.371094 54.703125 166.6875 55.25 165.871094 55.292969 C 165.050781 55.292969 164.371094 54.792969 164.1875 53.976562 L 162.554688 46.753906 C 162.371094 45.980469 161.734375 45.480469 160.964844 45.480469 C 159.054688 45.480469 157.421875 44.117188 157.101562 42.257812 L 156.511719 38.757812 C 156.511719 38.714844 156.511719 38.667969 156.421875 38.667969 C 156.332031 38.667969 156.332031 38.714844 156.332031 38.757812 L 154.558594 49.386719 C 154.378906 50.523438 153.421875 51.296875 152.289062 51.25 C 151.152344 51.25 150.242188 50.433594 150.105469 49.296875 L 148.246094 34.578125 C 148.199219 34.214844 147.925781 34.125 147.789062 34.125 C 147.652344 34.125 147.382812 34.125 147.246094 34.441406 L 143.65625 43.253906 C 143.113281 44.617188 141.792969 45.480469 140.292969 45.480469 L 129.257812 45.480469 L 129.257812 43.484375 L 140.292969 43.484375 C 140.929688 43.484375 141.519531 43.074219 141.792969 42.484375 L 145.382812 33.671875 C 145.835938 32.582031 146.882812 31.988281 148.0625 32.125 C 149.199219 32.261719 150.105469 33.171875 150.242188 34.304688 L 152.105469 49.023438 C 152.105469 49.070312 152.152344 49.207031 152.332031 49.253906 C 152.515625 49.253906 152.558594 49.117188 152.558594 49.070312 L 154.332031 38.441406 C 154.511719 37.394531 155.375 36.667969 156.421875 36.667969 C 157.464844 36.667969 158.328125 37.394531 158.511719 38.394531 L 159.148438 41.894531 C 159.328125 42.800781 160.101562 43.484375 161.054688 43.484375 C 161.871094 43.484375 162.691406 43.753906 163.328125 44.300781 C 163.960938 44.800781 164.417969 45.527344 164.597656 46.34375 L 165.777344 51.933594 L 173.046875 10.183594 C 173.136719 9.59375 173.683594 9.1875 174.273438 9.230469 C 174.863281 9.277344 175.320312 9.777344 175.363281 10.367188 L 177.5 74.507812 L 182.859375 46.390625 C 183.175781 44.710938 184.675781 43.484375 186.359375 43.484375 C 187.765625 43.484375 188.992188 42.527344 189.308594 41.121094 L 191.171875 32.945312 C 191.355469 32.082031 192.125 31.488281 193.035156 31.488281 C 193.945312 31.488281 194.671875 32.125 194.851562 32.988281 L 197.988281 48.433594 C 197.988281 48.480469 197.988281 48.523438 198.078125 48.523438 C 198.167969 48.523438 198.167969 48.480469 198.167969 48.480469 L 201.621094 38.394531 C 201.9375 37.441406 202.800781 36.851562 203.800781 36.851562 C 204.800781 36.851562 205.617188 37.441406 205.980469 38.394531 L 207.527344 42.800781 C 207.664062 43.210938 208.070312 43.527344 208.527344 43.527344 L 361.839844 43.527344 L 361.839844 45.527344 L 208.480469 45.527344 C 207.164062 45.527344 206.027344 44.710938 205.574219 43.484375 L 204.027344 39.078125 C 203.984375 38.894531 203.847656 38.894531 203.753906 38.894531 C 203.664062 38.894531 203.527344 38.941406 203.484375 39.078125 L 200.03125 49.160156 C 199.710938 50.070312 198.851562 50.660156 197.894531 50.570312 C 196.941406 50.523438 196.167969 49.84375 195.988281 48.886719 L 192.988281 34.078125 L 191.261719 41.621094 C 190.992188 42.710938 190.402344 43.710938 189.492188 44.4375 C 188.582031 45.164062 187.492188 45.527344 186.359375 45.527344 C 185.585938 45.527344 184.949219 46.070312 184.8125 46.800781 L 178.636719 79.640625 C 178.5 80.324219 177.90625 80.824219 177.179688 80.824219 Z M 177.179688 80.824219 "/></g><g clip-rule="nonzero" clip-path="url(#1dfa77c22a)"><path style=" stroke:none;fill-rule:nonzero;fill:#ff6d4d;fill-opacity:1;" d="M 409.070312 80.824219 C 409.023438 80.824219 408.980469 80.824219 408.933594 80.824219 C 408.160156 80.777344 407.617188 80.1875 407.570312 79.414062 L 405.527344 18.542969 L 399.394531 53.886719 C 399.257812 54.703125 398.578125 55.25 397.757812 55.292969 C 396.941406 55.292969 396.257812 54.792969 396.078125 53.976562 L 394.441406 46.753906 C 394.261719 45.980469 393.625 45.480469 392.851562 45.480469 C 390.945312 45.480469 389.308594 44.117188 388.992188 42.257812 L 388.402344 38.757812 C 388.402344 38.714844 388.402344 38.667969 388.308594 38.667969 C 388.21875 38.667969 388.21875 38.714844 388.21875 38.757812 L 386.449219 49.386719 C 386.265625 50.523438 385.3125 51.296875 384.175781 51.25 C 383.039062 51.25 382.132812 50.433594 381.996094 49.296875 L 380.132812 34.578125 C 380.085938 34.214844 379.816406 34.125 379.679688 34.125 C 379.542969 34.125 379.269531 34.125 379.132812 34.441406 L 375.542969 43.253906 C 375 44.617188 373.683594 45.480469 372.183594 45.480469 L 361.144531 45.480469 L 361.144531 43.484375 L 372.183594 43.484375 C 372.820312 43.484375 373.410156 43.074219 373.683594 42.484375 L 377.269531 33.671875 C 377.726562 32.582031 378.769531 31.988281 379.953125 32.125 C 381.085938 32.261719 381.996094 33.171875 382.132812 34.304688 L 383.996094 49.023438 C 383.996094 49.070312 384.039062 49.207031 384.222656 49.253906 C 384.402344 49.253906 384.449219 49.117188 384.449219 49.070312 L 386.21875 38.441406 C 386.402344 37.394531 387.265625 36.667969 388.308594 36.667969 C 389.355469 36.667969 390.21875 37.394531 390.398438 38.394531 L 391.035156 41.894531 C 391.21875 42.800781 391.988281 43.484375 392.941406 43.484375 C 393.761719 43.484375 394.578125 43.753906 395.214844 44.300781 C 395.851562 44.800781 396.304688 45.527344 396.488281 46.34375 L 397.667969 51.933594 L 404.9375 10.183594 C 405.027344 9.59375 405.570312 9.1875 406.164062 9.230469 C 406.753906 9.277344 407.207031 9.777344 407.253906 10.367188 L 409.386719 74.507812 L 414.746094 46.390625 C 415.066406 44.710938 416.566406 43.484375 418.246094 43.484375 C 419.652344 43.484375 420.878906 42.527344 421.199219 41.121094 L 423.0625 32.945312 C 423.242188 32.082031 424.015625 31.488281 424.921875 31.488281 C 425.832031 31.488281 426.558594 32.125 426.742188 32.988281 L 429.875 48.433594 C 429.875 48.480469 429.875 48.523438 429.964844 48.523438 C 430.058594 48.523438 430.058594 48.480469 430.058594 48.480469 L 433.507812 38.394531 C 433.828125 37.441406 434.691406 36.851562 435.691406 36.851562 C 436.6875 36.851562 437.507812 37.441406 437.871094 38.394531 L 439.414062 42.800781 C 439.550781 43.210938 439.960938 43.527344 440.414062 43.527344 L 593.730469 43.527344 L 593.730469 45.527344 L 440.367188 45.527344 C 439.050781 45.527344 437.914062 44.710938 437.460938 43.484375 L 435.917969 39.078125 C 435.871094 38.894531 435.734375 38.894531 435.644531 38.894531 C 435.554688 38.894531 435.417969 38.941406 435.371094 39.078125 L 431.917969 49.160156 C 431.601562 50.070312 430.738281 50.660156 429.785156 50.570312 C 428.832031 50.523438 428.058594 49.84375 427.875 48.886719 L 424.878906 34.078125 L 423.152344 41.621094 C 422.878906 42.710938 422.289062 43.710938 421.378906 44.4375 C 420.472656 45.164062 419.382812 45.527344 418.246094 45.527344 C 417.472656 45.527344 416.835938 46.070312 416.703125 46.800781 L 410.523438 79.640625 C 410.386719 80.324219 409.796875 80.824219 409.070312 80.824219 Z M 409.070312 80.824219 "/></g><g clip-rule="nonzero" clip-path="url(#d569147c4c)"><path style=" stroke:none;fill-rule:nonzero;fill:#ff6d4d;fill-opacity:1;" d="M 641.664062 80.824219 C 641.617188 80.824219 641.570312 80.824219 641.527344 80.824219 C 640.753906 80.777344 640.210938 80.1875 640.164062 79.414062 L 638.121094 18.542969 L 631.988281 53.886719 C 631.851562 54.703125 631.167969 55.25 630.351562 55.292969 C 629.535156 55.292969 628.851562 54.792969 628.671875 53.976562 L 627.035156 46.753906 C 626.855469 45.980469 626.21875 45.480469 625.445312 45.480469 C 623.539062 45.480469 621.902344 44.117188 621.585938 42.257812 L 620.992188 38.757812 C 620.992188 38.714844 620.992188 38.667969 620.902344 38.667969 C 620.8125 38.667969 620.8125 38.714844 620.8125 38.757812 L 619.039062 49.386719 C 618.859375 50.523438 617.90625 51.296875 616.769531 51.25 C 615.632812 51.25 614.726562 50.433594 614.589844 49.296875 L 612.726562 34.578125 C 612.679688 34.214844 612.410156 34.125 612.273438 34.125 C 612.136719 34.125 611.863281 34.125 611.726562 34.441406 L 608.136719 43.253906 C 607.59375 44.617188 606.277344 45.480469 604.777344 45.480469 L 593.738281 45.480469 L 593.738281 43.484375 L 604.777344 43.484375 C 605.414062 43.484375 606.003906 43.074219 606.277344 42.484375 L 609.863281 33.671875 C 610.320312 32.582031 611.363281 31.988281 612.542969 32.125 C 613.679688 32.261719 614.589844 33.171875 614.726562 34.304688 L 616.585938 49.023438 C 616.585938 49.070312 616.632812 49.207031 616.816406 49.253906 C 616.996094 49.253906 617.042969 49.117188 617.042969 49.070312 L 618.8125 38.441406 C 618.996094 37.394531 619.859375 36.667969 620.902344 36.667969 C 621.949219 36.667969 622.8125 37.394531 622.992188 38.394531 L 623.628906 41.894531 C 623.808594 42.800781 624.582031 43.484375 625.535156 43.484375 C 626.355469 43.484375 627.171875 43.753906 627.808594 44.300781 C 628.445312 44.800781 628.898438 45.527344 629.078125 46.34375 L 630.261719 51.933594 L 637.527344 10.183594 C 637.621094 9.59375 638.164062 9.1875 638.753906 9.230469 C 639.347656 9.277344 639.800781 9.777344 639.847656 10.367188 L 641.980469 74.507812 L 647.339844 46.390625 C 647.660156 44.710938 649.160156 43.484375 650.839844 43.484375 C 652.246094 43.484375 653.472656 42.527344 653.792969 41.121094 L 655.65625 32.945312 C 655.835938 32.082031 656.609375 31.488281 657.515625 31.488281 C 658.425781 31.488281 659.152344 32.125 659.332031 32.988281 L 662.46875 48.433594 C 662.46875 48.480469 662.46875 48.523438 662.558594 48.523438 C 662.648438 48.523438 662.648438 48.480469 662.648438 48.480469 L 666.101562 38.394531 C 666.421875 37.441406 667.285156 36.851562 668.28125 36.851562 C 669.28125 36.851562 670.101562 37.441406 670.464844 38.394531 L 672.007812 42.800781 C 672.144531 43.210938 672.554688 43.527344 673.007812 43.527344 L 826.320312 43.527344 L 826.320312 45.527344 L 672.960938 45.527344 C 671.644531 45.527344 670.507812 44.710938 670.054688 43.484375 L 668.511719 39.078125 C 668.464844 38.894531 668.328125 38.894531 668.238281 38.894531 C 668.148438 38.894531 668.011719 38.941406 667.964844 39.078125 L 664.511719 49.160156 C 664.195312 50.070312 663.332031 50.660156 662.378906 50.570312 C 661.421875 50.523438 660.652344 49.84375 660.46875 48.886719 L 657.472656 34.078125 L 655.746094 41.621094 C 655.472656 42.710938 654.882812 43.710938 653.972656 44.4375 C 653.066406 45.164062 651.976562 45.527344 650.839844 45.527344 C 650.066406 45.527344 649.429688 46.070312 649.292969 46.800781 L 643.117188 79.640625 C 642.980469 80.324219 642.390625 80.824219 641.664062 80.824219 Z M 641.664062 80.824219 "/></g><g clip-rule="nonzero" clip-path="url(#c5710ec930)"><path style=" stroke:none;fill-rule:nonzero;fill:#ff6d4d;fill-opacity:1;" d="M 873.886719 80.824219 C 873.839844 80.824219 873.792969 80.824219 873.75 80.824219 C 872.976562 80.777344 872.429688 80.1875 872.386719 79.414062 L 870.339844 18.542969 L 864.210938 53.886719 C 864.074219 54.703125 863.390625 55.25 862.574219 55.292969 C 861.757812 55.292969 861.074219 54.792969 860.894531 53.976562 L 859.257812 46.753906 C 859.074219 45.980469 858.441406 45.480469 857.667969 45.480469 C 855.757812 45.480469 854.125 44.117188 853.804688 42.257812 L 853.214844 38.757812 C 853.214844 38.714844 853.214844 38.667969 853.125 38.667969 C 853.035156 38.667969 853.035156 38.714844 853.035156 38.757812 L 851.261719 49.386719 C 851.082031 50.523438 850.125 51.296875 848.992188 51.25 C 847.855469 51.25 846.945312 50.433594 846.8125 49.296875 L 844.949219 34.578125 C 844.902344 34.214844 844.628906 34.125 844.492188 34.125 C 844.359375 34.125 844.085938 34.125 843.949219 34.441406 L 840.359375 43.253906 C 839.816406 44.617188 838.496094 45.480469 837 45.480469 L 825.960938 45.480469 L 825.960938 43.484375 L 837 43.484375 C 837.632812 43.484375 838.226562 43.074219 838.496094 42.484375 L 842.085938 33.671875 C 842.539062 32.582031 843.585938 31.988281 844.765625 32.125 C 845.902344 32.261719 846.8125 33.171875 846.945312 34.304688 L 848.808594 49.023438 C 848.808594 49.070312 848.855469 49.207031 849.035156 49.253906 C 849.21875 49.253906 849.261719 49.117188 849.261719 49.070312 L 851.035156 38.441406 C 851.21875 37.394531 852.082031 36.667969 853.125 36.667969 C 854.167969 36.667969 855.03125 37.394531 855.214844 38.394531 L 855.851562 41.894531 C 856.03125 42.800781 856.804688 43.484375 857.757812 43.484375 C 858.574219 43.484375 859.394531 43.753906 860.03125 44.300781 C 860.664062 44.800781 861.121094 45.527344 861.300781 46.34375 L 862.484375 51.933594 L 869.75 10.183594 C 869.84375 9.59375 870.386719 9.1875 870.976562 9.230469 C 871.566406 9.277344 872.023438 9.777344 872.066406 10.367188 L 874.203125 74.507812 L 879.5625 46.390625 C 879.882812 44.710938 881.378906 43.484375 883.0625 43.484375 C 884.46875 43.484375 885.695312 42.527344 886.015625 41.121094 L 887.875 32.945312 C 888.058594 32.082031 888.832031 31.488281 889.738281 31.488281 C 890.648438 31.488281 891.375 32.125 891.554688 32.988281 L 894.691406 48.433594 C 894.691406 48.480469 894.691406 48.523438 894.78125 48.523438 C 894.871094 48.523438 894.871094 48.480469 894.871094 48.480469 L 898.324219 38.394531 C 898.640625 37.441406 899.503906 36.851562 900.503906 36.851562 C 901.503906 36.851562 902.320312 37.441406 902.683594 38.394531 L 904.230469 42.800781 C 904.367188 43.210938 904.773438 43.527344 905.230469 43.527344 L 1058.542969 43.527344 L 1058.542969 45.527344 L 905.183594 45.527344 C 903.867188 45.527344 902.730469 44.710938 902.277344 43.484375 L 900.730469 39.078125 C 900.6875 38.894531 900.550781 38.894531 900.460938 38.894531 C 900.367188 38.894531 900.230469 38.941406 900.1875 39.078125 L 896.734375 49.160156 C 896.417969 50.070312 895.554688 50.660156 894.597656 50.570312 C 893.644531 50.523438 892.875 49.84375 892.691406 48.886719 L 889.691406 34.078125 L 887.96875 41.621094 C 887.695312 42.710938 887.105469 43.710938 886.195312 44.4375 C 885.285156 45.164062 884.195312 45.527344 883.0625 45.527344 C 882.289062 45.527344 881.652344 46.070312 881.515625 46.800781 L 875.339844 79.640625 C 875.203125 80.324219 874.613281 80.824219 873.886719 80.824219 Z M 873.886719 80.824219 "/></g><g clip-rule="nonzero" clip-path="url(#4745c681d4)"><path style=" stroke:none;fill-rule:nonzero;fill:#ff6d4d;fill-opacity:1;" d="M 1104.984375 80.824219 C 1104.941406 80.824219 1104.894531 80.824219 1104.851562 80.824219 C 1104.078125 80.777344 1103.53125 80.1875 1103.488281 79.414062 L 1101.441406 18.542969 L 1095.308594 53.886719 C 1095.175781 54.703125 1094.492188 55.25 1093.675781 55.292969 C 1092.855469 55.292969 1092.175781 54.792969 1091.996094 53.976562 L 1090.359375 46.753906 C 1090.175781 45.980469 1089.542969 45.480469 1088.769531 45.480469 C 1086.859375 45.480469 1085.226562 44.117188 1084.90625 42.257812 L 1084.316406 38.757812 C 1084.316406 38.714844 1084.316406 38.667969 1084.226562 38.667969 C 1084.136719 38.667969 1084.136719 38.714844 1084.136719 38.757812 L 1082.363281 49.386719 C 1082.183594 50.523438 1081.226562 51.296875 1080.09375 51.25 C 1078.957031 51.25 1078.046875 50.433594 1077.910156 49.296875 L 1076.050781 34.578125 C 1076.003906 34.214844 1075.730469 34.125 1075.59375 34.125 C 1075.457031 34.125 1075.1875 34.125 1075.050781 34.441406 L 1071.460938 43.253906 C 1070.917969 44.617188 1069.597656 45.480469 1068.101562 45.480469 L 1057.0625 45.480469 L 1057.0625 43.484375 L 1068.101562 43.484375 C 1068.734375 43.484375 1069.328125 43.074219 1069.597656 42.484375 L 1073.1875 33.671875 C 1073.640625 32.582031 1074.6875 31.988281 1075.867188 32.125 C 1077.003906 32.261719 1077.910156 33.171875 1078.046875 34.304688 L 1079.910156 49.023438 C 1079.910156 49.070312 1079.957031 49.207031 1080.136719 49.253906 C 1080.320312 49.253906 1080.363281 49.117188 1080.363281 49.070312 L 1082.136719 38.441406 C 1082.316406 37.394531 1083.179688 36.667969 1084.226562 36.667969 C 1085.269531 36.667969 1086.132812 37.394531 1086.316406 38.394531 L 1086.953125 41.894531 C 1087.132812 42.800781 1087.90625 43.484375 1088.859375 43.484375 C 1089.675781 43.484375 1090.496094 43.753906 1091.132812 44.300781 C 1091.765625 44.800781 1092.222656 45.527344 1092.402344 46.34375 L 1093.585938 51.933594 L 1100.851562 10.183594 C 1100.941406 9.59375 1101.488281 9.1875 1102.078125 9.230469 C 1102.667969 9.277344 1103.125 9.777344 1103.167969 10.367188 L 1105.304688 74.507812 L 1110.664062 46.390625 C 1110.984375 44.710938 1112.480469 43.484375 1114.164062 43.484375 C 1115.570312 43.484375 1116.796875 42.527344 1117.113281 41.121094 L 1118.976562 32.945312 C 1119.160156 32.082031 1119.929688 31.488281 1120.839844 31.488281 C 1121.75 31.488281 1122.476562 32.125 1122.65625 32.988281 L 1125.792969 48.433594 C 1125.792969 48.480469 1125.792969 48.523438 1125.882812 48.523438 C 1125.972656 48.523438 1125.972656 48.480469 1125.972656 48.480469 L 1129.425781 38.394531 C 1129.742188 37.441406 1130.605469 36.851562 1131.605469 36.851562 C 1132.605469 36.851562 1133.421875 37.441406 1133.785156 38.394531 L 1135.332031 42.800781 C 1135.46875 43.210938 1135.875 43.527344 1136.332031 43.527344 L 1289.644531 43.527344 L 1289.644531 45.527344 L 1136.285156 45.527344 C 1134.96875 45.527344 1133.832031 44.710938 1133.378906 43.484375 L 1131.832031 39.078125 C 1131.789062 38.894531 1131.652344 38.894531 1131.5625 38.894531 C 1131.46875 38.894531 1131.332031 38.941406 1131.289062 39.078125 L 1127.835938 49.160156 C 1127.519531 50.070312 1126.65625 50.660156 1125.699219 50.570312 C 1124.746094 50.523438 1123.972656 49.84375 1123.792969 48.886719 L 1120.792969 34.078125 L 1119.070312 41.621094 C 1118.796875 42.710938 1118.207031 43.710938 1117.296875 44.4375 C 1116.386719 45.164062 1115.296875 45.527344 1114.164062 45.527344 C 1113.390625 45.527344 1112.753906 46.070312 1112.617188 46.800781 L 1106.441406 79.640625 C 1106.304688 80.324219 1105.714844 80.824219 1104.984375 80.824219 Z M 1104.984375 80.824219 "/></g><g clip-rule="nonzero" clip-path="url(#f3f83f43c7)"><path style=" stroke:none;fill-rule:nonzero;fill:#ff6d4d;fill-opacity:1;" d="M 1337.578125 80.824219 C 1337.535156 80.824219 1337.488281 80.824219 1337.441406 80.824219 C 1336.671875 80.777344 1336.125 80.1875 1336.082031 79.414062 L 1334.035156 18.542969 L 1327.902344 53.886719 C 1327.765625 54.703125 1327.085938 55.25 1326.269531 55.292969 C 1325.449219 55.292969 1324.769531 54.792969 1324.585938 53.976562 L 1322.953125 46.753906 C 1322.769531 45.980469 1322.132812 45.480469 1321.363281 45.480469 C 1319.453125 45.480469 1317.820312 44.117188 1317.5 42.257812 L 1316.910156 38.757812 C 1316.910156 38.714844 1316.910156 38.667969 1316.820312 38.667969 C 1316.730469 38.667969 1316.730469 38.714844 1316.730469 38.757812 L 1314.957031 49.386719 C 1314.773438 50.523438 1313.820312 51.296875 1312.6875 51.25 C 1311.550781 51.25 1310.640625 50.433594 1310.503906 49.296875 L 1308.644531 34.578125 C 1308.597656 34.214844 1308.324219 34.125 1308.1875 34.125 C 1308.050781 34.125 1307.78125 34.125 1307.644531 34.441406 L 1304.054688 43.253906 C 1303.507812 44.617188 1302.191406 45.480469 1300.691406 45.480469 L 1289.65625 45.480469 L 1289.65625 43.484375 L 1300.691406 43.484375 C 1301.328125 43.484375 1301.917969 43.074219 1302.191406 42.484375 L 1305.78125 33.671875 C 1306.234375 32.582031 1307.28125 31.988281 1308.460938 32.125 C 1309.597656 32.261719 1310.503906 33.171875 1310.640625 34.304688 L 1312.503906 49.023438 C 1312.503906 49.070312 1312.550781 49.207031 1312.730469 49.253906 C 1312.914062 49.253906 1312.957031 49.117188 1312.957031 49.070312 L 1314.730469 38.441406 C 1314.910156 37.394531 1315.773438 36.667969 1316.820312 36.667969 C 1317.863281 36.667969 1318.726562 37.394531 1318.910156 38.394531 L 1319.546875 41.894531 C 1319.726562 42.800781 1320.5 43.484375 1321.453125 43.484375 C 1322.269531 43.484375 1323.089844 43.753906 1323.722656 44.300781 C 1324.359375 44.800781 1324.816406 45.527344 1324.996094 46.34375 L 1326.175781 51.933594 L 1333.445312 10.183594 C 1333.535156 9.59375 1334.082031 9.1875 1334.671875 9.230469 C 1335.261719 9.277344 1335.71875 9.777344 1335.761719 10.367188 L 1337.898438 74.507812 L 1343.257812 46.390625 C 1343.574219 44.710938 1345.074219 43.484375 1346.753906 43.484375 C 1348.164062 43.484375 1349.390625 42.527344 1349.707031 41.121094 L 1351.570312 32.945312 C 1351.753906 32.082031 1352.523438 31.488281 1353.433594 31.488281 C 1354.34375 31.488281 1355.070312 32.125 1355.25 32.988281 L 1358.386719 48.433594 C 1358.386719 48.480469 1358.386719 48.523438 1358.476562 48.523438 C 1358.566406 48.523438 1358.566406 48.480469 1358.566406 48.480469 L 1362.019531 38.394531 C 1362.335938 37.441406 1363.199219 36.851562 1364.199219 36.851562 C 1365.199219 36.851562 1366.015625 37.441406 1366.378906 38.394531 L 1367.925781 42.800781 C 1368.0625 43.210938 1368.46875 43.527344 1368.921875 43.527344 L 1522.238281 43.527344 L 1522.238281 45.527344 L 1368.878906 45.527344 C 1367.5625 45.527344 1366.425781 44.710938 1365.972656 43.484375 L 1364.425781 39.078125 C 1364.382812 38.894531 1364.246094 38.894531 1364.152344 38.894531 C 1364.0625 38.894531 1363.925781 38.941406 1363.882812 39.078125 L 1360.429688 49.160156 C 1360.109375 50.070312 1359.246094 50.660156 1358.292969 50.570312 C 1357.339844 50.523438 1356.566406 49.84375 1356.386719 48.886719 L 1353.386719 34.078125 L 1351.660156 41.621094 C 1351.390625 42.710938 1350.796875 43.710938 1349.890625 44.4375 C 1348.980469 45.164062 1347.890625 45.527344 1346.753906 45.527344 C 1345.984375 45.527344 1345.347656 46.070312 1345.210938 46.800781 L 1339.03125 79.640625 C 1338.898438 80.324219 1338.304688 80.824219 1337.578125 80.824219 Z M 1337.578125 80.824219 "/></g></g></svg>