<svg xmlns="http://www.w3.org/2000/svg" xmlns:xlink="http://www.w3.org/1999/xlink" width="97" zoomAndPan="magnify" viewBox="0 0 72.75 72.749999" height="97" preserveAspectRatio="xMidYMid meet" version="1.2">
  <defs/>
  <g id="77fc8fa852">
    <path style=" stroke:none;fill-rule:nonzero;fill:#ffffff;fill-opacity:1;" d="M 50.738281 31.570312 C 51.394531 27.195312 48.0625 24.84375 43.511719 23.277344 L 44.988281 17.355469 L 41.382812 16.457031 L 39.945312 22.222656 C 38.996094 21.988281 38.023438 21.761719 37.054688 21.542969 L 38.503906 15.738281 L 34.902344 14.839844 L 33.421875 20.761719 C 32.640625 20.582031 31.867188 20.40625 31.121094 20.21875 L 31.125 20.199219 L 26.152344 18.960938 L 25.195312 22.808594 C 25.195312 22.808594 27.867188 23.421875 27.8125 23.460938 C 29.273438 23.824219 29.535156 24.792969 29.492188 25.558594 L 27.808594 32.304688 C 27.910156 32.332031 28.042969 32.367188 28.183594 32.425781 C 28.066406 32.394531 27.9375 32.363281 27.804688 32.332031 L 25.445312 41.785156 C 25.265625 42.226562 24.816406 42.894531 23.792969 42.640625 C 23.828125 42.691406 21.171875 41.988281 21.171875 41.988281 L 19.382812 46.113281 L 24.074219 47.285156 C 24.949219 47.503906 25.804688 47.730469 26.644531 47.945312 L 25.152344 53.9375 L 28.753906 54.835938 L 30.234375 48.910156 C 31.214844 49.175781 32.171875 49.421875 33.105469 49.65625 L 31.632812 55.554688 L 35.238281 56.453125 L 36.730469 50.472656 C 42.878906 51.636719 47.503906 51.167969 49.449219 45.605469 C 51.015625 41.128906 49.371094 38.546875 46.136719 36.863281 C 48.492188 36.320312 50.265625 34.769531 50.738281 31.570312 Z M 42.5 43.121094 C 41.386719 47.597656 33.847656 45.175781 31.40625 44.570312 L 33.382812 36.632812 C 35.828125 37.242188 43.664062 38.449219 42.5 43.121094 Z M 43.617188 31.503906 C 42.601562 35.578125 36.324219 33.507812 34.289062 33 L 36.085938 25.800781 C 38.121094 26.308594 44.675781 27.253906 43.617188 31.503906 Z M 43.617188 31.503906 "/>
  </g>
</svg>
