<svg xmlns="http://www.w3.org/2000/svg" xmlns:xlink="http://www.w3.org/1999/xlink" width="500" zoomAndPan="magnify" viewBox="0 0 375 374.999991" height="500" preserveAspectRatio="xMidYMid meet" version="1.2"><defs><clipPath id="d9dd224392"><path d="M 173.023438 166 L 303 166 L 303 281.476562 L 173.023438 281.476562 Z M 173.023438 166 "/></clipPath></defs><g id="b503a2891d"><path style=" stroke:none;fill-rule:evenodd;fill:#000000;fill-opacity:1;" d="M 254.765625 164.242188 C 253.304688 162.777344 251.558594 161.589844 249.933594 160.304688 C 247.253906 166.398438 244.664062 172.273438 242.074219 178.152344 C 243.164062 172.277344 244.5 166.523438 245.734375 160.738281 C 246.488281 157.230469 246.09375 156.5 243.242188 154.804688 C 238.695312 163.527344 234.132812 172.261719 229.566406 181 C 229.367188 180.902344 229.167969 180.8125 228.964844 180.714844 C 229.039062 180.425781 229.066406 180.121094 229.195312 179.847656 C 235.449219 165.921875 238.832031 151.261719 240.339844 136.132812 C 240.472656 134.875 240.25 134.0625 239.179688 133.289062 C 235.746094 130.832031 232.425781 128.210938 228.996094 125.75 C 227.976562 125.023438 227.800781 124.394531 228.027344 123.140625 C 229.113281 117.054688 230.316406 110.960938 230.898438 104.808594 C 231.566406 97.761719 231.703125 90.660156 231.921875 83.578125 C 232.058594 78.890625 231.941406 74.203125 231.886719 69.511719 C 231.878906 69.089844 231.519531 68.335938 231.253906 68.304688 C 229.507812 68.140625 229.171875 66.746094 228.636719 65.515625 C 216.253906 37.027344 182.707031 31.09375 160.882812 48.097656 C 159.589844 49.105469 158.359375 50.1875 157.089844 51.230469 C 162.078125 48.214844 167.578125 46.996094 173.125 45.890625 C 171.609375 46.835938 170.015625 47.601562 168.472656 48.46875 C 166.863281 49.375 165.296875 50.351562 163.773438 51.386719 C 162.378906 52.347656 161.097656 53.445312 159.757812 54.480469 C 159.828125 54.558594 159.898438 54.628906 159.960938 54.707031 C 162.125 54.207031 164.28125 53.714844 166.433594 53.21875 C 166.164062 53.710938 165.800781 53.972656 165.421875 54.21875 C 159.691406 57.992188 153.941406 61.742188 148.238281 65.554688 C 147.328125 66.167969 146.628906 67.105469 145.484375 68.226562 C 166.472656 66.449219 204.027344 66.65625 206.972656 68.222656 C 191.410156 68.953125 175.339844 69.71875 159.261719 70.46875 C 159.25 70.71875 159.230469 70.972656 159.222656 71.21875 C 168.425781 72.59375 177.636719 73.960938 186.429688 75.265625 C 171.960938 76.421875 157.238281 76.078125 143.042969 70.464844 C 142.667969 74.480469 142.644531 74.578125 146.257812 75.46875 C 151.378906 76.722656 156.535156 77.8125 161.667969 78.988281 C 163.800781 79.480469 165.929688 79.996094 168.058594 80.496094 C 168.039062 80.671875 168.015625 80.847656 167.992188 81.015625 L 152.476562 81.015625 C 152.4375 81.277344 152.410156 81.527344 152.378906 81.785156 C 160.300781 83.445312 168.222656 85.105469 176.140625 86.769531 C 166.195312 86.890625 156.394531 85.910156 146.78125 83.300781 C 144.253906 82.617188 142.382812 81.675781 142.945312 78.59375 C 142.960938 78.507812 142.804688 78.386719 142.65625 78.167969 C 141.871094 78.269531 141.027344 78.339844 140.191406 78.484375 C 132.628906 79.773438 125.042969 80.882812 117.355469 79.796875 C 110.800781 78.875 104.929688 76.71875 101.707031 69.542969 C 99.207031 75.324219 96.890625 80.664062 94.5625 86.035156 C 102.46875 90.128906 110.367188 92.109375 118.789062 91.925781 C 127.085938 91.734375 135.011719 89.746094 142.820312 87.027344 C 129.214844 108.730469 110.503906 120 84.191406 115.847656 C 84.257812 116.117188 84.25 116.277344 84.328125 116.359375 C 89.53125 121.6875 95.273438 126.296875 102.136719 129.339844 C 102.910156 129.691406 103.957031 129.777344 104.789062 129.597656 C 120.664062 126.003906 133.523438 117.941406 142.449219 104.085938 C 142.527344 103.960938 142.621094 103.851562 142.734375 103.757812 C 142.734375 103.765625 142.730469 103.773438 142.722656 103.78125 C 144.085938 110.265625 145.433594 116.839844 146.878906 123.390625 C 147.136719 124.554688 146.816406 125.195312 145.898438 125.863281 C 142.527344 128.304688 139.253906 130.871094 135.878906 133.300781 C 134.71875 134.128906 134.355469 134.972656 134.472656 136.417969 C 135.503906 148.945312 138.410156 161.03125 142.789062 172.769531 C 144.019531 176.070312 145.445312 179.300781 146.78125 182.570312 C 146.601562 182.65625 146.414062 182.753906 146.238281 182.851562 C 141.335938 173.390625 136.429688 163.933594 131.546875 154.519531 C 128.417969 157.0625 128.410156 157.0625 129.1875 161.1875 C 129.328125 161.964844 129.527344 162.734375 129.707031 163.503906 C 130.8125 168.214844 131.90625 172.929688 133.007812 177.644531 C 132.902344 177.679688 132.800781 177.71875 132.695312 177.757812 C 130.046875 171.960938 127.40625 166.175781 124.699219 160.226562 C 123.285156 161.378906 122.019531 162.511719 120.644531 163.507812 C 119.679688 164.199219 119.488281 164.941406 119.824219 166.042969 C 120.527344 168.304688 120.9375 170.671875 121.808594 172.871094 C 128.351562 189.511719 137.453125 204.699219 148.121094 218.988281 C 149.605469 220.976562 151.113281 222.957031 152.789062 225.175781 C 149.136719 227.769531 145.617188 230.265625 141.871094 232.925781 C 131.171875 211.390625 121.835938 189.753906 118.433594 165.75 C 115.945312 167.398438 113.765625 168.765625 111.695312 170.277344 C 111.285156 170.585938 110.996094 171.492188 111.109375 172.019531 C 112.113281 176.65625 113.214844 181.261719 114.304688 185.875 C 115.375 190.386719 116.480469 194.886719 117.570312 199.398438 C 117.433594 199.445312 117.292969 199.480469 117.160156 199.53125 C 113.707031 190.515625 110.261719 181.507812 106.773438 172.414062 C 101.777344 174.917969 96.902344 177.398438 91.976562 179.777344 C 90.988281 180.25 90.644531 180.769531 90.679688 181.847656 C 90.757812 184.378906 90.695312 186.914062 90.695312 189.707031 C 89.421875 188.554688 88.265625 187.597656 87.203125 186.542969 C 86.378906 185.726562 85.667969 185.457031 84.4375 185.933594 C 80.515625 187.464844 76.511719 188.800781 72.304688 190.296875 C 73.1875 191.765625 73.886719 193.105469 74.75 194.339844 C 78.371094 199.535156 81.921875 204.800781 85.730469 209.863281 C 94.992188 222.191406 105.207031 233.667969 117.082031 243.585938 C 130.953125 255.183594 146.367188 264.300781 162.753906 271.8125 C 163.425781 272.117188 164.570312 272.019531 165.214844 271.640625 C 178.023438 264.167969 189.984375 255.539062 201.007812 245.582031 C 220.953125 227.546875 237.402344 206.835938 249.027344 182.503906 C 251.433594 177.476562 253.046875 172.058594 254.917969 166.789062 C 255.175781 166.015625 255.222656 164.699219 254.765625 164.242188 M 153.386719 90.5 C 176.085938 94.847656 198.40625 95.46875 220.96875 90.054688 C 220.96875 90.945312 220.972656 91.628906 220.96875 92.320312 C 220.941406 96.535156 220.917969 100.761719 220.878906 104.984375 C 220.832031 110.84375 216.6875 115.089844 210.769531 115.449219 C 206.796875 115.691406 203.292969 114.15625 199.761719 112.6875 C 197.695312 111.816406 195.59375 111.023438 193.5625 110.097656 C 189.4375 108.222656 185.457031 108.539062 181.328125 110.25 C 176.902344 112.089844 172.398438 113.863281 167.785156 115.132812 C 163.21875 116.390625 158.761719 115.675781 155.609375 111.675781 C 154.523438 110.296875 153.570312 108.425781 153.488281 106.730469 C 153.214844 101.472656 153.386719 96.1875 153.386719 90.5 M 194.34375 163.414062 C 194.042969 163.570312 193.742188 163.722656 193.445312 163.863281 C 192.847656 164.148438 192.246094 164.378906 191.648438 164.566406 C 191.210938 164.710938 190.769531 164.835938 190.320312 164.9375 C 190.121094 164.976562 189.925781 165.015625 189.738281 165.050781 C 189.417969 165.109375 189.097656 165.152344 188.777344 165.1875 C 188.703125 165.199219 188.632812 165.207031 188.558594 165.210938 C 188.433594 165.222656 188.308594 165.234375 188.179688 165.238281 C 188.121094 165.242188 188.058594 165.253906 188.007812 165.253906 C 187.21875 165.292969 186.4375 165.269531 185.664062 165.179688 C 185.488281 165.164062 185.308594 165.144531 185.132812 165.113281 C 184.902344 165.078125 184.664062 165.035156 184.429688 164.992188 C 184.277344 164.960938 184.121094 164.929688 183.96875 164.890625 C 183.917969 164.878906 183.867188 164.867188 183.816406 164.851562 C 183.667969 164.8125 183.527344 164.78125 183.371094 164.742188 C 183.03125 164.65625 182.695312 164.558594 182.367188 164.4375 C 182.230469 164.390625 182.089844 164.347656 181.953125 164.292969 C 181.808594 164.246094 181.667969 164.195312 181.53125 164.140625 C 181.421875 164.097656 181.3125 164.054688 181.203125 164.003906 C 180.851562 163.867188 180.503906 163.710938 180.167969 163.546875 C 180.03125 163.480469 179.898438 163.417969 179.765625 163.347656 C 179.246094 163.097656 178.738281 162.816406 178.230469 162.507812 C 177.980469 162.359375 177.726562 162.203125 177.46875 162.039062 C 177.457031 162.035156 177.441406 162.019531 177.425781 162.011719 C 177.164062 161.84375 176.90625 161.667969 176.652344 161.488281 C 176.535156 161.40625 176.410156 161.328125 176.296875 161.246094 C 176.148438 161.144531 176 161.035156 175.855469 160.925781 C 175.503906 160.664062 175.152344 160.398438 174.800781 160.132812 C 173.757812 159.335938 172.738281 158.515625 171.738281 157.664062 C 171.40625 157.378906 171.082031 157.09375 170.757812 156.8125 C 169.882812 156.039062 169.027344 155.242188 168.199219 154.421875 C 167.859375 154.09375 167.527344 153.757812 167.199219 153.421875 C 166.957031 153.171875 166.71875 152.929688 166.488281 152.679688 C 166.144531 152.316406 165.804688 151.945312 165.46875 151.574219 C 165.15625 151.230469 164.851562 150.886719 164.550781 150.535156 C 164.285156 150.226562 164.023438 149.914062 163.765625 149.59375 C 163.492188 149.277344 163.230469 148.953125 162.976562 148.621094 C 162.59375 148.144531 162.222656 147.660156 161.859375 147.171875 C 161.636719 146.867188 161.410156 146.550781 161.183594 146.238281 C 160.953125 145.917969 160.730469 145.59375 160.503906 145.269531 C 160.246094 144.890625 159.992188 144.507812 159.742188 144.121094 C 159.589844 143.890625 159.441406 143.660156 159.292969 143.429688 C 158.800781 142.652344 158.332031 141.859375 157.878906 141.058594 C 157.679688 140.699219 157.480469 140.335938 157.28125 139.976562 C 157.109375 139.648438 156.933594 139.320312 156.761719 138.988281 C 156.535156 138.558594 156.320312 138.125 156.113281 137.683594 C 155.941406 137.332031 155.773438 136.972656 155.609375 136.613281 C 155.433594 136.230469 155.261719 135.84375 155.09375 135.460938 C 154.660156 134.457031 154.171875 133.484375 153.671875 132.410156 C 157.332031 137.027344 160.796875 141.644531 164.527344 146.03125 C 169.152344 151.476562 174.136719 156.5625 180.472656 160.105469 C 180.945312 160.363281 181.425781 160.605469 181.914062 160.835938 C 182.140625 160.9375 182.359375 161.035156 182.578125 161.125 C 182.71875 161.183594 182.859375 161.242188 183.003906 161.292969 C 183.171875 161.359375 183.34375 161.425781 183.511719 161.476562 C 184.25 161.738281 185.003906 161.9375 185.773438 162.074219 C 185.984375 162.117188 186.203125 162.15625 186.414062 162.175781 C 186.683594 162.214844 186.953125 162.246094 187.214844 162.265625 C 188.148438 162.335938 189.078125 162.304688 190 162.171875 C 190.34375 162.121094 190.683594 162.054688 191.019531 161.976562 C 192.480469 161.640625 193.921875 161.03125 195.332031 160.132812 C 199.636719 157.386719 203.683594 154.140625 207.484375 150.710938 C 207.871094 150.363281 208.257812 149.996094 208.628906 149.632812 C 209.371094 148.898438 210.089844 148.132812 210.796875 147.351562 C 211.234375 146.863281 211.667969 146.371094 212.097656 145.878906 C 212.53125 145.378906 212.957031 144.882812 213.394531 144.382812 C 214.246094 143.382812 215.117188 142.398438 216.003906 141.429688 L 216.007812 141.425781 L 216.023438 141.414062 C 215.824219 141.742188 215.628906 142.074219 215.429688 142.40625 C 214.628906 143.726562 213.796875 145.027344 212.929688 146.308594 C 212.714844 146.628906 212.5 146.941406 212.273438 147.253906 C 212.058594 147.566406 211.828125 147.875 211.597656 148.183594 C 211.375 148.5 211.144531 148.804688 210.90625 149.101562 C 210.660156 149.4375 210.402344 149.757812 210.140625 150.085938 C 209.8125 150.492188 209.480469 150.894531 209.136719 151.289062 C 209.117188 151.332031 209.089844 151.367188 209.050781 151.394531 C 208.707031 151.800781 208.355469 152.199219 207.996094 152.597656 C 207.660156 152.964844 207.316406 153.328125 206.964844 153.683594 C 206.226562 154.449219 205.460938 155.179688 204.664062 155.886719 C 204.265625 156.238281 203.863281 156.585938 203.460938 156.929688 C 202.648438 157.628906 201.824219 158.316406 200.984375 158.980469 C 200.5625 159.316406 200.136719 159.644531 199.707031 159.96875 C 198.640625 160.773438 197.542969 161.527344 196.410156 162.238281 C 195.957031 162.519531 195.503906 162.789062 195.042969 163.050781 C 194.808594 163.164062 194.574219 163.292969 194.34375 163.414062 M 150 115.441406 C 150.101562 115.535156 150.199219 115.632812 150.304688 115.734375 C 150.609375 116.03125 150.925781 116.3125 151.246094 116.566406 C 151.414062 116.707031 151.589844 116.835938 151.761719 116.96875 C 152.195312 117.289062 152.644531 117.578125 153.097656 117.835938 C 153.71875 118.191406 154.363281 118.492188 155.027344 118.738281 C 155.246094 118.820312 155.46875 118.902344 155.695312 118.972656 C 155.796875 119 155.886719 119.035156 155.984375 119.0625 C 156.066406 119.09375 156.148438 119.109375 156.222656 119.132812 C 156.394531 119.179688 156.574219 119.222656 156.753906 119.269531 C 156.90625 119.304688 157.054688 119.347656 157.214844 119.371094 C 157.296875 119.390625 157.375 119.40625 157.457031 119.421875 L 157.921875 119.507812 C 158.714844 119.640625 159.515625 119.71875 160.320312 119.753906 C 162.859375 119.851562 165.5 119.523438 168.109375 119.070312 C 168.335938 119.027344 168.566406 118.988281 168.789062 118.9375 C 169.015625 118.894531 169.25 118.847656 169.472656 118.792969 C 170.09375 118.660156 170.707031 118.496094 171.320312 118.324219 C 171.605469 118.246094 171.890625 118.160156 172.175781 118.074219 C 172.402344 118.003906 172.625 117.933594 172.839844 117.863281 C 173.058594 117.792969 173.289062 117.722656 173.507812 117.648438 C 174.101562 117.449219 174.695312 117.242188 175.285156 117.03125 C 177.652344 116.175781 180.003906 115.230469 182.375 114.433594 C 183.183594 114.15625 183.988281 113.875 184.792969 113.585938 C 185.207031 113.4375 185.617188 113.289062 186.035156 113.140625 C 186.453125 112.988281 186.875 112.832031 187.308594 112.679688 L 187.308594 115.277344 C 182.640625 116.660156 178.003906 118.039062 173.363281 119.414062 C 171.824219 119.867188 170.273438 120.324219 168.734375 120.78125 L 168.734375 120.789062 C 168.734375 120.847656 168.730469 120.898438 168.730469 120.953125 C 170.339844 120.824219 171.953125 120.703125 173.5625 120.570312 C 173.589844 120.800781 173.621094 121.019531 173.65625 121.242188 C 167.804688 122.152344 161.964844 123.0625 156.121094 123.980469 C 157.792969 125.746094 159.730469 127.804688 161.679688 129.859375 C 161.59375 129.984375 161.507812 130.105469 161.421875 130.230469 C 160.839844 129.867188 160.261719 129.515625 159.632812 129.128906 C 159.320312 128.929688 158.988281 128.734375 158.644531 128.515625 L 157.542969 127.839844 L 157.539062 127.839844 C 157.617188 127.957031 157.699219 128.066406 157.773438 128.175781 C 158.226562 128.820312 158.644531 129.410156 159.039062 129.980469 C 159.191406 130.1875 159.328125 130.394531 159.472656 130.59375 C 159.960938 131.289062 160.417969 131.945312 160.878906 132.601562 C 154.464844 127.824219 150.394531 121.554688 148.585938 113.789062 C 149.042969 114.398438 149.511719 114.941406 150 115.441406 M 143.207031 146.574219 C 142.949219 145.417969 142.695312 144.257812 142.472656 143.09375 C 142.359375 142.511719 142.253906 141.925781 142.15625 141.34375 C 142.0625 140.757812 141.980469 140.171875 141.902344 139.585938 C 141.894531 139.554688 141.894531 139.511719 141.894531 139.46875 C 141.878906 139.136719 141.925781 138.8125 142.03125 138.496094 C 142.089844 138.296875 142.167969 138.109375 142.261719 137.929688 C 142.304688 137.835938 142.351562 137.757812 142.402344 137.675781 C 142.453125 137.59375 142.511719 137.511719 142.5625 137.441406 C 142.617188 137.363281 142.683594 137.296875 142.738281 137.238281 C 143.222656 136.75 143.738281 136.289062 144.277344 135.859375 C 144.375 135.773438 144.480469 135.691406 144.582031 135.609375 C 144.742188 135.472656 144.914062 135.34375 145.082031 135.207031 C 145.101562 135.1875 145.117188 135.179688 145.140625 135.160156 C 145.320312 135.019531 145.507812 134.878906 145.691406 134.730469 C 145.984375 134.492188 146.285156 134.253906 146.597656 134.019531 C 146.800781 133.859375 147.003906 133.691406 147.210938 133.523438 L 147.210938 133.519531 L 147.214844 133.519531 C 147.484375 134.898438 147.78125 136.269531 148.113281 137.632812 C 148.273438 138.3125 148.445312 138.984375 148.617188 139.660156 C 148.796875 140.328125 148.976562 140.996094 149.160156 141.660156 C 149.582031 143.171875 150.039062 144.671875 150.527344 146.164062 C 150.886719 147.277344 151.269531 148.382812 151.667969 149.476562 C 151.929688 150.214844 152.207031 150.9375 152.480469 151.664062 C 152.761719 152.382812 153.046875 153.097656 153.335938 153.820312 C 153.628906 154.535156 153.925781 155.25 154.226562 155.960938 C 154.691406 157.042969 155.171875 158.121094 155.667969 159.183594 C 155.980469 159.863281 156.296875 160.535156 156.621094 161.203125 L 156.621094 161.207031 C 156.933594 161.855469 157.253906 162.5 157.582031 163.144531 C 157.945312 163.878906 158.320312 164.601562 158.695312 165.324219 C 159.050781 166.003906 159.417969 166.683594 159.78125 167.351562 C 159.972656 167.6875 160.152344 168.023438 160.335938 168.359375 C 161.078125 169.703125 161.84375 171.035156 162.632812 172.355469 C 163.414062 173.679688 164.214844 174.988281 165.042969 176.285156 C 165.859375 177.59375 166.699219 178.886719 167.5625 180.167969 C 167.988281 180.824219 168.425781 181.472656 168.871094 182.117188 C 169.730469 183.390625 170.609375 184.652344 171.503906 185.902344 C 171.769531 186.28125 172.03125 186.652344 172.296875 187.019531 C 172.628906 187.484375 172.96875 187.953125 173.300781 188.410156 C 173.769531 189.054688 174.238281 189.695312 174.722656 190.328125 C 176.101562 192.199219 177.503906 194.054688 178.933594 195.886719 C 179.25 196.296875 179.570312 196.714844 179.898438 197.121094 C 180.375 197.742188 180.859375 198.355469 181.347656 198.96875 L 181.347656 198.972656 C 179.953125 200.347656 178.554688 201.730469 177.121094 203.125 L 174.957031 205.265625 C 174.222656 205.988281 173.488281 206.71875 172.726562 207.464844 C 170.175781 203.859375 167.605469 200.382812 165.191406 196.796875 C 154.824219 181.398438 147.179688 164.789062 143.207031 146.574219 M 199.140625 208.894531 C 190.453125 218.769531 180.746094 227.453125 169.050781 233.675781 C 168.75 233.832031 168.457031 233.996094 168.152344 234.144531 C 167.253906 234.609375 166.351562 235.058594 165.4375 235.488281 C 164.835938 235.773438 164.21875 236.054688 163.609375 236.332031 C 162.6875 236.734375 161.765625 237.128906 160.835938 237.511719 C 159.667969 237.988281 158.496094 238.441406 157.3125 238.871094 C 156.722656 239.082031 156.125 239.292969 155.53125 239.503906 C 154.34375 239.914062 153.144531 240.304688 151.945312 240.675781 C 150.125 241.238281 148.296875 241.761719 146.460938 242.253906 C 145.804688 242.425781 145.144531 242.59375 144.484375 242.769531 C 143.160156 243.105469 141.832031 243.421875 140.5 243.730469 C 139.832031 243.886719 139.164062 244.035156 138.492188 244.191406 C 138.496094 244.183594 138.5 244.183594 138.503906 244.179688 C 138.976562 243.890625 139.445312 243.597656 139.910156 243.316406 C 140.835938 242.746094 141.769531 242.179688 142.703125 241.617188 C 144.070312 240.792969 145.429688 239.953125 146.78125 239.101562 C 147.675781 238.535156 148.554688 237.964844 149.425781 237.375 C 159.152344 230.820312 168.269531 223.503906 176.773438 215.425781 C 189.089844 203.734375 199.953125 190.617188 209.507812 176.21875 C 210.808594 174.265625 212.074219 172.292969 213.300781 170.296875 C 218.148438 162.40625 222.300781 154.179688 224.945312 145.234375 C 225.191406 144.390625 225.429688 143.546875 225.652344 142.695312 C 226.027344 141.234375 226.378906 139.777344 226.734375 138.265625 C 226.917969 137.511719 227.097656 136.753906 227.28125 135.96875 C 227.457031 135.183594 227.652344 134.394531 227.851562 133.574219 C 228.253906 133.953125 228.65625 134.3125 229.035156 134.652344 C 230.199219 135.695312 231.253906 136.644531 232.21875 137.6875 C 232.601562 138.109375 232.6875 139.042969 232.542969 139.664062 C 231.066406 146.082031 229.796875 152.570312 227.925781 158.871094 C 222.3125 177.804688 212.109375 194.171875 199.140625 208.894531 "/><g clip-rule="nonzero" clip-path="url(#d9dd224392)"><path style=" stroke:none;fill-rule:evenodd;fill:#000000;fill-opacity:1;" d="M 302.546875 190.378906 C 300.734375 193.296875 299.074219 196.183594 297.21875 198.9375 C 276.21875 230.238281 249.101562 254.523438 214.730469 270.3125 C 206.292969 274.191406 197.476562 277.230469 188.839844 280.675781 C 187.273438 281.300781 185.835938 281.234375 184.257812 280.589844 C 180.679688 279.121094 177.042969 277.808594 173.59375 276.5 C 182.144531 271.054688 190.898438 266.09375 198.933594 260.164062 C 206.921875 254.273438 214.183594 247.402344 221.765625 240.964844 C 221.890625 241.007812 222.007812 241.058594 222.132812 241.097656 C 219.144531 245.484375 216.261719 249.949219 213.140625 254.230469 C 210.054688 258.453125 206.71875 262.5 203.566406 266.695312 C 209.648438 262.464844 215.070312 257.523438 219.871094 251.882812 C 231.929688 237.683594 239.753906 221.148438 246.394531 203.960938 C 250.996094 192.054688 254.457031 179.824219 256.417969 167.199219 C 256.472656 166.886719 256.613281 166.585938 256.757812 166.15625 C 259.054688 167.628906 261.328125 168.945312 263.421875 170.507812 C 263.9375 170.894531 264.203125 172.136719 264.03125 172.851562 C 262.078125 180.851562 260.007812 188.824219 257.980469 196.8125 C 257.777344 197.605469 257.597656 198.398438 257.414062 199.1875 C 257.59375 199.246094 257.777344 199.304688 257.957031 199.363281 C 261.394531 190.476562 264.835938 181.585938 268.324219 172.558594 C 273.429688 175.050781 278.507812 177.507812 283.546875 180.066406 C 284.007812 180.296875 284.355469 181.1875 284.378906 181.78125 C 284.464844 184.410156 284.414062 187.050781 284.414062 189.738281 C 285.585938 188.632812 286.800781 187.359375 288.164062 186.277344 C 288.65625 185.878906 289.621094 185.617188 290.191406 185.820312 C 294.230469 187.214844 298.222656 188.761719 302.546875 190.378906 "/></g><path style=" stroke:none;fill-rule:evenodd;fill:#ffffff;fill-opacity:1;" d="M 138.492188 244.183594 C 138.964844 243.886719 139.445312 243.597656 139.910156 243.3125 C 139.445312 243.597656 138.976562 243.886719 138.503906 244.175781 C 138.5 244.183594 138.496094 244.183594 138.492188 244.183594 M 146.460938 242.253906 C 151.378906 240.9375 156.175781 239.410156 160.835938 237.511719 C 156.179688 239.40625 151.378906 240.945312 146.460938 242.253906 M 165.433594 235.492188 C 166.347656 235.058594 167.253906 234.609375 168.152344 234.144531 C 167.257812 234.617188 166.351562 235.0625 165.433594 235.492188 M 229.039062 134.65625 C 228.660156 134.316406 228.257812 133.953125 227.855469 133.582031 L 227.855469 133.574219 C 228.261719 133.949219 228.660156 134.308594 229.039062 134.65625 M 146.59375 134.023438 C 146.796875 133.855469 147 133.691406 147.207031 133.523438 L 147.207031 133.53125 C 147.003906 133.699219 146.796875 133.859375 146.59375 134.023438 M 160.332031 168.363281 C 161.082031 169.707031 161.847656 171.039062 162.628906 172.359375 C 161.839844 171.039062 161.074219 169.707031 160.332031 168.363281 M 188.011719 165.253906 C 187.042969 165.308594 186.085938 165.257812 185.136719 165.113281 C 186.085938 165.253906 187.042969 165.300781 188.011719 165.253906 M 190.320312 164.933594 C 190.769531 164.828125 191.210938 164.707031 191.648438 164.566406 C 191.210938 164.710938 190.761719 164.835938 190.320312 164.933594 M 194.34375 163.414062 C 194.574219 163.292969 194.808594 163.164062 195.039062 163.035156 C 194.808594 163.171875 194.574219 163.296875 194.34375 163.417969 C 194.042969 163.570312 193.75 163.726562 193.445312 163.859375 C 193.742188 163.726562 194.042969 163.570312 194.34375 163.414062 M 157.546875 127.847656 C 157.625 127.960938 157.703125 128.074219 157.78125 128.183594 L 157.539062 127.847656 Z M 168.742188 120.789062 C 170.277344 120.332031 171.828125 119.871094 173.371094 119.417969 C 171.828125 119.878906 170.277344 120.332031 168.742188 120.792969 Z M 168.742188 120.789062 "/><g style="fill:#000000;fill-opacity:1;"><g transform="translate(39.632814, 320.300869)"><path style="stroke:none" d="M 9.585938 -17.914062 L 9.585938 0 L 6.171875 0 L 6.171875 -17.914062 Z M 0.453125 -16.375 L 0.453125 -19.535156 L 15.300781 -19.535156 L 15.300781 -16.375 Z M 0.453125 -16.375 "/></g></g><g style="fill:#000000;fill-opacity:1;"><g transform="translate(55.396867, 320.300869)"><path style="stroke:none" d="M 4.945312 -0.0078125 L 1.695312 -0.0078125 L 1.695312 -19.890625 L 4.960938 -19.890625 L 4.960938 -11.484375 C 5.371094 -12.132812 5.949219 -12.648438 6.691406 -13.027344 C 7.433594 -13.40625 8.28125 -13.597656 9.234375 -13.597656 C 10.863281 -13.597656 12.101562 -13.109375 12.945312 -12.136719 C 13.789062 -11.164062 14.210938 -9.824219 14.210938 -8.121094 L 14.210938 0 L 10.960938 0 L 10.960938 -7.355469 C 10.960938 -8.097656 10.847656 -8.707031 10.617188 -9.1875 C 10.382812 -9.667969 10.0625 -10.027344 9.652344 -10.273438 C 9.242188 -10.519531 8.757812 -10.640625 8.203125 -10.640625 C 7.523438 -10.640625 6.941406 -10.492188 6.453125 -10.199219 C 5.96875 -9.902344 5.59375 -9.496094 5.332031 -8.980469 C 5.074219 -8.464844 4.945312 -7.875 4.945312 -7.21875 Z M 4.945312 -0.0078125 "/></g></g><g style="fill:#000000;fill-opacity:1;"><g transform="translate(71.134198, 320.300869)"><path style="stroke:none" d="M 7.597656 0.339844 C 6.292969 0.339844 5.136719 0.0429688 4.128906 -0.550781 C 3.121094 -1.140625 2.332031 -1.960938 1.757812 -3.003906 C 1.1875 -4.046875 0.902344 -5.25 0.902344 -6.609375 C 0.902344 -7.984375 1.179688 -9.195312 1.738281 -10.242188 C 2.292969 -11.289062 3.070312 -12.109375 4.0625 -12.703125 C 5.054688 -13.296875 6.199219 -13.597656 7.492188 -13.597656 C 8.816406 -13.597656 9.957031 -13.320312 10.921875 -12.765625 C 11.886719 -12.207031 12.632812 -11.429688 13.160156 -10.421875 C 13.691406 -9.414062 13.953125 -8.222656 13.953125 -6.847656 L 13.953125 -5.863281 L 2.625 -5.824219 L 2.675781 -7.90625 L 10.714844 -7.90625 C 10.714844 -8.824219 10.425781 -9.554688 9.851562 -10.101562 C 9.273438 -10.648438 8.492188 -10.921875 7.511719 -10.921875 C 6.742188 -10.921875 6.097656 -10.761719 5.574219 -10.441406 C 5.050781 -10.121094 4.65625 -9.640625 4.386719 -9.003906 C 4.117188 -8.371094 3.980469 -7.585938 3.980469 -6.652344 C 3.980469 -5.230469 4.289062 -4.15625 4.90625 -3.425781 C 5.523438 -2.699219 6.441406 -2.335938 7.652344 -2.335938 C 8.542969 -2.335938 9.277344 -2.503906 9.851562 -2.835938 C 10.429688 -3.171875 10.804688 -3.648438 10.976562 -4.269531 L 13.992188 -4.269531 C 13.71875 -2.835938 13.011719 -1.710938 11.875 -0.890625 C 10.742188 -0.0703125 9.316406 0.339844 7.597656 0.339844 Z M 7.597656 0.339844 "/></g></g><g style="fill:#000000;fill-opacity:1;"><g transform="translate(86.016528, 320.300869)"><path style="stroke:none" d=""/></g></g><g style="fill:#000000;fill-opacity:1;"><g transform="translate(93.230586, 320.300869)"><path style="stroke:none" d="M 5.578125 -19.535156 L 5.578125 0 L 2.160156 0 L 2.160156 -19.535156 Z M 14.242188 -16.375 L 2.441406 -16.375 L 2.441406 -19.535156 L 14.242188 -19.535156 Z M 12.863281 -7.988281 L 2.367188 -7.988281 L 2.367188 -11.070312 L 12.863281 -11.070312 Z M 12.863281 -7.988281 "/></g></g><g style="fill:#000000;fill-opacity:1;"><g transform="translate(107.364656, 320.300869)"><path style="stroke:none" d="M 0.902344 -6.621094 C 0.902344 -7.996094 1.203125 -9.203125 1.8125 -10.25 C 2.421875 -11.292969 3.257812 -12.109375 4.328125 -12.695312 C 5.394531 -13.285156 6.609375 -13.578125 7.972656 -13.578125 C 9.335938 -13.578125 10.550781 -13.285156 11.609375 -12.695312 C 12.667969 -12.109375 13.503906 -11.292969 14.109375 -10.25 C 14.71875 -9.203125 15.023438 -7.996094 15.023438 -6.621094 C 15.023438 -5.25 14.71875 -4.042969 14.109375 -3.003906 C 13.503906 -1.964844 12.667969 -1.148438 11.609375 -0.5625 C 10.550781 0.0273438 9.335938 0.320312 7.972656 0.320312 C 6.609375 0.320312 5.394531 0.0273438 4.328125 -0.5625 C 3.257812 -1.148438 2.421875 -1.964844 1.8125 -3.003906 C 1.203125 -4.042969 0.902344 -5.25 0.902344 -6.621094 Z M 4.175781 -6.636719 C 4.175781 -5.839844 4.339844 -5.132812 4.664062 -4.523438 C 4.988281 -3.914062 5.433594 -3.441406 6 -3.105469 C 6.566406 -2.765625 7.222656 -2.597656 7.972656 -2.597656 C 8.71875 -2.597656 9.375 -2.765625 9.941406 -3.105469 C 10.511719 -3.441406 10.953125 -3.914062 11.269531 -4.523438 C 11.589844 -5.132812 11.746094 -5.839844 11.746094 -6.636719 C 11.746094 -7.441406 11.589844 -8.144531 11.269531 -8.746094 C 10.953125 -9.347656 10.511719 -9.816406 9.941406 -10.152344 C 9.375 -10.492188 8.71875 -10.660156 7.972656 -10.660156 C 7.222656 -10.660156 6.566406 -10.492188 6 -10.152344 C 5.433594 -9.816406 4.988281 -9.347656 4.664062 -8.746094 C 4.339844 -8.144531 4.175781 -7.441406 4.175781 -6.636719 Z M 4.175781 -6.636719 "/></g></g><g style="fill:#000000;fill-opacity:1;"><g transform="translate(122.968342, 320.300869)"><path style="stroke:none" d="M 10.644531 -13.199219 L 13.894531 -13.199219 L 13.894531 0 L 10.886719 0 L 10.628906 -1.761719 C 10.238281 -1.132812 9.652344 -0.628906 8.871094 -0.242188 C 8.085938 0.144531 7.253906 0.339844 6.371094 0.339844 C 4.851562 0.339844 3.664062 -0.136719 2.8125 -1.09375 C 1.960938 -2.050781 1.535156 -3.335938 1.535156 -4.953125 L 1.535156 -13.207031 L 4.792969 -13.207031 L 4.792969 -6.097656 C 4.792969 -4.847656 5.03125 -3.941406 5.515625 -3.390625 C 6 -2.835938 6.691406 -2.558594 7.601562 -2.558594 C 8.628906 -2.558594 9.394531 -2.867188 9.894531 -3.480469 C 10.394531 -4.09375 10.644531 -5.027344 10.644531 -6.285156 Z M 10.644531 -13.199219 "/></g></g><g style="fill:#000000;fill-opacity:1;"><g transform="translate(138.545363, 320.300869)"><path style="stroke:none" d="M 4.945312 0 L 1.695312 0 L 1.695312 -13.199219 L 4.703125 -13.199219 L 4.96875 -11.484375 C 5.386719 -12.148438 5.96875 -12.667969 6.71875 -13.039062 C 7.46875 -13.410156 8.296875 -13.597656 9.195312 -13.597656 C 10.851562 -13.597656 12.101562 -13.109375 12.945312 -12.136719 C 13.789062 -11.164062 14.210938 -9.824219 14.210938 -8.121094 L 14.210938 0 L 10.960938 0 L 10.960938 -7.355469 C 10.960938 -8.449219 10.710938 -9.269531 10.203125 -9.820312 C 9.699219 -10.367188 9.023438 -10.640625 8.175781 -10.640625 C 7.164062 -10.640625 6.375 -10.320312 5.800781 -9.679688 C 5.230469 -9.042969 4.945312 -8.1875 4.945312 -7.113281 Z M 4.945312 0 "/></g></g><g style="fill:#000000;fill-opacity:1;"><g transform="translate(154.282694, 320.300869)"><path style="stroke:none" d="M 7.105469 0.339844 C 5.832031 0.339844 4.734375 0.0507812 3.808594 -0.527344 C 2.882812 -1.105469 2.167969 -1.910156 1.660156 -2.945312 C 1.152344 -3.980469 0.902344 -5.179688 0.902344 -6.542969 C 0.902344 -7.921875 1.15625 -9.140625 1.671875 -10.199219 C 2.183594 -11.257812 2.917969 -12.089844 3.875 -12.691406 C 4.832031 -13.292969 5.972656 -13.597656 7.292969 -13.597656 C 8.222656 -13.597656 9.066406 -13.414062 9.828125 -13.050781 C 10.589844 -12.6875 11.175781 -12.171875 11.589844 -11.507812 L 11.589844 -19.890625 L 14.839844 -19.890625 L 14.839844 0 L 11.832031 0 L 11.625 -2.0625 C 11.230469 -1.3125 10.628906 -0.726562 9.824219 -0.300781 C 9.015625 0.125 8.109375 0.339844 7.105469 0.339844 Z M 7.835938 -2.632812 C 8.597656 -2.632812 9.253906 -2.804688 9.8125 -3.140625 C 10.367188 -3.480469 10.800781 -3.953125 11.105469 -4.5625 C 11.410156 -5.171875 11.5625 -5.871094 11.5625 -6.65625 C 11.5625 -7.457031 11.410156 -8.15625 11.105469 -8.757812 C 10.800781 -9.359375 10.367188 -9.828125 9.8125 -10.167969 C 9.253906 -10.507812 8.597656 -10.679688 7.835938 -10.679688 C 7.085938 -10.679688 6.433594 -10.503906 5.882812 -10.160156 C 5.332031 -9.8125 4.910156 -9.339844 4.617188 -8.738281 C 4.324219 -8.136719 4.175781 -7.445312 4.175781 -6.65625 C 4.175781 -5.871094 4.324219 -5.175781 4.617188 -4.570312 C 4.910156 -3.96875 5.332031 -3.496094 5.882812 -3.148438 C 6.433594 -2.804688 7.085938 -2.632812 7.835938 -2.632812 Z M 7.835938 -2.632812 "/></g></g><g style="fill:#000000;fill-opacity:1;"><g transform="translate(170.821591, 320.300869)"><path style="stroke:none" d="M 7.597656 0.339844 C 6.292969 0.339844 5.136719 0.0429688 4.128906 -0.550781 C 3.121094 -1.140625 2.332031 -1.960938 1.757812 -3.003906 C 1.1875 -4.046875 0.902344 -5.25 0.902344 -6.609375 C 0.902344 -7.984375 1.179688 -9.195312 1.738281 -10.242188 C 2.292969 -11.289062 3.070312 -12.109375 4.0625 -12.703125 C 5.054688 -13.296875 6.199219 -13.597656 7.492188 -13.597656 C 8.816406 -13.597656 9.957031 -13.320312 10.921875 -12.765625 C 11.886719 -12.207031 12.632812 -11.429688 13.160156 -10.421875 C 13.691406 -9.414062 13.953125 -8.222656 13.953125 -6.847656 L 13.953125 -5.863281 L 2.625 -5.824219 L 2.675781 -7.90625 L 10.714844 -7.90625 C 10.714844 -8.824219 10.425781 -9.554688 9.851562 -10.101562 C 9.273438 -10.648438 8.492188 -10.921875 7.511719 -10.921875 C 6.742188 -10.921875 6.097656 -10.761719 5.574219 -10.441406 C 5.050781 -10.121094 4.65625 -9.640625 4.386719 -9.003906 C 4.117188 -8.371094 3.980469 -7.585938 3.980469 -6.652344 C 3.980469 -5.230469 4.289062 -4.15625 4.90625 -3.425781 C 5.523438 -2.699219 6.441406 -2.335938 7.652344 -2.335938 C 8.542969 -2.335938 9.277344 -2.503906 9.851562 -2.835938 C 10.429688 -3.171875 10.804688 -3.648438 10.976562 -4.269531 L 13.992188 -4.269531 C 13.71875 -2.835938 13.011719 -1.710938 11.875 -0.890625 C 10.742188 -0.0703125 9.316406 0.339844 7.597656 0.339844 Z M 7.597656 0.339844 "/></g></g><g style="fill:#000000;fill-opacity:1;"><g transform="translate(185.703922, 320.300869)"><path style="stroke:none" d="M 9.964844 -13.257812 L 9.964844 -10.222656 L 8.757812 -10.222656 C 7.578125 -10.222656 6.648438 -9.90625 5.964844 -9.277344 C 5.285156 -8.644531 4.945312 -7.6875 4.945312 -6.398438 L 4.945312 0 L 1.695312 0 L 1.695312 -13.183594 L 4.75 -13.183594 L 5.015625 -10.441406 L 4.714844 -10.441406 C 4.890625 -11.316406 5.308594 -12.035156 5.960938 -12.589844 C 6.617188 -13.148438 7.46875 -13.429688 8.523438 -13.429688 C 8.757812 -13.429688 8.988281 -13.414062 9.222656 -13.390625 C 9.453125 -13.367188 9.699219 -13.324219 9.964844 -13.257812 Z M 9.964844 -13.257812 "/></g></g><g style="fill:#000000;fill-opacity:1;"><g transform="translate(193.959689, 320.300869)"><path style="stroke:none" d="M 3.882812 0.332031 C 3.292969 0.332031 2.78125 0.125 2.359375 -0.292969 C 1.933594 -0.707031 1.722656 -1.207031 1.722656 -1.785156 C 1.722656 -2.382812 1.933594 -2.886719 2.359375 -3.304688 C 2.78125 -3.71875 3.292969 -3.929688 3.882812 -3.929688 C 4.46875 -3.929688 4.972656 -3.71875 5.402344 -3.304688 C 5.832031 -2.886719 6.042969 -2.382812 6.042969 -1.785156 C 6.042969 -1.207031 5.832031 -0.707031 5.402344 -0.292969 C 4.972656 0.125 4.46875 0.332031 3.882812 0.332031 Z M 3.882812 0.332031 "/></g></g><g style="fill:#000000;fill-opacity:1;"><g transform="translate(201.734839, 320.300869)"><path style="stroke:none" d=""/></g></g><g style="fill:#000000;fill-opacity:1;"><g transform="translate(208.948897, 320.300869)"><path style="stroke:none" d="M 10.425781 0.3125 C 8.523438 0.3125 6.867188 -0.101562 5.460938 -0.929688 C 4.054688 -1.757812 2.96875 -2.925781 2.195312 -4.433594 C 1.421875 -5.941406 1.035156 -7.710938 1.035156 -9.75 C 1.035156 -11.777344 1.433594 -13.546875 2.230469 -15.0625 C 3.03125 -16.574219 4.148438 -17.753906 5.585938 -18.59375 C 7.023438 -19.433594 8.691406 -19.855469 10.585938 -19.855469 C 12.136719 -19.855469 13.527344 -19.570312 14.757812 -19.003906 C 15.988281 -18.4375 17 -17.636719 17.800781 -16.605469 C 18.597656 -15.574219 19.105469 -14.363281 19.324219 -12.964844 L 15.699219 -12.964844 C 15.371094 -14.105469 14.75 -14.992188 13.832031 -15.621094 C 12.914062 -16.253906 11.800781 -16.566406 10.488281 -16.566406 C 9.296875 -16.566406 8.257812 -16.292969 7.378906 -15.738281 C 6.496094 -15.183594 5.816406 -14.402344 5.339844 -13.386719 C 4.863281 -12.371094 4.625 -11.164062 4.625 -9.765625 C 4.625 -8.398438 4.867188 -7.203125 5.347656 -6.179688 C 5.832031 -5.15625 6.515625 -4.367188 7.398438 -3.808594 C 8.277344 -3.253906 9.308594 -2.972656 10.488281 -2.972656 C 11.8125 -2.972656 12.949219 -3.292969 13.898438 -3.933594 C 14.851562 -4.570312 15.484375 -5.4375 15.804688 -6.527344 L 19.375 -6.527344 C 19.121094 -5.164062 18.582031 -3.964844 17.757812 -2.9375 C 16.933594 -1.90625 15.890625 -1.109375 14.632812 -0.539062 C 13.378906 0.0273438 11.972656 0.3125 10.425781 0.3125 Z M 10.425781 0.3125 "/></g></g><g style="fill:#000000;fill-opacity:1;"><g transform="translate(229.228421, 320.300869)"><path style="stroke:none" d="M 14.304688 0 L 2.160156 0 L 2.160156 -19.535156 L 14.296875 -19.535156 L 14.296875 -16.375 L 4.375 -16.375 L 5.578125 -17.464844 L 5.578125 -11.355469 L 13.378906 -11.355469 L 13.378906 -8.34375 L 5.578125 -8.34375 L 5.578125 -2.058594 L 4.375 -3.160156 L 14.304688 -3.160156 Z M 14.304688 0 "/></g></g><g style="fill:#000000;fill-opacity:1;"><g transform="translate(245.045917, 320.300869)"><path style="stroke:none" d="M 19.976562 -9.785156 C 19.976562 -7.800781 19.574219 -6.046875 18.769531 -4.527344 C 17.964844 -3.007812 16.851562 -1.820312 15.425781 -0.964844 C 14 -0.105469 12.347656 0.320312 10.472656 0.320312 C 8.613281 0.320312 6.972656 -0.105469 5.550781 -0.964844 C 4.128906 -1.820312 3.019531 -3.003906 2.226562 -4.515625 C 1.429688 -6.03125 1.035156 -7.78125 1.035156 -9.765625 C 1.035156 -11.753906 1.4375 -13.507812 2.238281 -15.027344 C 3.042969 -16.546875 4.15625 -17.734375 5.574219 -18.589844 C 6.992188 -19.445312 8.632812 -19.875 10.492188 -19.875 C 12.367188 -19.875 14.015625 -19.445312 15.433594 -18.589844 C 16.855469 -17.734375 17.964844 -16.546875 18.769531 -15.035156 C 19.574219 -13.523438 19.976562 -11.773438 19.976562 -9.785156 Z M 16.382812 -9.785156 C 16.382812 -11.179688 16.140625 -12.382812 15.660156 -13.398438 C 15.179688 -14.410156 14.5 -15.195312 13.625 -15.753906 C 12.75 -16.308594 11.710938 -16.585938 10.511719 -16.585938 C 9.3125 -16.585938 8.273438 -16.308594 7.390625 -15.753906 C 6.511719 -15.195312 5.832031 -14.410156 5.347656 -13.398438 C 4.867188 -12.382812 4.625 -11.179688 4.625 -9.785156 C 4.625 -8.398438 4.867188 -7.191406 5.347656 -6.167969 C 5.832031 -5.144531 6.511719 -4.355469 7.390625 -3.800781 C 8.273438 -3.242188 9.3125 -2.964844 10.511719 -2.964844 C 11.710938 -2.964844 12.75 -3.246094 13.625 -3.808594 C 14.5 -4.371094 15.179688 -5.164062 15.660156 -6.1875 C 16.140625 -7.210938 16.382812 -8.410156 16.382812 -9.785156 Z M 16.382812 -9.785156 "/></g></g><g style="fill:#000000;fill-opacity:1;"><g transform="translate(264.844332, 320.300869)"><path style="stroke:none" d="M 3.882812 0.332031 C 3.292969 0.332031 2.78125 0.125 2.359375 -0.292969 C 1.933594 -0.707031 1.722656 -1.207031 1.722656 -1.785156 C 1.722656 -2.382812 1.933594 -2.886719 2.359375 -3.304688 C 2.78125 -3.71875 3.292969 -3.929688 3.882812 -3.929688 C 4.46875 -3.929688 4.972656 -3.71875 5.402344 -3.304688 C 5.832031 -2.886719 6.042969 -2.382812 6.042969 -1.785156 C 6.042969 -1.207031 5.832031 -0.707031 5.402344 -0.292969 C 4.972656 0.125 4.46875 0.332031 3.882812 0.332031 Z M 3.882812 0.332031 "/></g></g><g style="fill:#000000;fill-opacity:1;"><g transform="translate(272.619493, 320.300869)"><path style="stroke:none" d=""/></g></g><g style="fill:#000000;fill-opacity:1;"><g transform="translate(279.833528, 320.300869)"><path style="stroke:none" d="M 10.425781 0.3125 C 8.523438 0.3125 6.867188 -0.101562 5.460938 -0.929688 C 4.054688 -1.757812 2.96875 -2.925781 2.195312 -4.433594 C 1.421875 -5.941406 1.035156 -7.710938 1.035156 -9.75 C 1.035156 -11.777344 1.433594 -13.546875 2.230469 -15.0625 C 3.03125 -16.574219 4.148438 -17.753906 5.585938 -18.59375 C 7.023438 -19.433594 8.691406 -19.855469 10.585938 -19.855469 C 12.136719 -19.855469 13.527344 -19.570312 14.757812 -19.003906 C 15.988281 -18.4375 17 -17.636719 17.800781 -16.605469 C 18.597656 -15.574219 19.105469 -14.363281 19.324219 -12.964844 L 15.699219 -12.964844 C 15.371094 -14.105469 14.75 -14.992188 13.832031 -15.621094 C 12.914062 -16.253906 11.800781 -16.566406 10.488281 -16.566406 C 9.296875 -16.566406 8.257812 -16.292969 7.378906 -15.738281 C 6.496094 -15.183594 5.816406 -14.402344 5.339844 -13.386719 C 4.863281 -12.371094 4.625 -11.164062 4.625 -9.765625 C 4.625 -8.398438 4.867188 -7.203125 5.347656 -6.179688 C 5.832031 -5.15625 6.515625 -4.367188 7.398438 -3.808594 C 8.277344 -3.253906 9.308594 -2.972656 10.488281 -2.972656 C 11.8125 -2.972656 12.949219 -3.292969 13.898438 -3.933594 C 14.851562 -4.570312 15.484375 -5.4375 15.804688 -6.527344 L 19.375 -6.527344 C 19.121094 -5.164062 18.582031 -3.964844 17.757812 -2.9375 C 16.933594 -1.90625 15.890625 -1.109375 14.632812 -0.539062 C 13.378906 0.0273438 11.972656 0.3125 10.425781 0.3125 Z M 10.425781 0.3125 "/></g></g><g style="fill:#000000;fill-opacity:1;"><g transform="translate(299.044174, 320.300869)"><path style="stroke:none" d="M 9.585938 -17.914062 L 9.585938 0 L 6.171875 0 L 6.171875 -17.914062 Z M 0.453125 -16.375 L 0.453125 -19.535156 L 15.300781 -19.535156 L 15.300781 -16.375 Z M 0.453125 -16.375 "/></g></g><g style="fill:#000000;fill-opacity:1;"><g transform="translate(314.046622, 320.300869)"><path style="stroke:none" d="M 19.976562 -9.785156 C 19.976562 -7.800781 19.574219 -6.046875 18.769531 -4.527344 C 17.964844 -3.007812 16.851562 -1.820312 15.425781 -0.964844 C 14 -0.105469 12.347656 0.320312 10.472656 0.320312 C 8.613281 0.320312 6.972656 -0.105469 5.550781 -0.964844 C 4.128906 -1.820312 3.019531 -3.003906 2.226562 -4.515625 C 1.429688 -6.03125 1.035156 -7.78125 1.035156 -9.765625 C 1.035156 -11.753906 1.4375 -13.507812 2.238281 -15.027344 C 3.042969 -16.546875 4.15625 -17.734375 5.574219 -18.589844 C 6.992188 -19.445312 8.632812 -19.875 10.492188 -19.875 C 12.367188 -19.875 14.015625 -19.445312 15.433594 -18.589844 C 16.855469 -17.734375 17.964844 -16.546875 18.769531 -15.035156 C 19.574219 -13.523438 19.976562 -11.773438 19.976562 -9.785156 Z M 16.382812 -9.785156 C 16.382812 -11.179688 16.140625 -12.382812 15.660156 -13.398438 C 15.179688 -14.410156 14.5 -15.195312 13.625 -15.753906 C 12.75 -16.308594 11.710938 -16.585938 10.511719 -16.585938 C 9.3125 -16.585938 8.273438 -16.308594 7.390625 -15.753906 C 6.511719 -15.195312 5.832031 -14.410156 5.347656 -13.398438 C 4.867188 -12.382812 4.625 -11.179688 4.625 -9.785156 C 4.625 -8.398438 4.867188 -7.191406 5.347656 -6.167969 C 5.832031 -5.144531 6.511719 -4.355469 7.390625 -3.800781 C 8.273438 -3.242188 9.3125 -2.964844 10.511719 -2.964844 C 11.710938 -2.964844 12.75 -3.246094 13.625 -3.808594 C 14.5 -4.371094 15.179688 -5.164062 15.660156 -6.1875 C 16.140625 -7.210938 16.382812 -8.410156 16.382812 -9.785156 Z M 16.382812 -9.785156 "/></g></g><g style="fill:#000000;fill-opacity:1;"><g transform="translate(333.845037, 320.300869)"><path style="stroke:none" d="M 3.882812 0.332031 C 3.292969 0.332031 2.78125 0.125 2.359375 -0.292969 C 1.933594 -0.707031 1.722656 -1.207031 1.722656 -1.785156 C 1.722656 -2.382812 1.933594 -2.886719 2.359375 -3.304688 C 2.78125 -3.71875 3.292969 -3.929688 3.882812 -3.929688 C 4.46875 -3.929688 4.972656 -3.71875 5.402344 -3.304688 C 5.832031 -2.886719 6.042969 -2.382812 6.042969 -1.785156 C 6.042969 -1.207031 5.832031 -0.707031 5.402344 -0.292969 C 4.972656 0.125 4.46875 0.332031 3.882812 0.332031 Z M 3.882812 0.332031 "/></g></g><g style="fill:#737373;fill-opacity:1;"><g transform="translate(40.113283, 342.872469)"><path style="stroke:none" d="M 6.65625 -8.65625 L 6.421875 -7.1875 L 5.703125 -7.1875 C 4.941406 -7.1875 4.300781 -6.957031 3.78125 -6.5 C 3.257812 -6.050781 2.941406 -5.414062 2.828125 -4.59375 L 2.09375 0 L 0.515625 0 L 1.875 -8.578125 L 3.3125 -8.578125 L 3.21875 -7.234375 C 3.46875 -7.703125 3.816406 -8.070312 4.265625 -8.34375 C 4.722656 -8.613281 5.222656 -8.75 5.765625 -8.75 C 6.078125 -8.75 6.375 -8.71875 6.65625 -8.65625 Z M 6.65625 -8.65625 "/></g></g><g style="fill:#737373;fill-opacity:1;"><g transform="translate(46.060182, 342.872469)"><path style="stroke:none" d="M 3 0.203125 C 2.238281 0.203125 1.625 -0.00390625 1.15625 -0.421875 C 0.6875 -0.835938 0.453125 -1.394531 0.453125 -2.09375 C 0.453125 -2.957031 0.757812 -3.648438 1.375 -4.171875 C 2 -4.703125 2.878906 -5.015625 4.015625 -5.109375 L 6.703125 -5.3125 L 6.734375 -5.546875 C 6.847656 -6.191406 6.75 -6.679688 6.4375 -7.015625 C 6.132812 -7.359375 5.644531 -7.53125 4.96875 -7.53125 C 3.65625 -7.53125 2.910156 -6.972656 2.734375 -5.859375 L 1.28125 -5.859375 C 1.4375 -6.796875 1.847656 -7.519531 2.515625 -8.03125 C 3.179688 -8.550781 4.046875 -8.8125 5.109375 -8.8125 C 6.253906 -8.8125 7.109375 -8.503906 7.671875 -7.890625 C 8.242188 -7.273438 8.445312 -6.445312 8.28125 -5.40625 L 7.421875 0 L 6.046875 0 L 6.125 -1.40625 C 5.832031 -0.90625 5.40625 -0.507812 4.84375 -0.21875 C 4.28125 0.0625 3.664062 0.203125 3 0.203125 Z M 3.5625 -1.03125 C 4.332031 -1.03125 4.976562 -1.269531 5.5 -1.75 C 6.019531 -2.226562 6.34375 -2.882812 6.46875 -3.71875 L 6.546875 -4.171875 L 4.359375 -4 C 2.816406 -3.882812 2.046875 -3.296875 2.046875 -2.234375 C 2.046875 -1.859375 2.179688 -1.5625 2.453125 -1.34375 C 2.722656 -1.132812 3.09375 -1.03125 3.5625 -1.03125 Z M 3.5625 -1.03125 "/></g></g><g style="fill:#737373;fill-opacity:1;"><g transform="translate(55.25266, 342.872469)"><path style="stroke:none" d="M 2.09375 0 L 0.515625 0 L 1.875 -8.578125 L 3.28125 -8.578125 L 3.25 -7.421875 C 3.539062 -7.859375 3.921875 -8.195312 4.390625 -8.4375 C 4.859375 -8.6875 5.363281 -8.8125 5.90625 -8.8125 C 6.539062 -8.8125 7.066406 -8.65625 7.484375 -8.34375 C 7.898438 -8.03125 8.171875 -7.597656 8.296875 -7.046875 C 8.578125 -7.585938 8.976562 -8.015625 9.5 -8.328125 C 10.03125 -8.648438 10.617188 -8.8125 11.265625 -8.8125 C 12.191406 -8.8125 12.90625 -8.507812 13.40625 -7.90625 C 13.90625 -7.300781 14.085938 -6.53125 13.953125 -5.59375 L 13.078125 0 L 11.515625 0 L 12.3125 -5.234375 C 12.414062 -5.898438 12.328125 -6.425781 12.046875 -6.8125 C 11.773438 -7.195312 11.335938 -7.390625 10.734375 -7.390625 C 10.128906 -7.390625 9.613281 -7.179688 9.1875 -6.765625 C 8.769531 -6.359375 8.503906 -5.804688 8.390625 -5.109375 L 7.578125 0 L 6 0 L 6.84375 -5.25 C 6.945312 -5.894531 6.851562 -6.410156 6.5625 -6.796875 C 6.28125 -7.191406 5.847656 -7.390625 5.265625 -7.390625 C 4.660156 -7.390625 4.144531 -7.179688 3.71875 -6.765625 C 3.289062 -6.359375 3.015625 -5.8125 2.890625 -5.125 Z M 2.09375 0 "/></g></g><g style="fill:#737373;fill-opacity:1;"><g transform="translate(70.093952, 342.872469)"><path style="stroke:none" d="M 2.984375 -10.65625 C 2.722656 -10.65625 2.503906 -10.738281 2.328125 -10.90625 C 2.160156 -11.070312 2.078125 -11.285156 2.078125 -11.546875 C 2.078125 -11.867188 2.195312 -12.15625 2.4375 -12.40625 C 2.6875 -12.664062 2.972656 -12.796875 3.296875 -12.796875 C 3.554688 -12.796875 3.769531 -12.707031 3.9375 -12.53125 C 4.101562 -12.363281 4.1875 -12.148438 4.1875 -11.890625 C 4.1875 -11.566406 4.0625 -11.28125 3.8125 -11.03125 C 3.570312 -10.78125 3.296875 -10.65625 2.984375 -10.65625 Z M 0.515625 0 L 1.875 -8.578125 L 3.4375 -8.578125 L 2.09375 0 Z M 0.515625 0 "/></g></g><g style="fill:#737373;fill-opacity:1;"><g transform="translate(74.041099, 342.872469)"><path style="stroke:none" d="M 0.5625 -3.609375 C 0.5625 -5.078125 1.007812 -6.3125 1.90625 -7.3125 C 2.8125 -8.3125 3.925781 -8.8125 5.25 -8.8125 C 6.289062 -8.8125 7.117188 -8.535156 7.734375 -7.984375 C 8.359375 -7.429688 8.707031 -6.664062 8.78125 -5.6875 L 7.15625 -5.6875 C 7.113281 -6.226562 6.914062 -6.644531 6.5625 -6.9375 C 6.207031 -7.238281 5.742188 -7.390625 5.171875 -7.390625 C 4.316406 -7.390625 3.601562 -7.035156 3.03125 -6.328125 C 2.457031 -5.617188 2.171875 -4.742188 2.171875 -3.703125 C 2.171875 -2.941406 2.367188 -2.332031 2.765625 -1.875 C 3.171875 -1.414062 3.710938 -1.1875 4.390625 -1.1875 C 4.953125 -1.1875 5.445312 -1.335938 5.875 -1.640625 C 6.300781 -1.953125 6.613281 -2.367188 6.8125 -2.890625 L 8.4375 -2.890625 C 8.164062 -1.941406 7.660156 -1.1875 6.921875 -0.625 C 6.179688 -0.0703125 5.316406 0.203125 4.328125 0.203125 C 3.179688 0.203125 2.265625 -0.140625 1.578125 -0.828125 C 0.898438 -1.523438 0.5625 -2.453125 0.5625 -3.609375 Z M 0.5625 -3.609375 "/></g></g><g style="fill:#737373;fill-opacity:1;"><g transform="translate(83.216033, 342.872469)"><path style="stroke:none" d="M 0.5625 -3.6875 C 0.5625 -5.101562 1.039062 -6.3125 2 -7.3125 C 2.96875 -8.3125 4.144531 -8.8125 5.53125 -8.8125 C 6.695312 -8.8125 7.640625 -8.453125 8.359375 -7.734375 C 9.078125 -7.015625 9.4375 -6.070312 9.4375 -4.90625 C 9.4375 -3.476562 8.957031 -2.269531 8 -1.28125 C 7.039062 -0.289062 5.867188 0.203125 4.484375 0.203125 C 3.316406 0.203125 2.367188 -0.15625 1.640625 -0.875 C 0.921875 -1.59375 0.5625 -2.53125 0.5625 -3.6875 Z M 2.171875 -3.796875 C 2.171875 -2.992188 2.390625 -2.359375 2.828125 -1.890625 C 3.265625 -1.421875 3.859375 -1.1875 4.609375 -1.1875 C 5.503906 -1.1875 6.265625 -1.539062 6.890625 -2.25 C 7.523438 -2.957031 7.84375 -3.8125 7.84375 -4.8125 C 7.84375 -5.601562 7.625 -6.234375 7.1875 -6.703125 C 6.75 -7.171875 6.15625 -7.40625 5.40625 -7.40625 C 4.519531 -7.40625 3.757812 -7.050781 3.125 -6.34375 C 2.488281 -5.632812 2.171875 -4.785156 2.171875 -3.796875 Z M 2.171875 -3.796875 "/></g></g><g style="fill:#737373;fill-opacity:1;"><g transform="translate(93.233023, 342.872469)"><path style="stroke:none" d="M 2.984375 -10.65625 C 2.722656 -10.65625 2.503906 -10.738281 2.328125 -10.90625 C 2.160156 -11.070312 2.078125 -11.285156 2.078125 -11.546875 C 2.078125 -11.867188 2.195312 -12.15625 2.4375 -12.40625 C 2.6875 -12.664062 2.972656 -12.796875 3.296875 -12.796875 C 3.554688 -12.796875 3.769531 -12.707031 3.9375 -12.53125 C 4.101562 -12.363281 4.1875 -12.148438 4.1875 -11.890625 C 4.1875 -11.566406 4.0625 -11.28125 3.8125 -11.03125 C 3.570312 -10.78125 3.296875 -10.65625 2.984375 -10.65625 Z M 0.515625 0 L 1.875 -8.578125 L 3.4375 -8.578125 L 2.09375 0 Z M 0.515625 0 "/></g></g><g style="fill:#737373;fill-opacity:1;"><g transform="translate(97.18017, 342.872469)"><path style="stroke:none" d="M 2.09375 0 L 0.515625 0 L 1.875 -8.578125 L 3.28125 -8.578125 L 3.25 -7.21875 C 3.988281 -8.289062 4.953125 -8.828125 6.140625 -8.828125 C 7.109375 -8.828125 7.859375 -8.488281 8.390625 -7.8125 C 8.921875 -7.132812 9.109375 -6.28125 8.953125 -5.25 L 8.125 0 L 6.546875 0 L 7.3125 -4.875 C 7.445312 -5.6875 7.363281 -6.304688 7.0625 -6.734375 C 6.757812 -7.171875 6.269531 -7.390625 5.59375 -7.390625 C 4.851562 -7.390625 4.238281 -7.132812 3.75 -6.625 C 3.257812 -6.113281 2.945312 -5.414062 2.8125 -4.53125 Z M 2.09375 0 "/></g></g><g style="fill:#737373;fill-opacity:1;"><g transform="translate(107.074365, 342.872469)"><path style="stroke:none" d="M 1.65625 0.203125 C 1.34375 0.203125 1.09375 0.109375 0.90625 -0.078125 C 0.71875 -0.273438 0.625 -0.519531 0.625 -0.8125 C 0.625 -1.1875 0.765625 -1.515625 1.046875 -1.796875 C 1.328125 -2.085938 1.65625 -2.234375 2.03125 -2.234375 C 2.351562 -2.234375 2.609375 -2.132812 2.796875 -1.9375 C 2.984375 -1.75 3.078125 -1.5 3.078125 -1.1875 C 3.078125 -0.8125 2.929688 -0.484375 2.640625 -0.203125 C 2.347656 0.0664062 2.019531 0.203125 1.65625 0.203125 Z M 1.65625 0.203125 "/></g></g><g style="fill:#737373;fill-opacity:1;"><g transform="translate(111.126489, 342.872469)"><path style="stroke:none" d="M 0.5625 -3.609375 C 0.5625 -5.078125 1.007812 -6.3125 1.90625 -7.3125 C 2.8125 -8.3125 3.925781 -8.8125 5.25 -8.8125 C 6.289062 -8.8125 7.117188 -8.535156 7.734375 -7.984375 C 8.359375 -7.429688 8.707031 -6.664062 8.78125 -5.6875 L 7.15625 -5.6875 C 7.113281 -6.226562 6.914062 -6.644531 6.5625 -6.9375 C 6.207031 -7.238281 5.742188 -7.390625 5.171875 -7.390625 C 4.316406 -7.390625 3.601562 -7.035156 3.03125 -6.328125 C 2.457031 -5.617188 2.171875 -4.742188 2.171875 -3.703125 C 2.171875 -2.941406 2.367188 -2.332031 2.765625 -1.875 C 3.171875 -1.414062 3.710938 -1.1875 4.390625 -1.1875 C 4.953125 -1.1875 5.445312 -1.335938 5.875 -1.640625 C 6.300781 -1.953125 6.613281 -2.367188 6.8125 -2.890625 L 8.4375 -2.890625 C 8.164062 -1.941406 7.660156 -1.1875 6.921875 -0.625 C 6.179688 -0.0703125 5.316406 0.203125 4.328125 0.203125 C 3.179688 0.203125 2.265625 -0.140625 1.578125 -0.828125 C 0.898438 -1.523438 0.5625 -2.453125 0.5625 -3.609375 Z M 0.5625 -3.609375 "/></g></g><g style="fill:#737373;fill-opacity:1;"><g transform="translate(120.301422, 342.872469)"><path style="stroke:none" d="M 0.5625 -3.6875 C 0.5625 -5.101562 1.039062 -6.3125 2 -7.3125 C 2.96875 -8.3125 4.144531 -8.8125 5.53125 -8.8125 C 6.695312 -8.8125 7.640625 -8.453125 8.359375 -7.734375 C 9.078125 -7.015625 9.4375 -6.070312 9.4375 -4.90625 C 9.4375 -3.476562 8.957031 -2.269531 8 -1.28125 C 7.039062 -0.289062 5.867188 0.203125 4.484375 0.203125 C 3.316406 0.203125 2.367188 -0.15625 1.640625 -0.875 C 0.921875 -1.59375 0.5625 -2.53125 0.5625 -3.6875 Z M 2.171875 -3.796875 C 2.171875 -2.992188 2.390625 -2.359375 2.828125 -1.890625 C 3.265625 -1.421875 3.859375 -1.1875 4.609375 -1.1875 C 5.503906 -1.1875 6.265625 -1.539062 6.890625 -2.25 C 7.523438 -2.957031 7.84375 -3.8125 7.84375 -4.8125 C 7.84375 -5.601562 7.625 -6.234375 7.1875 -6.703125 C 6.75 -7.171875 6.15625 -7.40625 5.40625 -7.40625 C 4.519531 -7.40625 3.757812 -7.050781 3.125 -6.34375 C 2.488281 -5.632812 2.171875 -4.785156 2.171875 -3.796875 Z M 2.171875 -3.796875 "/></g></g><g style="fill:#737373;fill-opacity:1;"><g transform="translate(130.318412, 342.872469)"><path style="stroke:none" d="M 2.09375 0 L 0.515625 0 L 1.875 -8.578125 L 3.28125 -8.578125 L 3.25 -7.421875 C 3.539062 -7.859375 3.921875 -8.195312 4.390625 -8.4375 C 4.859375 -8.6875 5.363281 -8.8125 5.90625 -8.8125 C 6.539062 -8.8125 7.066406 -8.65625 7.484375 -8.34375 C 7.898438 -8.03125 8.171875 -7.597656 8.296875 -7.046875 C 8.578125 -7.585938 8.976562 -8.015625 9.5 -8.328125 C 10.03125 -8.648438 10.617188 -8.8125 11.265625 -8.8125 C 12.191406 -8.8125 12.90625 -8.507812 13.40625 -7.90625 C 13.90625 -7.300781 14.085938 -6.53125 13.953125 -5.59375 L 13.078125 0 L 11.515625 0 L 12.3125 -5.234375 C 12.414062 -5.898438 12.328125 -6.425781 12.046875 -6.8125 C 11.773438 -7.195312 11.335938 -7.390625 10.734375 -7.390625 C 10.128906 -7.390625 9.613281 -7.179688 9.1875 -6.765625 C 8.769531 -6.359375 8.503906 -5.804688 8.390625 -5.109375 L 7.578125 0 L 6 0 L 6.84375 -5.25 C 6.945312 -5.894531 6.851562 -6.410156 6.5625 -6.796875 C 6.28125 -7.191406 5.847656 -7.390625 5.265625 -7.390625 C 4.660156 -7.390625 4.144531 -7.179688 3.71875 -6.765625 C 3.289062 -6.359375 3.015625 -5.8125 2.890625 -5.125 Z M 2.09375 0 "/></g></g></g></svg>