<svg xmlns="http://www.w3.org/2000/svg" xmlns:xlink="http://www.w3.org/1999/xlink" width="380" zoomAndPan="magnify" viewBox="0 0 285 97.5" height="130" preserveAspectRatio="xMidYMid meet" version="1.2"><defs><clipPath id="c53b7d39d9"><path d="M 178 82 L 214 82 L 214 87.300781 L 178 87.300781 Z M 178 82 "/></clipPath><clipPath id="5243f84393"><path d="M 71 82 L 107 82 L 107 87.300781 L 71 87.300781 Z M 71 82 "/></clipPath><clipPath id="9e7991282f"><path d="M 209 82 L 246.914062 82 L 246.914062 87.300781 L 209 87.300781 Z M 209 82 "/></clipPath><clipPath id="fde0b6715a"><path d="M 38 82 L 76 82 L 76 87.300781 L 38 87.300781 Z M 38 82 "/></clipPath><clipPath id="03fc986db0"><path d="M 133 82 L 172 82 L 172 87.300781 L 133 87.300781 Z M 133 82 "/></clipPath><clipPath id="d58f259310"><path d="M 126 9.699219 L 138 9.699219 L 138 21 L 126 21 Z M 126 9.699219 "/></clipPath><clipPath id="229ffe7d9e"><path d="M 113 82 L 151 82 L 151 87.300781 L 113 87.300781 Z M 113 82 "/></clipPath><clipPath id="91b3245c4f"><path d="M 153 82 L 192 82 L 192 87.300781 L 153 87.300781 Z M 153 82 "/></clipPath><clipPath id="b5c39434b3"><path d="M 94 82 L 132 82 L 132 87.300781 L 94 87.300781 Z M 94 82 "/></clipPath></defs><g id="9303df5224"><path style=" stroke:none;fill-rule:nonzero;fill:#000000;fill-opacity:1;" d="M 188.386719 74.042969 C 188.386719 74.042969 182.433594 71.03125 182.433594 54.5625 C 182.433594 38.089844 198.988281 30.253906 198.988281 30.253906 L 198.988281 34.875 L 204.488281 35.078125 C 204.488281 35.078125 204.6875 44.714844 215.972656 44.714844 L 215.972656 52.320312 L 213.359375 52.320312 L 215.972656 53.511719 L 215.089844 54.761719 L 200.261719 54.789062 L 208.078125 69.9375 L 203.683594 74.042969 C 203.683594 79.566406 209.679688 82.617188 209.679688 82.617188 L 182.433594 82.617188 C 182.433594 82.617188 188.386719 79.066406 188.386719 74.042969 "/><g clip-rule="nonzero" clip-path="url(#c53b7d39d9)"><path style=" stroke:none;fill-rule:nonzero;fill:#737373;fill-opacity:1;" d="M 180.078125 84.925781 L 180.078125 82.617188 L 212.039062 82.617188 L 212.039062 84.925781 L 213.5 84.925781 L 213.5 87.234375 L 178.617188 87.234375 L 178.617188 84.925781 L 180.078125 84.925781 "/></g><path style=" stroke:none;fill-rule:nonzero;fill:#000000;fill-opacity:1;" d="M 96.910156 74.042969 C 96.910156 74.042969 102.855469 71.03125 102.855469 54.5625 C 102.855469 38.089844 86.304688 30.253906 86.304688 30.253906 L 86.304688 34.875 L 80.804688 35.078125 C 80.804688 35.078125 80.605469 44.714844 69.320312 44.714844 L 69.320312 52.320312 L 71.933594 52.320312 L 69.320312 53.511719 L 70.203125 54.761719 L 85.03125 54.789062 L 77.210938 69.9375 L 81.609375 74.042969 C 81.609375 79.566406 75.617188 82.617188 75.617188 82.617188 L 102.855469 82.617188 C 102.855469 82.617188 96.910156 79.066406 96.910156 74.042969 "/><g clip-rule="nonzero" clip-path="url(#5243f84393)"><path style=" stroke:none;fill-rule:nonzero;fill:#737373;fill-opacity:1;" d="M 105.214844 84.925781 L 105.214844 82.617188 L 73.253906 82.617188 L 73.253906 84.925781 L 71.792969 84.925781 L 71.792969 87.234375 L 106.679688 87.234375 L 106.679688 84.925781 L 105.214844 84.925781 "/></g><g clip-rule="nonzero" clip-path="url(#9e7991282f)"><path style=" stroke:none;fill-rule:nonzero;fill:#737373;fill-opacity:1;" d="M 245.371094 84.734375 L 245.371094 82.234375 L 210.78125 82.234375 L 210.78125 84.734375 L 209.203125 84.734375 L 209.203125 87.234375 L 246.949219 87.234375 L 246.949219 84.734375 L 245.371094 84.734375 "/></g><path style=" stroke:none;fill-rule:nonzero;fill:#737373;fill-opacity:1;" d="M 235.886719 44.707031 L 235.886719 47.445312 L 233.367188 47.445312 L 233.367188 44.707031 L 229.335938 44.707031 L 229.335938 47.445312 L 226.816406 47.445312 L 226.816406 44.707031 L 222.785156 44.707031 L 222.785156 47.445312 L 220.265625 47.445312 L 220.265625 44.707031 L 217.570312 44.707031 L 217.570312 54.195312 L 238.582031 54.195312 L 238.582031 44.707031 L 235.886719 44.707031 "/><path style=" stroke:none;fill-rule:nonzero;fill:#000000;fill-opacity:1;" d="M 242.8125 82.234375 C 242.8125 82.234375 231.882812 70.460938 231.882812 57.09375 L 234.867188 57.09375 L 234.867188 54.195312 L 221.28125 54.195312 L 221.28125 57.09375 L 224.269531 57.09375 C 224.269531 70.679688 213.335938 82.234375 213.335938 82.234375 L 242.8125 82.234375 "/><g clip-rule="nonzero" clip-path="url(#fde0b6715a)"><path style=" stroke:none;fill-rule:nonzero;fill:#737373;fill-opacity:1;" d="M 74.171875 84.734375 L 74.171875 82.234375 L 39.585938 82.234375 L 39.585938 84.734375 L 38.003906 84.734375 L 38.003906 87.234375 L 75.753906 87.234375 L 75.753906 84.734375 L 74.171875 84.734375 "/></g><path style=" stroke:none;fill-rule:nonzero;fill:#737373;fill-opacity:1;" d="M 64.691406 44.707031 L 64.691406 47.445312 L 62.167969 47.445312 L 62.167969 44.707031 L 58.136719 44.707031 L 58.136719 47.445312 L 55.617188 47.445312 L 55.617188 44.707031 L 51.589844 44.707031 L 51.589844 47.445312 L 49.070312 47.445312 L 49.070312 44.707031 L 46.375 44.707031 L 46.375 54.195312 L 67.386719 54.195312 L 67.386719 44.707031 L 64.691406 44.707031 "/><path style=" stroke:none;fill-rule:nonzero;fill:#000000;fill-opacity:1;" d="M 71.617188 82.234375 C 71.617188 82.234375 60.683594 70.460938 60.683594 57.09375 L 63.671875 57.09375 L 63.671875 54.195312 L 50.085938 54.195312 L 50.085938 57.09375 L 53.074219 57.09375 C 53.074219 70.679688 42.140625 82.234375 42.140625 82.234375 L 71.617188 82.234375 "/><path style=" stroke:none;fill-rule:nonzero;fill:#737373;fill-opacity:1;" d="M 159.441406 31.910156 C 159.441406 35.765625 156.414062 38.894531 152.675781 38.894531 C 148.941406 38.894531 145.910156 35.765625 145.910156 31.910156 C 145.910156 28.050781 148.941406 24.925781 152.675781 24.925781 C 156.414062 24.925781 159.441406 28.050781 159.441406 31.910156 "/><path style=" stroke:none;fill-rule:nonzero;fill:#737373;fill-opacity:1;" d="M 154.457031 23.625 C 154.457031 24.640625 153.660156 25.460938 152.675781 25.460938 C 151.695312 25.460938 150.898438 24.640625 150.898438 23.625 C 150.898438 22.609375 151.695312 21.789062 152.675781 21.789062 C 153.660156 21.789062 154.457031 22.609375 154.457031 23.625 "/><path style=" stroke:none;fill-rule:nonzero;fill:#000000;fill-opacity:1;" d="M 157.785156 52.746094 L 147.132812 52.746094 C 147.132812 70.859375 137.9375 82.234375 137.9375 82.234375 L 167.417969 82.234375 C 167.417969 82.234375 157.785156 71.152344 157.785156 52.746094 "/><path style=" stroke:none;fill-rule:nonzero;fill:#000000;fill-opacity:1;" d="M 140.863281 33.078125 L 140.863281 34.996094 L 142.96875 34.996094 C 142.96875 34.996094 147.316406 36.734375 147.316406 40.574219 L 147.316406 46.949219 L 158.039062 46.949219 L 158.039062 40.574219 C 158.039062 36.445312 162.386719 34.996094 162.386719 34.996094 L 164.492188 34.996094 L 164.492188 33.078125 L 140.863281 33.078125 "/><g clip-rule="nonzero" clip-path="url(#03fc986db0)"><path style=" stroke:none;fill-rule:nonzero;fill:#737373;fill-opacity:1;" d="M 169.972656 82.234375 L 135.382812 82.234375 L 135.382812 84.734375 L 133.804688 84.734375 L 133.804688 87.234375 L 171.554688 87.234375 L 171.554688 84.734375 L 169.972656 84.734375 L 169.972656 82.234375 "/></g><path style=" stroke:none;fill-rule:nonzero;fill:#737373;fill-opacity:1;" d="M 159.46875 46.949219 L 145.886719 46.949219 L 145.886719 49.847656 L 144.269531 49.847656 L 144.269531 52.746094 L 161.085938 52.746094 L 161.085938 49.847656 L 159.46875 49.847656 L 159.46875 46.949219 "/><path style=" stroke:none;fill-rule:nonzero;fill:#000000;fill-opacity:1;" d="M 137.152344 44.054688 L 126.5 44.054688 C 126.5 67.527344 117.308594 82.234375 117.308594 82.234375 L 146.785156 82.234375 C 146.785156 82.234375 137.152344 67.816406 137.152344 44.054688 "/><path style=" stroke:none;fill-rule:nonzero;fill:#000000;fill-opacity:1;" d="M 136.109375 38.257812 L 127.875 38.257812 C 127.875 38.257812 125.019531 30.914062 122.84375 25.621094 C 122.554688 24.914062 121.796875 23.53125 123.207031 22.578125 C 124.757812 21.527344 127.820312 20.050781 131.992188 20.050781 C 135.945312 20.050781 139.148438 21.597656 140.777344 22.636719 C 141.972656 23.402344 141.453125 24.980469 141.121094 25.660156 C 139.625 28.703125 136.109375 38.257812 136.109375 38.257812 "/><g clip-rule="nonzero" clip-path="url(#d58f259310)"><path style=" stroke:none;fill-rule:nonzero;fill:#737373;fill-opacity:1;" d="M 130.828125 17.285156 C 130.828125 17.191406 130.828125 17.121094 130.828125 17.109375 C 130.828125 17.121094 130.828125 17.175781 130.828125 17.285156 Z M 129.804688 13.832031 C 129.902344 13.832031 129.972656 13.832031 129.984375 13.832031 C 129.972656 13.832031 129.917969 13.832031 129.804688 13.832031 Z M 134.285156 13.832031 C 133.941406 13.832031 133.597656 13.832031 133.261719 13.832031 C 133.261719 13.414062 133.261719 13.03125 133.261719 12.808594 C 133.261719 11.148438 135.050781 9.707031 135.050781 9.707031 L 129.039062 9.707031 C 129.039062 9.707031 130.828125 11.308594 130.828125 12.808594 C 130.828125 13.152344 130.828125 13.492188 130.828125 13.832031 C 130.4375 13.832031 130.089844 13.832031 129.804688 13.832031 C 128.148438 13.828125 126.707031 12.042969 126.707031 12.042969 L 126.707031 18.054688 C 126.707031 18.054688 128.304688 16.261719 129.804688 16.261719 C 130.242188 16.261719 130.578125 16.261719 130.828125 16.261719 C 130.828125 16.652344 130.828125 17 130.828125 17.289062 C 130.828125 18.945312 129.039062 20.386719 129.039062 20.386719 L 135.050781 20.386719 C 135.050781 20.386719 133.261719 18.789062 133.261719 17.285156 C 133.261719 16.851562 133.261719 16.519531 133.261719 16.261719 C 133.679688 16.261719 134.0625 16.261719 134.285156 16.261719 C 135.941406 16.261719 137.386719 18.054688 137.386719 18.054688 L 137.386719 12.042969 C 137.386719 12.042969 135.785156 13.832031 134.285156 13.832031 "/></g><g clip-rule="nonzero" clip-path="url(#229ffe7d9e)"><path style=" stroke:none;fill-rule:nonzero;fill:#737373;fill-opacity:1;" d="M 149.339844 82.234375 L 114.75 82.234375 L 114.75 84.734375 L 113.171875 84.734375 L 113.171875 87.234375 L 150.917969 87.234375 L 150.917969 84.734375 L 149.339844 84.734375 L 149.339844 82.234375 "/></g><path style=" stroke:none;fill-rule:nonzero;fill:#737373;fill-opacity:1;" d="M 138.839844 38.257812 L 125.25 38.257812 L 125.25 41.15625 L 123.636719 41.15625 L 123.636719 44.054688 L 140.453125 44.054688 L 140.453125 41.15625 L 138.839844 41.15625 L 138.839844 38.257812 "/><path style=" stroke:none;fill-rule:nonzero;fill:#737373;fill-opacity:1;" d="M 174.714844 34.035156 C 174.714844 35.191406 173.773438 36.128906 172.617188 36.128906 C 171.464844 36.128906 170.527344 35.191406 170.527344 34.035156 C 170.527344 32.878906 171.464844 31.941406 172.617188 31.941406 C 173.773438 31.941406 174.714844 32.878906 174.714844 34.035156 "/><g clip-rule="nonzero" clip-path="url(#91b3245c4f)"><path style=" stroke:none;fill-rule:nonzero;fill:#737373;fill-opacity:1;" d="M 189.914062 82.234375 L 155.324219 82.234375 L 155.324219 84.734375 L 153.746094 84.734375 L 153.746094 87.234375 L 191.496094 87.234375 L 191.496094 84.734375 L 189.914062 84.734375 L 189.914062 82.234375 "/></g><path style=" stroke:none;fill-rule:nonzero;fill:#737373;fill-opacity:1;" d="M 172.617188 34.433594 C 172.40625 35.738281 170.523438 37.585938 168.570312 39.667969 L 171.710938 42.808594 C 171.996094 43.09375 171.996094 43.558594 171.710938 43.84375 C 171.425781 44.132812 170.957031 44.132812 170.671875 43.84375 L 167.574219 40.75 C 165.695312 42.855469 164.003906 45.136719 164.003906 47.3125 C 164.003906 52.226562 167.859375 56.210938 172.617188 56.222656 C 177.378906 56.210938 181.234375 52.226562 181.234375 47.3125 C 181.234375 42.527344 173.074219 37.234375 172.617188 34.433594 "/><path style=" stroke:none;fill-rule:nonzero;fill:#000000;fill-opacity:1;" d="M 187.359375 82.234375 C 187.359375 82.234375 176.421875 70.460938 176.421875 57.09375 L 179.410156 57.09375 L 179.410156 54.195312 L 165.828125 54.195312 L 165.828125 57.09375 L 168.8125 57.09375 C 168.8125 70.679688 157.878906 82.234375 157.878906 82.234375 L 187.359375 82.234375 "/><path style=" stroke:none;fill-rule:nonzero;fill:#737373;fill-opacity:1;" d="M 115.152344 34.035156 C 115.152344 35.191406 114.214844 36.128906 113.058594 36.128906 C 111.902344 36.128906 110.96875 35.191406 110.96875 34.035156 C 110.96875 32.878906 111.902344 31.941406 113.058594 31.941406 C 114.214844 31.941406 115.152344 32.878906 115.152344 34.035156 "/><g clip-rule="nonzero" clip-path="url(#b5c39434b3)"><path style=" stroke:none;fill-rule:nonzero;fill:#737373;fill-opacity:1;" d="M 130.351562 82.234375 L 95.765625 82.234375 L 95.765625 84.734375 L 94.1875 84.734375 L 94.1875 87.234375 L 131.933594 87.234375 L 131.933594 84.734375 L 130.351562 84.734375 L 130.351562 82.234375 "/></g><path style=" stroke:none;fill-rule:nonzero;fill:#737373;fill-opacity:1;" d="M 113.058594 34.433594 C 112.847656 35.738281 110.960938 37.585938 109.011719 39.667969 L 112.152344 42.808594 C 112.4375 43.09375 112.4375 43.558594 112.152344 43.84375 C 111.863281 44.132812 111.398438 44.132812 111.109375 43.84375 L 108.019531 40.75 C 106.132812 42.855469 104.445312 45.136719 104.445312 47.3125 C 104.445312 52.226562 108.300781 56.210938 113.058594 56.222656 C 117.816406 56.210938 121.671875 52.226562 121.671875 47.3125 C 121.671875 42.527344 113.515625 37.234375 113.058594 34.433594 "/><path style=" stroke:none;fill-rule:nonzero;fill:#000000;fill-opacity:1;" d="M 127.796875 82.234375 C 127.796875 82.234375 116.863281 70.460938 116.863281 57.09375 L 119.851562 57.09375 L 119.851562 54.195312 L 106.265625 54.195312 L 106.265625 57.09375 L 109.253906 57.09375 C 109.253906 70.679688 98.320312 82.234375 98.320312 82.234375 L 127.796875 82.234375 "/></g></svg>