<svg xmlns="http://www.w3.org/2000/svg" xmlns:xlink="http://www.w3.org/1999/xlink" width="97" zoomAndPan="magnify" viewBox="0 0 72.75 72.749999" height="97" preserveAspectRatio="xMidYMid meet" version="1.2"><defs><clipPath id="9e2495e5a4"><path d="M 0 0 L 72.5 0 L 72.5 72.5 L 0 72.5 Z M 0 0 "/></clipPath></defs><g id="3603ecd5e4"><g style="fill:#000000;fill-opacity:1;"><g transform="translate(36.250427, 34.844412)"><path style="stroke:none" d="M 6 -0.28125 C 5.550781 0.15625 5.015625 0.375 4.390625 0.375 C 3.773438 0.375 3.238281 0.15625 2.78125 -0.28125 C 2.332031 -0.726562 2.109375 -1.25 2.109375 -1.84375 C 2.109375 -2.46875 2.332031 -3 2.78125 -3.4375 C 3.238281 -3.882812 3.773438 -4.109375 4.390625 -4.109375 C 5.015625 -4.109375 5.550781 -3.882812 6 -3.4375 C 6.445312 -3 6.671875 -2.46875 6.671875 -1.84375 C 6.671875 -1.25 6.445312 -0.726562 6 -0.28125 Z M 6 -0.28125 "/></g></g><g clip-rule="nonzero" clip-path="url(#9e2495e5a4)"><path style=" stroke:none;fill-rule:nonzero;fill:#e8dcd9;fill-opacity:1;" d="M 72.5 36.25 C 72.5 37.4375 72.441406 38.621094 72.328125 39.804688 C 72.210938 40.984375 72.035156 42.15625 71.804688 43.324219 C 71.574219 44.488281 71.285156 45.636719 70.941406 46.773438 C 70.59375 47.910156 70.195312 49.027344 69.742188 50.121094 C 69.285156 51.21875 68.78125 52.292969 68.21875 53.339844 C 67.660156 54.386719 67.050781 55.402344 66.390625 56.390625 C 65.730469 57.378906 65.027344 58.328125 64.273438 59.246094 C 63.519531 60.164062 62.722656 61.042969 61.882812 61.882812 C 61.042969 62.722656 60.164062 63.519531 59.246094 64.273438 C 58.328125 65.027344 57.378906 65.730469 56.390625 66.390625 C 55.402344 67.050781 54.386719 67.660156 53.339844 68.21875 C 52.292969 68.78125 51.21875 69.285156 50.121094 69.742188 C 49.027344 70.195312 47.910156 70.59375 46.773438 70.941406 C 45.636719 71.285156 44.488281 71.574219 43.324219 71.804688 C 42.15625 72.035156 40.984375 72.210938 39.804688 72.328125 C 38.621094 72.441406 37.4375 72.5 36.25 72.5 C 35.0625 72.5 33.878906 72.441406 32.695312 72.328125 C 31.515625 72.210938 30.34375 72.035156 29.179688 71.804688 C 28.015625 71.574219 26.863281 71.285156 25.726562 70.941406 C 24.589844 70.59375 23.476562 70.195312 22.378906 69.742188 C 21.28125 69.285156 20.210938 68.78125 19.160156 68.21875 C 18.113281 67.660156 17.097656 67.050781 16.109375 66.390625 C 15.125 65.730469 14.171875 65.027344 13.253906 64.273438 C 12.335938 63.519531 11.457031 62.722656 10.617188 61.882812 C 9.777344 61.042969 8.980469 60.164062 8.226562 59.246094 C 7.476562 58.328125 6.769531 57.378906 6.109375 56.390625 C 5.449219 55.402344 4.839844 54.386719 4.28125 53.339844 C 3.722656 52.292969 3.214844 51.21875 2.757812 50.121094 C 2.304688 49.027344 1.90625 47.910156 1.5625 46.773438 C 1.214844 45.636719 0.929688 44.488281 0.695312 43.324219 C 0.464844 42.15625 0.289062 40.984375 0.175781 39.804688 C 0.0585938 38.621094 0 37.4375 0 36.25 C 0 35.0625 0.0585938 33.878906 0.175781 32.699219 C 0.289062 31.515625 0.464844 30.34375 0.695312 29.179688 C 0.929688 28.015625 1.214844 26.863281 1.5625 25.726562 C 1.90625 24.589844 2.304688 23.476562 2.757812 22.378906 C 3.214844 21.28125 3.722656 20.210938 4.28125 19.160156 C 4.839844 18.113281 5.449219 17.097656 6.109375 16.109375 C 6.769531 15.125 7.476562 14.171875 8.226562 13.253906 C 8.980469 12.335938 9.777344 11.457031 10.617188 10.617188 C 11.457031 9.777344 12.335938 8.980469 13.253906 8.226562 C 14.171875 7.476562 15.125 6.769531 16.109375 6.109375 C 17.097656 5.449219 18.113281 4.839844 19.160156 4.28125 C 20.210938 3.722656 21.28125 3.214844 22.378906 2.757812 C 23.476562 2.304688 24.589844 1.90625 25.726562 1.5625 C 26.863281 1.214844 28.015625 0.929688 29.179688 0.695312 C 30.34375 0.464844 31.515625 0.289062 32.695312 0.175781 C 33.878906 0.0585938 35.0625 0 36.25 0 C 37.4375 0 38.621094 0.0585938 39.804688 0.175781 C 40.984375 0.289062 42.15625 0.464844 43.324219 0.695312 C 44.488281 0.929688 45.636719 1.214844 46.773438 1.5625 C 47.910156 1.90625 49.027344 2.304688 50.121094 2.757812 C 51.21875 3.214844 52.292969 3.722656 53.339844 4.28125 C 54.386719 4.839844 55.402344 5.449219 56.390625 6.109375 C 57.378906 6.769531 58.328125 7.476562 59.246094 8.226562 C 60.164062 8.980469 61.042969 9.777344 61.882812 10.617188 C 62.722656 11.457031 63.519531 12.335938 64.273438 13.253906 C 65.027344 14.171875 65.730469 15.125 66.390625 16.109375 C 67.050781 17.097656 67.660156 18.113281 68.21875 19.160156 C 68.78125 20.210938 69.285156 21.28125 69.742188 22.378906 C 70.195312 23.476562 70.59375 24.589844 70.941406 25.726562 C 71.285156 26.863281 71.574219 28.015625 71.804688 29.179688 C 72.035156 30.34375 72.210938 31.515625 72.328125 32.699219 C 72.441406 33.878906 72.5 35.0625 72.5 36.25 Z M 72.5 36.25 "/></g><path style=" stroke:none;fill-rule:nonzero;fill:#ffffff;fill-opacity:1;" d="M 59.8125 36.125 C 59.8125 36.894531 59.773438 37.664062 59.699219 38.433594 C 59.621094 39.199219 59.507812 39.960938 59.355469 40.71875 C 59.207031 41.472656 59.019531 42.222656 58.792969 42.960938 C 58.570312 43.699219 58.308594 44.421875 58.015625 45.136719 C 57.71875 45.847656 57.390625 46.542969 57.023438 47.222656 C 56.660156 47.902344 56.265625 48.566406 55.835938 49.207031 C 55.40625 49.847656 54.949219 50.464844 54.457031 51.0625 C 53.96875 51.65625 53.449219 52.226562 52.90625 52.773438 C 52.359375 53.320312 51.789062 53.835938 51.191406 54.324219 C 50.597656 54.8125 49.976562 55.273438 49.335938 55.699219 C 48.695312 56.128906 48.03125 56.523438 47.351562 56.886719 C 46.671875 57.253906 45.976562 57.582031 45.261719 57.875 C 44.550781 58.171875 43.824219 58.429688 43.085938 58.65625 C 42.347656 58.878906 41.601562 59.066406 40.84375 59.214844 C 40.089844 59.367188 39.328125 59.480469 38.558594 59.554688 C 37.792969 59.628906 37.023438 59.667969 36.25 59.667969 L 36.25 48.574219 C 37.070312 48.574219 37.878906 48.496094 38.679688 48.335938 C 39.484375 48.175781 40.261719 47.9375 41.019531 47.625 C 41.773438 47.3125 42.492188 46.929688 43.171875 46.472656 C 43.855469 46.019531 44.484375 45.503906 45.0625 44.925781 C 45.640625 44.34375 46.15625 43.714844 46.613281 43.035156 C 47.066406 42.355469 47.449219 41.636719 47.765625 40.882812 C 48.078125 40.125 48.3125 39.347656 48.472656 38.542969 C 48.632812 37.742188 48.714844 36.929688 48.714844 36.113281 Z M 59.8125 36.125 "/><path style=" stroke:none;fill-rule:nonzero;fill:#ffffff;fill-opacity:1;" d="M 36.25 12.574219 L 36.25 23.660156 C 35.433594 23.660156 34.621094 23.742188 33.820312 23.902344 C 33.015625 24.0625 32.238281 24.296875 31.480469 24.609375 C 30.726562 24.921875 30.007812 25.308594 29.328125 25.761719 C 28.648438 26.21875 28.019531 26.734375 27.441406 27.3125 C 26.863281 27.890625 26.34375 28.519531 25.890625 29.199219 C 25.4375 29.882812 25.050781 30.597656 24.738281 31.355469 C 24.425781 32.109375 24.191406 32.890625 24.03125 33.691406 C 23.871094 34.496094 23.792969 35.304688 23.792969 36.125 L 12.707031 36.125 C 12.707031 35.351562 12.746094 34.582031 12.820312 33.816406 C 12.894531 33.046875 13.011719 32.285156 13.160156 31.53125 C 13.3125 30.773438 13.5 30.027344 13.722656 29.289062 C 13.945312 28.550781 14.207031 27.828125 14.5 27.113281 C 14.796875 26.402344 15.125 25.707031 15.488281 25.027344 C 15.855469 24.347656 16.25 23.6875 16.679688 23.046875 C 17.105469 22.40625 17.566406 21.785156 18.054688 21.191406 C 18.542969 20.59375 19.0625 20.023438 19.605469 19.476562 C 20.152344 18.933594 20.722656 18.414062 21.316406 17.925781 C 21.914062 17.4375 22.53125 16.976562 23.171875 16.550781 C 23.8125 16.121094 24.472656 15.726562 25.152344 15.359375 C 25.835938 14.996094 26.53125 14.667969 27.242188 14.371094 C 27.953125 14.078125 28.679688 13.816406 29.417969 13.59375 C 30.15625 13.371094 30.902344 13.179688 31.65625 13.03125 C 32.414062 12.878906 33.175781 12.765625 33.941406 12.691406 C 34.710938 12.613281 35.480469 12.574219 36.25 12.574219 Z M 36.25 12.574219 "/><path style=" stroke:none;fill-rule:nonzero;fill:#ffffff;fill-opacity:1;" d="M 43.460938 36.253906 C 43.460938 36.726562 43.414062 37.195312 43.320312 37.660156 C 43.230469 38.125 43.09375 38.574219 42.910156 39.011719 C 42.730469 39.449219 42.507812 39.863281 42.246094 40.257812 C 41.984375 40.652344 41.683594 41.015625 41.351562 41.351562 C 41.015625 41.683594 40.652344 41.984375 40.257812 42.246094 C 39.863281 42.507812 39.449219 42.730469 39.011719 42.910156 C 38.574219 43.09375 38.125 43.230469 37.660156 43.320312 C 37.195312 43.414062 36.726562 43.460938 36.253906 43.460938 C 35.78125 43.460938 35.3125 43.414062 34.847656 43.320312 C 34.382812 43.230469 33.933594 43.09375 33.496094 42.910156 C 33.058594 42.730469 32.644531 42.507812 32.25 42.246094 C 31.855469 41.984375 31.492188 41.683594 31.160156 41.351562 C 30.824219 41.015625 30.523438 40.652344 30.261719 40.257812 C 30 39.863281 29.777344 39.449219 29.597656 39.011719 C 29.414062 38.574219 29.277344 38.125 29.1875 37.660156 C 29.09375 37.195312 29.046875 36.726562 29.046875 36.253906 C 29.046875 35.78125 29.09375 35.3125 29.1875 34.847656 C 29.277344 34.382812 29.414062 33.933594 29.597656 33.496094 C 29.777344 33.058594 30 32.644531 30.261719 32.25 C 30.523438 31.855469 30.824219 31.492188 31.160156 31.160156 C 31.492188 30.824219 31.855469 30.523438 32.25 30.261719 C 32.644531 30 33.058594 29.777344 33.496094 29.597656 C 33.933594 29.414062 34.382812 29.277344 34.847656 29.1875 C 35.3125 29.09375 35.78125 29.046875 36.253906 29.046875 C 36.726562 29.046875 37.195312 29.09375 37.660156 29.1875 C 38.125 29.277344 38.574219 29.414062 39.011719 29.597656 C 39.449219 29.777344 39.863281 30 40.257812 30.261719 C 40.652344 30.523438 41.015625 30.824219 41.351562 31.160156 C 41.683594 31.492188 41.984375 31.855469 42.246094 32.25 C 42.507812 32.644531 42.730469 33.058594 42.910156 33.496094 C 43.09375 33.933594 43.230469 34.382812 43.320312 34.847656 C 43.414062 35.3125 43.460938 35.78125 43.460938 36.253906 Z M 43.460938 36.253906 "/></g></svg>