<svg xmlns="http://www.w3.org/2000/svg" xmlns:xlink="http://www.w3.org/1999/xlink" width="40" zoomAndPan="magnify" viewBox="0 0 30 30.000001" height="40" preserveAspectRatio="xMidYMid meet" version="1.2"><defs><clipPath id="5b3ad20901"><path d="M 0.554688 3 L 29.515625 3 L 29.515625 27 L 0.554688 27 Z M 0.554688 3 "/></clipPath></defs><g id="df9dda623c"><g style="fill:#000000;fill-opacity:1;"><g transform="translate(10.722278, 7.901777)"><path style="stroke:none" d="M 0.984375 -0.046875 C 0.910156 0.0234375 0.820312 0.0625 0.71875 0.0625 C 0.625 0.0625 0.535156 0.0234375 0.453125 -0.046875 C 0.378906 -0.117188 0.34375 -0.203125 0.34375 -0.296875 C 0.34375 -0.398438 0.378906 -0.488281 0.453125 -0.5625 C 0.535156 -0.632812 0.625 -0.671875 0.71875 -0.671875 C 0.820312 -0.671875 0.910156 -0.632812 0.984375 -0.5625 C 1.054688 -0.488281 1.09375 -0.398438 1.09375 -0.296875 C 1.09375 -0.203125 1.054688 -0.117188 0.984375 -0.046875 Z M 0.984375 -0.046875 "/></g></g><g clip-rule="nonzero" clip-path="url(#5b3ad20901)"><path style=" stroke:none;fill-rule:nonzero;fill:#ffffff;fill-opacity:1;" d="M 12.351562 19.699219 C 12.351562 22.457031 10.117188 24.6875 7.359375 24.6875 C 4.605469 24.6875 2.371094 22.457031 2.371094 19.699219 C 2.371094 16.941406 4.605469 14.710938 7.359375 14.710938 C 10.117188 14.710938 12.351562 16.941406 12.351562 19.699219 Z M 22.785156 14.710938 C 20.027344 14.710938 17.792969 16.941406 17.792969 19.699219 C 17.792969 22.457031 20.027344 24.6875 22.785156 24.6875 C 25.539062 24.6875 27.773438 22.457031 27.773438 19.699219 C 27.773438 16.941406 25.539062 14.710938 22.785156 14.710938 Z M 29.589844 19.699219 C 29.589844 23.457031 26.542969 26.503906 22.785156 26.503906 C 19.660156 26.503906 17.039062 24.398438 16.238281 21.535156 C 15.921875 21.800781 15.515625 21.96875 15.070312 21.96875 C 14.625 21.96875 14.222656 21.800781 13.90625 21.535156 C 13.105469 24.398438 10.480469 26.503906 7.359375 26.503906 C 3.601562 26.503906 0.554688 23.457031 0.554688 19.699219 C 0.554688 18.613281 0.816406 17.59375 1.265625 16.683594 L 4.457031 9.015625 C 4.878906 7.769531 5.785156 6.75 6.945312 6.167969 C 7.128906 4.84375 8.253906 3.824219 9.628906 3.824219 C 11.132812 3.824219 12.351562 5.039062 12.351562 6.542969 C 12.351562 6.617188 12.335938 6.6875 12.328125 6.761719 C 13.449219 7.675781 14.164062 9.066406 14.164062 10.625 C 14.164062 10.832031 14.164062 11.070312 14.164062 11.332031 C 14.433594 11.175781 14.738281 11.082031 15.070312 11.082031 C 15.402344 11.082031 15.710938 11.175781 15.980469 11.332031 C 15.980469 11.070312 15.980469 10.832031 15.980469 10.625 C 15.980469 9.046875 16.714844 7.640625 17.863281 6.726562 C 17.855469 6.664062 17.84375 6.605469 17.84375 6.542969 C 17.84375 5.039062 19.0625 3.824219 20.566406 3.824219 C 21.949219 3.824219 23.078125 4.855469 23.253906 6.191406 C 24.386719 6.777344 25.269531 7.789062 25.6875 9.015625 L 28.878906 16.683594 C 29.328125 17.59375 29.589844 18.613281 29.589844 19.699219 Z M 13.257812 19.699219 C 13.257812 16.441406 10.617188 13.800781 7.359375 13.800781 C 4.101562 13.800781 1.464844 16.441406 1.464844 19.699219 C 1.464844 22.957031 4.101562 25.597656 7.359375 25.597656 C 10.617188 25.597656 13.257812 22.957031 13.257812 19.699219 Z M 15.980469 20.152344 C 15.980469 19.652344 15.574219 19.246094 15.070312 19.246094 C 14.570312 19.246094 14.164062 19.652344 14.164062 20.152344 C 14.164062 20.652344 14.570312 21.058594 15.070312 21.058594 C 15.574219 21.058594 15.980469 20.652344 15.980469 20.152344 Z M 28.679688 19.699219 C 28.679688 16.441406 26.039062 13.800781 22.785156 13.800781 C 19.527344 13.800781 16.886719 16.441406 16.886719 19.699219 C 16.886719 22.957031 19.527344 25.597656 22.785156 25.597656 C 26.039062 25.597656 28.679688 22.957031 28.679688 19.699219 Z M 28.679688 19.699219 "/></g></g></svg>