<svg xmlns="http://www.w3.org/2000/svg" xmlns:xlink="http://www.w3.org/1999/xlink" width="97" zoomAndPan="magnify" viewBox="0 0 72.75 72.749999" height="97" preserveAspectRatio="xMidYMid meet" version="1.2"><defs><clipPath id="d6c34c4b92"><path d="M 8 8 L 61 8 L 61 65 L 8 65 Z M 8 8 "/></clipPath><clipPath id="61700837f4"><path d="M 22.359375 2.757812 L 69.925781 50.324219 L 50.371094 69.878906 L 2.804688 22.3125 Z M 22.359375 2.757812 "/></clipPath><clipPath id="321183f0dd"><path d="M 22.359375 2.757812 L 69.925781 50.324219 L 50.371094 69.878906 L 2.804688 22.3125 Z M 22.359375 2.757812 "/></clipPath></defs><g id="c9893d6339"><g clip-rule="nonzero" clip-path="url(#d6c34c4b92)"><g clip-rule="nonzero" clip-path="url(#61700837f4)"><g clip-rule="nonzero" clip-path="url(#321183f0dd)"><path style=" stroke:none;fill-rule:nonzero;fill:#ffffff;fill-opacity:1;" d="M 60.339844 57.523438 L 33.4375 30.621094 C 34.152344 29.679688 34.746094 28.636719 35.1875 27.53125 C 35.867188 25.875 36.207031 24.121094 36.207031 22.332031 C 36.207031 20.542969 35.867188 18.792969 35.1875 17.132812 C 34.492188 15.417969 33.472656 13.875 32.15625 12.554688 C 30.835938 11.238281 29.300781 10.210938 27.578125 9.523438 C 25.917969 8.84375 24.167969 8.503906 22.378906 8.503906 C 20.585938 8.503906 18.835938 8.84375 17.175781 9.523438 C 15.464844 10.21875 13.917969 11.238281 12.601562 12.554688 C 11.28125 13.875 10.253906 15.410156 9.566406 17.132812 C 8.886719 18.792969 8.550781 20.542969 8.550781 22.332031 C 8.550781 24.121094 8.886719 25.875 9.566406 27.53125 C 10.265625 29.246094 11.28125 30.792969 12.601562 32.109375 C 13.917969 33.429688 15.453125 34.457031 17.175781 35.144531 C 18.835938 35.820312 20.585938 36.160156 22.378906 36.160156 C 24.167969 36.160156 25.917969 35.820312 27.578125 35.144531 C 28.6875 34.691406 29.722656 34.109375 30.667969 33.390625 L 47.574219 50.300781 C 47.519531 50.335938 47.472656 50.367188 47.441406 50.394531 L 44.089844 53.746094 C 43.996094 53.839844 43.796875 54.113281 44.0625 54.546875 C 44.117188 54.640625 44.203125 54.746094 44.316406 54.878906 C 44.53125 55.132812 44.816406 55.453125 45.136719 55.773438 C 45.457031 56.09375 45.765625 56.386719 46.03125 56.59375 C 46.160156 56.703125 46.273438 56.78125 46.359375 56.847656 C 46.785156 57.121094 47.054688 56.921875 47.160156 56.816406 L 50.511719 53.464844 C 50.542969 53.4375 50.578125 53.398438 50.609375 53.332031 L 52.613281 55.339844 L 47.054688 60.898438 C 46.972656 60.980469 46.773438 61.234375 46.960938 61.648438 C 47.007812 61.773438 47.09375 61.894531 47.207031 62.066406 C 47.40625 62.339844 47.695312 62.6875 48.027344 63.015625 C 48.355469 63.347656 48.6875 63.636719 48.976562 63.835938 C 49.128906 63.949219 49.269531 64.035156 49.394531 64.082031 C 49.808594 64.25 50.0625 64.070312 50.144531 63.988281 L 55.703125 58.429688 L 57.570312 60.292969 C 58.058594 60.785156 59.074219 60.558594 59.839844 59.792969 C 60.601562 59.03125 60.828125 58.015625 60.339844 57.523438 Z M 15.039062 29.652344 C 11 25.609375 11 19.035156 15.039062 14.996094 C 19.082031 10.953125 25.65625 10.953125 29.695312 14.996094 C 33.738281 19.035156 33.738281 25.609375 29.695312 29.652344 C 25.65625 33.691406 19.082031 33.691406 15.039062 29.652344 Z M 15.039062 29.652344 "/></g></g></g></g></svg>