<svg xmlns="http://www.w3.org/2000/svg" xmlns:xlink="http://www.w3.org/1999/xlink" width="120" zoomAndPan="magnify" viewBox="0 0 30 30.000001" height="120" preserveAspectRatio="xMidYMid meet" version="1.2"><defs/><g id="6929cab0f9"><g style="fill:#000000;fill-opacity:1;"><g transform="translate(10.722278, 7.901777)"><path style="stroke:none" d="M 0.984375 -0.046875 C 0.910156 0.0234375 0.820312 0.0625 0.71875 0.0625 C 0.625 0.0625 0.535156 0.0234375 0.453125 -0.046875 C 0.378906 -0.117188 0.34375 -0.203125 0.34375 -0.296875 C 0.34375 -0.398438 0.378906 -0.488281 0.453125 -0.5625 C 0.535156 -0.632812 0.625 -0.671875 0.71875 -0.671875 C 0.820312 -0.671875 0.910156 -0.632812 0.984375 -0.5625 C 1.054688 -0.488281 1.09375 -0.398438 1.09375 -0.296875 C 1.09375 -0.203125 1.054688 -0.117188 0.984375 -0.046875 Z M 0.984375 -0.046875 "/></g></g><path style=" stroke:none;fill-rule:nonzero;fill:#ffffff;fill-opacity:1;" d="M 24.433594 14.464844 C 24.433594 15.085938 24.375 15.699219 24.253906 16.304688 C 24.132812 16.914062 23.953125 17.5 23.714844 18.074219 C 23.476562 18.644531 23.1875 19.1875 22.84375 19.703125 C 22.5 20.21875 22.105469 20.695312 21.667969 21.132812 C 21.230469 21.570312 20.753906 21.960938 20.238281 22.304688 C 19.726562 22.648438 19.179688 22.9375 18.609375 23.175781 C 18.035156 23.414062 17.445312 23.589844 16.839844 23.710938 C 16.234375 23.832031 15.621094 23.894531 15 23.894531 L 15 19.453125 C 15.328125 19.453125 15.652344 19.417969 15.972656 19.355469 C 16.292969 19.292969 16.605469 19.195312 16.910156 19.070312 C 17.210938 18.945312 17.5 18.792969 17.773438 18.609375 C 18.042969 18.429688 18.296875 18.222656 18.527344 17.988281 C 18.761719 17.757812 18.96875 17.503906 19.148438 17.234375 C 19.332031 16.960938 19.484375 16.671875 19.609375 16.371094 C 19.734375 16.066406 19.832031 15.753906 19.894531 15.433594 C 19.957031 15.113281 19.992188 14.789062 19.992188 14.460938 Z M 24.433594 14.464844 "/><path style=" stroke:none;fill-rule:nonzero;fill:#ffffff;fill-opacity:1;" d="M 15 5.035156 L 15 9.476562 C 14.671875 9.476562 14.347656 9.507812 14.027344 9.570312 C 13.707031 9.636719 13.394531 9.730469 13.089844 9.855469 C 12.789062 9.980469 12.5 10.132812 12.226562 10.316406 C 11.957031 10.5 11.703125 10.707031 11.472656 10.9375 C 11.242188 11.167969 11.035156 11.421875 10.851562 11.691406 C 10.667969 11.964844 10.515625 12.253906 10.390625 12.554688 C 10.265625 12.859375 10.171875 13.171875 10.105469 13.492188 C 10.042969 13.8125 10.011719 14.136719 10.011719 14.464844 L 5.570312 14.464844 C 5.570312 13.847656 5.632812 13.234375 5.753906 12.625 C 5.875 12.019531 6.054688 11.429688 6.289062 10.859375 C 6.527344 10.285156 6.820312 9.742188 7.164062 9.226562 C 7.507812 8.714844 7.898438 8.238281 8.335938 7.800781 C 8.773438 7.363281 9.25 6.972656 9.761719 6.628906 C 10.277344 6.28125 10.820312 5.992188 11.394531 5.753906 C 11.964844 5.519531 12.554688 5.339844 13.160156 5.21875 C 13.769531 5.097656 14.382812 5.035156 15 5.035156 Z M 15 5.035156 "/><path style=" stroke:none;fill-rule:nonzero;fill:#ffffff;fill-opacity:1;" d="M 17.886719 14.519531 C 17.886719 14.898438 17.8125 15.269531 17.667969 15.621094 C 17.519531 15.976562 17.3125 16.289062 17.042969 16.558594 C 16.769531 16.828125 16.460938 17.039062 16.105469 17.183594 C 15.753906 17.332031 15.382812 17.402344 15 17.402344 C 14.617188 17.402344 14.25 17.332031 13.898438 17.183594 C 13.542969 17.039062 13.230469 16.828125 12.960938 16.558594 C 12.691406 16.289062 12.480469 15.976562 12.335938 15.621094 C 12.1875 15.269531 12.117188 14.898438 12.117188 14.519531 C 12.117188 14.136719 12.1875 13.765625 12.335938 13.414062 C 12.480469 13.058594 12.691406 12.746094 12.960938 12.476562 C 13.230469 12.207031 13.542969 11.996094 13.898438 11.851562 C 14.25 11.703125 14.617188 11.632812 15 11.632812 C 15.382812 11.632812 15.753906 11.703125 16.105469 11.851562 C 16.460938 11.996094 16.769531 12.207031 17.042969 12.476562 C 17.3125 12.746094 17.519531 13.058594 17.667969 13.414062 C 17.8125 13.765625 17.886719 14.136719 17.886719 14.519531 Z M 17.886719 14.519531 "/></g></svg>