<svg fill="#fff" xmlns="http://www.w3.org/2000/svg" width="150" viewBox="0 0 112.5 112.5" height="150" version="1.0"><defs><clipPath id="a"><path d="M11.2 14.895h89.6V97.03H11.2Zm0 0"/></clipPath></defs><path d="M67.607 44.281a1.1 1.1 0 0 1-.796.328q-.457 0-.797-.329a1.07 1.07 0 0 1-.344-.78q-.001-.47.344-.798a1.1 1.1 0 0 1 .797-.328q.468 0 .796.328.342.329.344.797-.002.44-.344.781m0 0"/><g clip-path="url(#a)"><path d="M56.129 66.457V50.121a36.5 36.5 0 0 0-6.063-.016 37.3 37.3 0 0 0-8.402 1.684c-5.539 1.79-10.84 4.953-15.273 9.27a41.44 41.44 0 0 0-10.16 15.964c-.54 1.543-1 3.13-1.368 4.747-.086.406-.175.812-.258 1.218l-.113.614q-.06.308-.11.617c-.062.414-.136.828-.187 1.242l-.086.625c-.027.203-.05.426-.074.637L12.82 97.016h-.023l-1.211-10.293c-.024-.215-.05-.422-.074-.645l-.067-.664c-.05-.441-.074-.887-.113-1.332q-.022-.334-.039-.668l-.035-.668c-.016-.45-.024-.894-.035-1.344q-.031-2.695.25-5.414c.734-7.238 3.218-14.476 7.285-20.937 4.066-6.457 9.719-12.137 16.539-16.344a53.4 53.4 0 0 1 10.98-5.145 55 55 0 0 1 9.852-2.304V14.914l44.676 25.77z"/></g></svg>