<svg xmlns="http://www.w3.org/2000/svg" xmlns:xlink="http://www.w3.org/1999/xlink" width="53" zoomAndPan="magnify" viewBox="0 0 39.75 39.749999" height="53" preserveAspectRatio="xMidYMid meet" version="1.2"><defs><clipPath id="1f3d6ee9a5"><path d="M 0 0 L 39.5 0 L 39.5 39.5 L 0 39.5 Z M 0 0 "/></clipPath><clipPath id="2b1a9babbb"><path d="M 0 0 L 39.5 0 L 39.5 39.5 L 0 39.5 Z M 0 0 "/></clipPath></defs><g id="7a67c3eaf2"><g clip-rule="nonzero" clip-path="url(#1f3d6ee9a5)"><path style=" stroke:none;fill-rule:nonzero;fill:#ffffff;fill-opacity:1;" d="M 0 0 L 39.5 0 L 39.5 39.5 L 0 39.5 Z M 0 0 "/><path style=" stroke:none;fill-rule:nonzero;fill:#ffffff;fill-opacity:1;" d="M 0 0 L 39.5 0 L 39.5 39.5 L 0 39.5 Z M 0 0 "/></g><g style="fill:#000000;fill-opacity:1;"><g transform="translate(15.358095, 31.19304)"><path style="stroke:none" d="M 5.359375 -0.25 C 4.960938 0.144531 4.488281 0.34375 3.9375 0.34375 C 3.382812 0.34375 2.90625 0.144531 2.5 -0.25 C 2.09375 -0.65625 1.890625 -1.125 1.890625 -1.65625 C 1.890625 -2.207031 2.09375 -2.679688 2.5 -3.078125 C 2.90625 -3.484375 3.382812 -3.6875 3.9375 -3.6875 C 4.488281 -3.6875 4.960938 -3.484375 5.359375 -3.078125 C 5.765625 -2.679688 5.96875 -2.207031 5.96875 -1.65625 C 5.96875 -1.125 5.765625 -0.65625 5.359375 -0.25 Z M 5.359375 -0.25 "/></g></g><g clip-rule="nonzero" clip-path="url(#2b1a9babbb)"><path style=" stroke:none;fill-rule:evenodd;fill:#000000;fill-opacity:1;" d="M 12.191406 0 L 27.3125 0 C 28.109375 0 28.902344 0.078125 29.6875 0.234375 C 30.472656 0.390625 31.234375 0.621094 31.976562 0.929688 C 32.714844 1.234375 33.417969 1.609375 34.082031 2.054688 C 34.75 2.5 35.363281 3.003906 35.929688 3.570312 C 36.496094 4.136719 37 4.753906 37.445312 5.417969 C 37.890625 6.082031 38.265625 6.785156 38.574219 7.523438 C 38.878906 8.265625 39.109375 9.027344 39.265625 9.8125 C 39.421875 10.597656 39.5 11.390625 39.5 12.191406 L 39.5 27.3125 C 39.5 28.113281 39.421875 28.902344 39.265625 29.6875 C 39.109375 30.472656 38.878906 31.238281 38.574219 31.976562 C 38.265625 32.714844 37.890625 33.417969 37.445312 34.082031 C 37 34.75 36.496094 35.363281 35.929688 35.929688 C 35.363281 36.496094 34.75 37 34.082031 37.445312 C 33.417969 37.890625 32.714844 38.265625 31.976562 38.574219 C 31.234375 38.878906 30.472656 39.109375 29.6875 39.265625 C 28.902344 39.421875 28.109375 39.5 27.3125 39.5 L 12.191406 39.5 C 11.390625 39.5 10.597656 39.421875 9.8125 39.265625 C 9.027344 39.109375 8.265625 38.878906 7.523438 38.574219 C 6.785156 38.265625 6.082031 37.890625 5.417969 37.445312 C 4.75 37 4.136719 36.496094 3.570312 35.929688 C 3.003906 35.363281 2.5 34.75 2.054688 34.082031 C 1.609375 33.417969 1.234375 32.714844 0.925781 31.976562 C 0.621094 31.238281 0.390625 30.472656 0.234375 29.6875 C 0.078125 28.902344 0 28.113281 0 27.3125 L 0 12.191406 C 0 11.390625 0.078125 10.597656 0.234375 9.8125 C 0.390625 9.027344 0.621094 8.265625 0.925781 7.523438 C 1.234375 6.785156 1.609375 6.082031 2.054688 5.417969 C 2.5 4.753906 3.003906 4.136719 3.570312 3.570312 C 4.136719 3.003906 4.75 2.5 5.417969 2.054688 C 6.082031 1.609375 6.785156 1.234375 7.523438 0.929688 C 8.265625 0.621094 9.027344 0.390625 9.8125 0.234375 C 10.597656 0.078125 11.390625 0 12.191406 0 Z M 12.191406 0 "/></g><path style=" stroke:none;fill-rule:nonzero;fill:#fefefe;fill-opacity:1;" d="M 19.105469 21.316406 L 18.109375 19.890625 L 10.191406 8.566406 L 13.601562 8.566406 L 19.988281 17.707031 L 20.984375 19.128906 L 29.289062 31.007812 L 25.878906 31.007812 Z M 22.144531 17.78125 L 31.507812 6.898438 L 29.285156 6.898438 L 21.15625 16.347656 L 14.664062 6.898438 L 7.175781 6.898438 L 16.992188 21.1875 L 7.175781 32.601562 L 9.394531 32.601562 L 17.976562 22.621094 L 24.835938 32.601562 L 32.324219 32.601562 L 22.140625 17.78125 Z M 22.144531 17.78125 "/></g></svg>