<svg xmlns="http://www.w3.org/2000/svg" xmlns:xlink="http://www.w3.org/1999/xlink" width="300" zoomAndPan="magnify" viewBox="0 0 224.87999 225" height="300" preserveAspectRatio="xMidYMid meet" version="1.0"><defs><clipPath id="7ef093c143"><path d="M 0 0.0585938 L 224.761719 0.0585938 L 224.761719 224.9375 L 0 224.9375 Z M 0 0.0585938 " clip-rule="nonzero"/></clipPath><clipPath id="7e97e9bac9"><path d="M 42.726562 0.0585938 L 182.152344 0.0585938 C 205.75 0.0585938 224.878906 19.191406 224.878906 42.789062 L 224.878906 182.210938 C 224.878906 205.808594 205.75 224.941406 182.152344 224.941406 L 42.726562 224.941406 C 19.128906 224.941406 0 205.808594 0 182.210938 L 0 42.789062 C 0 19.191406 19.128906 0.0585938 42.726562 0.0585938 Z M 42.726562 0.0585938 " clip-rule="nonzero"/></clipPath><clipPath id="8d80bd8ab1"><path d="M 40.476562 65.273438 L 184.402344 65.273438 L 184.402344 159.726562 L 40.476562 159.726562 Z M 40.476562 65.273438 " clip-rule="nonzero"/></clipPath></defs><g clip-path="url(#7ef093c143)"><g clip-path="url(#7e97e9bac9)"><path fill="#000000" d="M 0 0.0585938 L 224.878906 0.0585938 L 224.878906 224.941406 L 0 224.941406 Z M 0 0.0585938 " fill-opacity="1" fill-rule="nonzero"/></g></g><g clip-path="url(#8d80bd8ab1)"><path fill="#ffffff" d="M 162.398438 65.273438 L 62.484375 65.273438 C 50.375 65.273438 40.539062 75.109375 40.539062 87.21875 L 40.539062 137.78125 C 40.539062 149.890625 50.375 159.726562 62.484375 159.726562 L 162.398438 159.726562 C 174.503906 159.726562 184.339844 149.890625 184.339844 137.78125 L 184.339844 87.21875 C 184.339844 75.109375 174.503906 65.273438 162.398438 65.273438 Z M 97.65625 138.125 L 97.65625 86.902344 L 142.007812 112.527344 L 97.65625 138.152344 Z M 97.65625 138.125 " fill-opacity="1" fill-rule="nonzero"/></g><path fill="#ffffff" d="M 107.179688 69.445312 C 107.058594 69.445312 106.960938 69.410156 106.886719 69.339844 C 106.8125 69.273438 106.777344 69.179688 106.777344 69.0625 C 106.777344 68.949219 106.8125 68.855469 106.886719 68.785156 C 106.960938 68.707031 107.058594 68.671875 107.179688 68.671875 C 107.308594 68.671875 107.40625 68.707031 107.480469 68.777344 C 107.550781 68.847656 107.589844 68.941406 107.589844 69.058594 C 107.589844 69.171875 107.550781 69.265625 107.476562 69.339844 C 107.402344 69.410156 107.304688 69.445312 107.179688 69.445312 Z M 107.179688 69.445312 " fill-opacity="1" fill-rule="nonzero"/></svg>