<svg xmlns="http://www.w3.org/2000/svg" xmlns:xlink="http://www.w3.org/1999/xlink" width="500" zoomAndPan="magnify" viewBox="0 0 375 374.999991" height="500" preserveAspectRatio="xMidYMid meet" version="1.2"><defs><clipPath id="aaf7e58120"><path d="M 63.34375 72.808594 L 311.59375 72.808594 L 311.59375 302.308594 L 63.34375 302.308594 Z M 63.34375 72.808594 "/></clipPath></defs><g id="4e2d92e381"><g clip-rule="nonzero" clip-path="url(#aaf7e58120)"><path style=" stroke:none;fill-rule:nonzero;fill:#28292a;fill-opacity:1;" d="M 311.378906 181.269531 C 311.378906 165.632812 268.855469 152.582031 212.355469 149.574219 L 212.351562 124.65625 L 282.902344 124.65625 L 282.902344 72.796875 L 89.980469 72.796875 L 89.980469 124.65625 L 160.53125 124.65625 L 160.53125 149.695312 C 105.054688 152.910156 63.554688 165.824219 63.554688 181.269531 C 63.554688 196.71875 105.054688 209.632812 160.53125 212.84375 L 160.53125 302.320312 L 212.351562 302.320312 L 212.351562 212.964844 C 268.855469 209.960938 311.378906 196.910156 311.378906 181.269531 Z M 187.46875 196.675781 C 126.816406 196.675781 77.648438 187.28125 77.648438 175.683594 C 77.648438 165.867188 112.90625 157.625 160.53125 155.332031 L 160.53125 161.242188 L 160.535156 161.242188 L 160.535156 185.457031 C 169.121094 185.941406 178.144531 186.195312 187.46875 186.195312 C 196.050781 186.195312 204.386719 185.972656 212.355469 185.574219 L 212.355469 155.242188 C 261.011719 157.394531 297.285156 165.722656 297.285156 175.683594 C 297.285156 187.28125 248.117188 196.675781 187.46875 196.675781 "/></g></g></svg>