<svg xmlns="http://www.w3.org/2000/svg" xmlns:xlink="http://www.w3.org/1999/xlink" width="97" zoomAndPan="magnify" viewBox="0 0 72.75 72.749999" height="97" preserveAspectRatio="xMidYMid meet" version="1.2"><defs><clipPath id="29f5060f6a"><path d="M 17 22 L 66.953125 22 L 66.953125 72 L 17 72 Z M 17 22 "/></clipPath><clipPath id="e2535a15d3"><path d="M 5.664062 0 L 56 0 L 56 50 L 5.664062 50 Z M 5.664062 0 "/></clipPath></defs><g id="b99b2e154c"><g style="fill:#000000;fill-opacity:1;"><g transform="translate(33.420928, 23.780863)"><path style="stroke:none" d="M 6 -0.28125 C 5.550781 0.15625 5.015625 0.375 4.390625 0.375 C 3.773438 0.375 3.238281 0.15625 2.78125 -0.28125 C 2.332031 -0.726562 2.109375 -1.25 2.109375 -1.84375 C 2.109375 -2.46875 2.332031 -3 2.78125 -3.4375 C 3.238281 -3.882812 3.773438 -4.109375 4.390625 -4.109375 C 5.015625 -4.109375 5.550781 -3.882812 6 -3.4375 C 6.445312 -3 6.671875 -2.46875 6.671875 -1.84375 C 6.671875 -1.25 6.445312 -0.726562 6 -0.28125 Z M 6 -0.28125 "/></g></g><g clip-rule="nonzero" clip-path="url(#29f5060f6a)"><path style=" stroke:none;fill-rule:nonzero;fill:#000000;fill-opacity:1;" d="M 36.25 71.359375 L 18.210938 57.648438 C 17.039062 56.757812 17.039062 54.992188 18.210938 54.101562 L 36.25 40.390625 C 37.71875 39.269531 39.835938 40.316406 39.835938 42.164062 L 39.835938 47.722656 C 51.421875 46.613281 60.480469 36.875 60.480469 25.027344 C 60.480469 24.984375 60.480469 24.941406 60.480469 24.898438 C 60.464844 22.410156 63.847656 21.738281 64.792969 24.039062 C 66.1875 27.449219 66.957031 31.183594 66.957031 35.097656 C 66.957031 50.523438 55.003906 63.152344 39.835938 64.28125 L 39.835938 69.585938 C 39.835938 71.429688 37.71875 72.476562 36.25 71.359375 Z M 36.25 71.359375 "/></g><g clip-rule="nonzero" clip-path="url(#e2535a15d3)"><path style=" stroke:none;fill-rule:nonzero;fill:#000000;fill-opacity:1;" d="M 32.789062 30.339844 L 32.789062 24.777344 C 21.203125 25.886719 12.144531 35.625 12.144531 47.472656 C 12.144531 47.515625 12.144531 47.558594 12.144531 47.601562 C 12.160156 50.089844 8.777344 50.765625 7.832031 48.460938 C 6.4375 45.050781 5.667969 41.316406 5.667969 37.402344 C 5.667969 21.976562 17.621094 9.347656 32.789062 8.21875 L 32.789062 2.914062 C 32.789062 1.070312 34.90625 0.0234375 36.375 1.140625 L 54.414062 14.851562 C 55.585938 15.746094 55.585938 17.507812 54.414062 18.398438 L 36.375 32.113281 C 34.90625 33.230469 32.789062 32.183594 32.789062 30.339844 Z M 32.789062 30.339844 "/></g></g></svg>