<svg xmlns="http://www.w3.org/2000/svg" xmlns:xlink="http://www.w3.org/1999/xlink" width="97" zoomAndPan="magnify" viewBox="0 0 72.75 72.749999" height="97" preserveAspectRatio="xMidYMid meet" version="1.2"><defs><clipPath id="fbba904c0f"><path d="M 1.449219 1 L 70.960938 1 L 70.960938 72 L 1.449219 72 Z M 1.449219 1 "/></clipPath><clipPath id="bffae35147"><path d="M 64.535156 21.089844 C 61.171875 22.339844 58.53125 25.15625 57.363281 28.746094 L 55.183594 35.4375 C 55.152344 35.542969 55.0625 35.609375 54.964844 35.609375 C 54.863281 35.609375 54.773438 35.542969 54.742188 35.4375 L 52.5625 28.746094 C 51.394531 25.15625 48.753906 22.335938 45.390625 21.089844 L 39.121094 18.765625 C 39.027344 18.730469 38.964844 18.636719 38.964844 18.53125 C 38.964844 18.425781 39.027344 18.332031 39.121094 18.296875 L 45.390625 15.972656 C 48.753906 14.726562 51.394531 11.90625 52.5625 8.316406 L 54.742188 1.625 C 54.773438 1.523438 54.863281 1.453125 54.964844 1.453125 C 55.0625 1.453125 55.152344 1.523438 55.183594 1.625 L 57.363281 8.316406 C 58.53125 11.90625 61.171875 14.726562 64.535156 15.972656 L 70.804688 18.296875 C 70.898438 18.332031 70.960938 18.425781 70.960938 18.53125 C 70.960938 18.636719 70.898438 18.730469 70.804688 18.765625 Z M 36.960938 41.976562 C 32.292969 43.707031 28.625 47.625 27.003906 52.605469 L 23.976562 61.902344 C 23.929688 62.042969 23.808594 62.136719 23.667969 62.136719 C 23.53125 62.136719 23.410156 62.042969 23.363281 61.902344 L 20.335938 52.605469 C 18.714844 47.625 15.046875 43.707031 10.378906 41.976562 L 1.667969 38.746094 C 1.535156 38.699219 1.449219 38.566406 1.449219 38.421875 C 1.449219 38.273438 1.535156 38.144531 1.667969 38.09375 L 10.378906 34.867188 C 15.046875 33.136719 18.714844 29.21875 20.335938 24.234375 L 23.363281 14.9375 C 23.410156 14.796875 23.53125 14.703125 23.667969 14.703125 C 23.808594 14.703125 23.929688 14.796875 23.976562 14.9375 L 27.003906 24.234375 C 28.625 29.21875 32.292969 33.136719 36.960938 34.867188 L 45.671875 38.09375 C 45.804688 38.144531 45.890625 38.273438 45.890625 38.421875 C 45.890625 38.566406 45.804688 38.699219 45.671875 38.746094 Z M 54.75 65.550781 C 55.683594 62.679688 57.796875 60.421875 60.484375 59.425781 L 65.503906 57.566406 C 65.578125 57.539062 65.628906 57.464844 65.628906 57.378906 C 65.628906 57.292969 65.578125 57.21875 65.503906 57.191406 L 60.484375 55.332031 C 57.796875 54.332031 55.683594 52.078125 54.75 49.207031 L 53.003906 43.851562 C 52.980469 43.769531 52.910156 43.710938 52.828125 43.710938 C 52.746094 43.710938 52.671875 43.769531 52.648438 43.851562 L 50.910156 49.207031 C 49.972656 52.078125 47.859375 54.335938 45.167969 55.332031 L 40.15625 57.191406 C 40.078125 57.21875 40.027344 57.292969 40.027344 57.378906 C 40.027344 57.464844 40.078125 57.539062 40.15625 57.566406 L 45.167969 59.425781 C 47.859375 60.421875 49.972656 62.679688 50.910156 65.550781 L 52.648438 70.90625 C 52.671875 70.988281 52.746094 71.046875 52.828125 71.046875 C 52.910156 71.046875 52.980469 70.988281 53.003906 70.90625 Z M 54.75 65.550781 "/></clipPath></defs><g id="9d83f7cd36"><g clip-rule="nonzero" clip-path="url(#fbba904c0f)"><g clip-rule="evenodd" clip-path="url(#bffae35147)"><path style=" stroke:none;fill-rule:nonzero;fill:#000000;fill-opacity:1;" d="M 1.449219 1.453125 L 1.449219 71.046875 L 70.960938 71.046875 L 70.960938 1.453125 Z M 1.449219 1.453125 "/></g></g></g></svg>