<svg xmlns="http://www.w3.org/2000/svg" xmlns:xlink="http://www.w3.org/1999/xlink" width="97" zoomAndPan="magnify" viewBox="0 0 72.75 72.749999" height="97" preserveAspectRatio="xMidYMid meet" version="1.2"><defs><clipPath id="133bc3540a"><path d="M 1 2.503906 L 71 2.503906 L 71 69.773438 L 1 69.773438 Z M 1 2.503906 "/></clipPath></defs><g id="332defcb60"><g style="fill:#000000;fill-opacity:1;"><g transform="translate(33.420928, 23.780863)"><path style="stroke:none" d="M 6 -0.28125 C 5.550781 0.15625 5.015625 0.375 4.390625 0.375 C 3.773438 0.375 3.238281 0.15625 2.78125 -0.28125 C 2.332031 -0.726562 2.109375 -1.25 2.109375 -1.84375 C 2.109375 -2.46875 2.332031 -3 2.78125 -3.4375 C 3.238281 -3.882812 3.773438 -4.109375 4.390625 -4.109375 C 5.015625 -4.109375 5.550781 -3.882812 6 -3.4375 C 6.445312 -3 6.671875 -2.46875 6.671875 -1.84375 C 6.671875 -1.25 6.445312 -0.726562 6 -0.28125 Z M 6 -0.28125 "/></g></g><g clip-rule="nonzero" clip-path="url(#133bc3540a)"><path style=" stroke:none;fill-rule:nonzero;fill:#000000;fill-opacity:1;" d="M 67.242188 37.675781 L 64.390625 37.675781 L 64.390625 66.820312 C 64.367188 67.21875 64.269531 67.59375 64.09375 67.953125 C 63.917969 68.308594 63.683594 68.621094 63.386719 68.886719 C 63.089844 69.152344 62.753906 69.351562 62.375 69.480469 C 62 69.613281 61.613281 69.671875 61.214844 69.652344 L 44.371094 69.652344 L 44.371094 49.777344 C 44.371094 49.503906 44.316406 49.238281 44.210938 48.984375 C 44.105469 48.730469 43.953125 48.503906 43.757812 48.3125 C 43.5625 48.117188 43.339844 47.964844 43.085938 47.859375 C 42.828125 47.753906 42.5625 47.703125 42.289062 47.703125 L 30.066406 47.703125 C 29.789062 47.703125 29.523438 47.753906 29.269531 47.859375 C 29.011719 47.964844 28.789062 48.117188 28.59375 48.3125 C 28.398438 48.503906 28.246094 48.730469 28.140625 48.984375 C 28.035156 49.238281 27.984375 49.503906 27.984375 49.777344 L 27.984375 69.648438 L 11.136719 69.648438 C 10.738281 69.671875 10.355469 69.613281 9.980469 69.484375 C 9.605469 69.351562 9.269531 69.15625 8.972656 68.890625 C 8.675781 68.625 8.441406 68.316406 8.265625 67.960938 C 8.09375 67.601562 7.996094 67.226562 7.972656 66.832031 L 7.972656 37.675781 L 5.109375 37.675781 C 1.933594 37.675781 0.214844 34.699219 2.292969 32.785156 L 33.636719 3.90625 C 34.03125 3.574219 34.472656 3.316406 34.957031 3.140625 C 35.445312 2.964844 35.945312 2.875 36.464844 2.878906 C 36.980469 2.878906 37.484375 2.96875 37.96875 3.148438 C 38.457031 3.324219 38.894531 3.582031 39.289062 3.917969 C 49.550781 13.542969 59.816406 23.171875 70.085938 32.796875 C 72.125 34.726562 70.40625 37.675781 67.242188 37.675781 Z M 67.242188 37.675781 "/></g></g></svg>