<svg xmlns="http://www.w3.org/2000/svg" xmlns:xlink="http://www.w3.org/1999/xlink" width="97" zoomAndPan="magnify" viewBox="0 0 72.75 72.749999" height="97" preserveAspectRatio="xMidYMid meet" version="1.2"><defs><clipPath id="d3b9c22b08"><path d="M 1 12.65625 L 72 12.65625 L 72 59.742188 L 1 59.742188 Z M 1 12.65625 "/></clipPath></defs><g id="75e58edc38"><g style="fill:#000000;fill-opacity:1;"><g transform="translate(36.250427, 27.823003)"><path style="stroke:none" d="M 6 -0.28125 C 5.550781 0.15625 5.015625 0.375 4.390625 0.375 C 3.773438 0.375 3.238281 0.15625 2.78125 -0.28125 C 2.332031 -0.726562 2.109375 -1.25 2.109375 -1.84375 C 2.109375 -2.46875 2.332031 -3 2.78125 -3.4375 C 3.238281 -3.882812 3.773438 -4.109375 4.390625 -4.109375 C 5.015625 -4.109375 5.550781 -3.882812 6 -3.4375 C 6.445312 -3 6.671875 -2.46875 6.671875 -1.84375 C 6.671875 -1.25 6.445312 -0.726562 6 -0.28125 Z M 6 -0.28125 "/></g></g><g clip-rule="nonzero" clip-path="url(#d3b9c22b08)"><path style=" stroke:none;fill-rule:nonzero;fill:#000000;fill-opacity:1;" d="M 68.980469 34.488281 C 65.945312 22.929688 62.445312 15.324219 54.382812 13.140625 C 53.152344 12.808594 51.996094 12.644531 50.839844 12.644531 C 48.410156 12.644531 46.453125 13.375 44.554688 14.085938 C 42.808594 14.738281 40.859375 15.449219 38.164062 15.691406 L 36.148438 15.75 C 36.148438 15.761719 30.054688 14.871094 27.929688 14.078125 C 26.042969 13.371094 24.089844 12.640625 21.667969 12.640625 C 20.511719 12.640625 19.351562 12.804688 18.121094 13.136719 C 10.054688 15.324219 6.558594 22.925781 3.527344 34.488281 C 0.0117188 47.875 0.984375 56.851562 6.191406 59.113281 C 7.039062 59.484375 7.929688 59.671875 8.84375 59.671875 C 13.472656 59.671875 17.730469 54.816406 20.839844 51.265625 L 21.683594 50.285156 C 24.21875 47.328125 29.53125 45.628906 36.253906 45.628906 C 43.5625 45.628906 48.054688 47.066406 50.816406 50.292969 L 51.664062 51.273438 C 54.773438 54.816406 59.027344 59.671875 63.660156 59.671875 C 64.574219 59.671875 65.464844 59.484375 66.304688 59.113281 C 71.515625 56.851562 72.488281 47.878906 68.980469 34.488281 Z M 25.191406 35.390625 L 21.714844 35.390625 L 21.714844 38.753906 C 21.714844 39.984375 20.628906 41.023438 19.34375 41.023438 C 18.054688 41.023438 16.96875 39.984375 16.96875 38.753906 L 16.96875 35.390625 L 13.703125 35.390625 C 12.472656 35.390625 11.429688 34.308594 11.429688 33.023438 C 11.429688 31.738281 12.46875 30.652344 13.703125 30.652344 L 16.96875 30.652344 L 16.96875 27.289062 C 16.96875 26.058594 18.054688 25.019531 19.34375 25.019531 C 20.628906 25.019531 21.714844 26.058594 21.714844 27.289062 L 21.714844 30.652344 L 25.191406 30.652344 C 26.421875 30.652344 27.464844 31.738281 27.464844 33.023438 C 27.464844 34.308594 26.421875 35.390625 25.191406 35.390625 Z M 49.871094 39.515625 C 47.945312 39.515625 46.382812 37.953125 46.382812 36.035156 C 46.382812 34.113281 47.949219 32.554688 49.871094 32.554688 C 51.792969 32.554688 53.355469 34.117188 53.355469 36.035156 C 53.355469 37.953125 51.792969 39.515625 49.871094 39.515625 Z M 56.378906 33.019531 C 54.453125 33.019531 52.890625 31.457031 52.890625 29.539062 C 52.890625 27.621094 54.457031 26.058594 56.378906 26.058594 C 58.300781 26.058594 59.867188 27.621094 59.867188 29.539062 C 59.867188 31.460938 58.300781 33.019531 56.378906 33.019531 Z M 56.378906 33.019531 "/></g></g></svg>