<svg xmlns="http://www.w3.org/2000/svg" xmlns:xlink="http://www.w3.org/1999/xlink" width="97" zoomAndPan="magnify" viewBox="0 0 72.75 72.749999" height="97" preserveAspectRatio="xMidYMid meet" version="1.2"><defs><clipPath id="c26b1ff9eb"><path d="M 0.746094 49 L 72 49 L 72 69.148438 L 0.746094 69.148438 Z M 0.746094 49 "/></clipPath><clipPath id="cc144b15a4"><path d="M 0.746094 30 L 72 30 L 72 52 L 0.746094 52 Z M 0.746094 30 "/></clipPath><clipPath id="e2f9390856"><path d="M 0.746094 4 L 72 4 L 72 34 L 0.746094 34 Z M 0.746094 4 "/></clipPath></defs><g id="70cf309a93"><path style=" stroke:none;fill-rule:nonzero;fill:#000000;fill-opacity:1;" d="M 35.835938 20.148438 C 35.25 20.71875 34.554688 21.003906 33.738281 21.003906 C 32.933594 21.003906 32.234375 20.71875 31.636719 20.148438 C 31.050781 19.566406 30.761719 18.882812 30.761719 18.109375 C 30.761719 17.292969 31.050781 16.601562 31.636719 16.03125 C 32.234375 15.449219 32.933594 15.152344 33.738281 15.152344 C 34.554688 15.152344 35.25 15.449219 35.835938 16.03125 C 36.417969 16.601562 36.714844 17.292969 36.714844 18.109375 C 36.714844 18.882812 36.417969 19.566406 35.835938 20.148438 Z M 35.835938 20.148438 "/><g clip-rule="nonzero" clip-path="url(#c26b1ff9eb)"><path style=" stroke:none;fill-rule:nonzero;fill:#000000;fill-opacity:1;" d="M 0.796875 49.40625 L 0.796875 57.308594 C 0.796875 63.835938 16.671875 69.148438 36.230469 69.148438 C 55.792969 69.148438 71.664062 63.835938 71.664062 57.308594 L 71.664062 49.40625 C 56.421875 59.992188 16.039062 59.992188 0.796875 49.40625 "/></g><g clip-rule="nonzero" clip-path="url(#cc144b15a4)"><path style=" stroke:none;fill-rule:nonzero;fill:#000000;fill-opacity:1;" d="M 0.796875 30 L 0.796875 39.546875 C 0.796875 46.074219 16.671875 51.386719 36.230469 51.386719 C 55.792969 51.386719 71.664062 46.074219 71.664062 39.546875 L 71.664062 30 C 56.355469 42.695312 16.105469 42.695312 0.796875 30 "/></g><g clip-rule="nonzero" clip-path="url(#e2f9390856)"><path style=" stroke:none;fill-rule:nonzero;fill:#000000;fill-opacity:1;" d="M 36.230469 4.019531 C 16.671875 4.019531 0.796875 10.640625 0.796875 18.820312 C 2.179688 38.382812 70.300781 38.363281 71.664062 18.820312 C 71.664062 10.640625 55.792969 4.019531 36.230469 4.019531 "/></g><g style="fill:#000000;fill-opacity:1;"><g transform="translate(36.250427, 27.823003)"><path style="stroke:none" d="M 6 -0.28125 C 5.550781 0.15625 5.015625 0.375 4.390625 0.375 C 3.773438 0.375 3.238281 0.15625 2.78125 -0.28125 C 2.332031 -0.726562 2.109375 -1.25 2.109375 -1.84375 C 2.109375 -2.46875 2.332031 -3 2.78125 -3.4375 C 3.238281 -3.882812 3.773438 -4.109375 4.390625 -4.109375 C 5.015625 -4.109375 5.550781 -3.882812 6 -3.4375 C 6.445312 -3 6.671875 -2.46875 6.671875 -1.84375 C 6.671875 -1.25 6.445312 -0.726562 6 -0.28125 Z M 6 -0.28125 "/></g></g></g></svg>