<svg xmlns="http://www.w3.org/2000/svg" width="800" height="800" viewBox="0 0 128 128" xml:space="preserve"><path fill="red" d="M68 8v8.086c3.445.105 7.352.738 11.82 2.039q7.29 2.127 12.078 7.031c3.18 3.277 4.781 6.66 4.781 10.152 0 3.145-1.152 5.816-3.465 8.027-2.32 2.211-5.027 3.316-8.113 3.316-2.777 0-5.113-.828-7.023-2.496q-2.845-2.484-2.844-6.223-.002-2.385 2.422-5.918c1.469-2.082 2.199-3.566 2.199-4.453q-.002-2-3.215-3.793c-1.973-1.098-4.922-1.664-8.641-1.836v33.535c11.031 4.188 18.809 8.133 23.203 11.82C97.063 72.285 100 78.082 100 84.672q.001 10.477-8.605 17.973c-5.555 4.844-13.387 7.879-23.395 9.191V120h-8v-8h-.977c-8.805 0-16.172-1.898-22.109-5.707q-8.916-5.7-8.914-14.992.002-5.436 3.473-8.691c2.309-2.164 5.191-3.246 8.637-3.246 3.289 0 5.969.891 8.035 2.684q3.087 2.69 3.086 6.934c0 3.762-1.75 6.699-5.246 8.824-1.348.793-2.156 1.371-2.438 1.727s-.422.754-.422 1.191q-.001 1.79 3.016 3.184c2.777 1.328 7.066 2.082 12.883 2.258l.976-.041V71.637l-.977-.313c-9.422-3.621-15.766-6.613-19.063-8.984-3.297-2.359-5.879-5.289-7.758-8.785-1.883-3.492-2.813-7.34-2.813-11.543 0-6.813 2.703-12.641 8.137-17.484S50.113 16.844 59.023 16H60V8zm-8 44.453V21.957l-.977.016q-7.641.733-12.234 4.754c-3.055 2.688-4.586 5.777-4.586 9.285 0 6.52 5.598 11.879 16.82 16.074zm8 53.156c5.121-.711 9.379-2.313 12.594-4.988 3.41-2.848 5.133-6 5.133-9.453 0-3.141-1.195-5.977-3.586-8.527-2.282-2.426-7.051-5.203-14.141-8.305zM76 0H52v8.969c-7.824 1.621-14.461 4.832-19.797 9.586-7.176 6.398-10.813 14.289-10.813 23.457 0 5.539 1.27 10.699 3.77 15.34 2.453 4.563 5.867 8.434 10.145 11.492 1.129.813 2.48 1.652 4.074 2.531-5.16.16-9.77 2.016-13.379 5.398-3.926 3.688-6 8.711-6 14.527 0 6.238 2.188 15.074 12.605 21.734 5.512 3.535 12.016 5.738 19.395 6.578V128h24v-9.473c8.426-1.93 15.355-5.234 20.652-9.852C104.18 102.121 108 94.043 108 84.672c0-9.008-3.906-16.902-11.605-23.469-2.602-2.184-6.016-4.363-10.309-6.574 4.746-.23 9.098-2.121 12.648-5.5 3.891-3.723 5.945-8.5 5.945-13.82 0-5.617-2.367-10.91-7.039-15.723-4.168-4.27-9.402-7.34-15.578-9.141A67 67 0 0 0 76 8.977zm0 94.012V87.82c.141.125.242.227.313.301 1.246 1.328 1.414 2.285 1.414 3.047 0 .824-.582 1.781-1.727 2.844"/></svg>