<svg xmlns="http://www.w3.org/2000/svg" width="962.5" height="962.5" viewBox="0 0 962.5 962.5" xml:space="preserve" fill="red"><path d="M333.25 603.5c-4.101 0-8.301.101-12.5.101-87.2 0-169.5-10.2-231.8-28.7-32.1-9.5-57.8-20.9-76.4-34-2.7-1.9-5.2-3.8-7.6-5.7v144.4c0 51.699 141.4 93.6 315.8 93.6q13.349 0 26.399-.3c-12.7-35.4-19.1-72.601-19.1-110.7.001-19.901 1.701-39.501 5.201-58.701"/><path d="M424.45 429.4c12.9-12.9 26.7-24.601 41.301-35-44.601 6.6-94 10.1-145 10.1-87.2 0-169.5-10.2-231.8-28.7-32.1-9.5-57.8-20.9-76.4-34-2.7-1.9-5.2-3.8-7.6-5.7v143.8c0 4.2 1 8.3 2.8 12.399 20.5 45.9 152.8 81.2 313 81.2 6.5 0 13-.1 19.399-.2 3.7-13.3 8.3-26.5 13.8-39.3a314.6 314.6 0 0 1 21.301-41.7C388.85 469.601 405.35 448.5 424.45 429.4"/><path d="M320.75 217.2c-87.2 0-169.5-10.2-231.8-28.7-32.1-9.5-57.8-20.9-76.4-34-2.7-1.9-5.2-3.8-7.6-5.7v132.1c0 4 .9 8 2.5 11.8 19.6 46.1 152.4 81.8 313.3 81.8 160.899 0 293.7-35.7 313.299-81.8 1.6-3.9 2.5-7.8 2.5-11.8V148.8c-2.4 2-4.9 3.9-7.6 5.7-18.6 13-44.301 24.4-76.4 34-62.298 18.5-144.599 28.7-231.799 28.7"/><path d="M636.55 93.6c0-5.1-1.4-10.1-4.1-15-2.801-5.2-7-10.2-12.5-15C577.751 26.6 459.75 0 320.75 0S63.649 26.6 21.55 63.6c-5.5 4.8-9.7 9.8-12.5 15-2.7 4.9-4.1 9.9-4.1 15 0 51.7 141.4 93.6 315.8 93.6 174.399 0 315.8-41.9 315.8-93.6m30 268.3c-3.1-.1-6.199-.2-9.4-.2-1.898 0-3.799 0-5.6.1q-7.5.15-15 .6c-94.299 6.4-176.7 56.3-227.2 129.899-16.7 24.301-30 51.301-39 80.101-1.6 5-3 10.1-4.3 15.2-1.3 5-2.4 10.1-3.4 15.1-3.899 19.2-5.899 39.1-5.899 59.4 0 38.699 7.3 75.6 20.6 109.5C421.15 883.3 529.95 962.5 657.149 962.5c165.9 0 300.4-134.5 300.4-300.399.1-162.701-129.4-295.201-290.999-300.201m78.599 444.9c-15.1 15.9-35.699 26.4-59.299 30.601v12c0 11-8.9 19.899-19.9 19.899h-10.801c-11 0-19.898-8.899-19.898-19.899v-12.5c-13-2.5-25.5-6.7-36.701-12.4-13.199-6.8-24.699-17.899-34.299-32.899-6.4-10-11-21.601-13.801-34.601-1.1-4.899-.199-9.8 2.1-13.8 2.801-5 7.801-8.7 13.9-9.8l10.699-1.9c2.201-.399 4.4-.399 6.4 0 7.701 1.2 14.201 6.8 16.201 14.7 3 11.9 7.1 21.1 12.199 27.6 11.4 14.601 30.199 23.301 50.301 23.301 3.398 0 6.799-.301 10.199-.801 14.4-2.199 27.301-9 36.199-19.199 9.5-10.801 14.301-24.4 14.301-40.4 0-13.5-3.301-24.5-9.9-32.6-12.1-14.801-32.799-21.2-51.5-25.4-8.699-2-17-3.9-25.199-6.2-13.6-3.9-26.701-8.7-39.801-16-13.5-7.5-24-18.1-31.299-31.4-7.201-13.199-10.9-28.399-10.9-45.199 0-2 .1-3.9.1-5.801.301-5.699 1-11.1 2-16.3 1.301-6.2 3.1-12.1 5.5-17.7 5.301-12.399 13.4-23.399 24.1-32.8 7-6.1 15.4-11.2 24.9-15.1 7.4-3.101 15.5-5.4 24-7V469c0-2.4.5-4.8 1.301-6.9 2.398-6.5 8.1-11.3 15-12.6q1.798-.3 3.6-.3h11.401c10.699.3 19.299 9.1 19.299 19.8v16.5c17.9 3.5 33.801 10.5 45.801 20.4 12.699 10.5 21.9 23.8 27.6 39.8 4.199 11.7-3.5 24.399-15.801 26.2l-10.5 1.6c-9.5 1.4-18.699-4.2-21.699-13.2-2.5-7.399-5.9-13.5-10.1-18.2-9.5-10.6-24.4-16.699-40.9-16.699-5 0-9.9.6-14.6 1.6q-4.65 1.05-9 2.7c-8.201 3.2-15.4 7.899-20.9 14a50.5 50.5 0 0 0-6.5 9.1c-4 7.2-6 15.2-6 24.1 0 12.601 3.5 23.301 10.5 31.801 6.199 7.399 14 12.6 22.799 16.399 12 5.2 25.602 8 39 10.7 13.5 2.7 27.5 5.5 39.701 10.9 12.9 5.7 23.699 12.8 31.9 21 8.299 8.3 14.699 18.2 19.199 29.6 4.4 11.3 6.701 23.7 6.701 36.8.099 28.899-9.202 53.299-27.603 72.699"/></svg>